M48
;Layer_Color=9474304
;FILE_FORMAT=2:5
INCH,LZ
;TYPE=PLATED
T1F00S00C0.01000
T2F00S00C0.01299
T3F00S00C0.01500
T4F00S00C0.01800
T5F00S00C0.02000
T6F00S00C0.06800
T7F00S00C0.07000
;TYPE=NON_PLATED
T8F00S00C0.11811
T9F00S00C0.18504
%
T01
X0064974Y-01524
X00765Y-01333
X00901Y-01334
X0093Y-01316
X0037091Y-0149724
X00363Y-01538
X00295Y-01493
X00227Y-01509
X0018702Y-0149599
X0018205Y-0144585
X0021963Y-0167356
X-00177Y-01389
Y-01338
X-00209Y-01364
X-00515Y-0157
X-01515Y-0065195
X-01525Y-0047
X-0167Y-0051
X-0024Y-00555
Y-00605
Y-00655
Y-00705
Y-0075
X-00085Y-00775
X0004289Y-0068211
X000535Y-005815
X000845
X001155
X001465
Y-005505
X001155
X000845
X000535
Y-005195
X000845
X001155
X001465
Y-004885
X001155
X000845
X000535
X00055Y-00385
X00044Y-00301
X-0002
X-0005213Y-00225
X-00171Y-00224
X-00194Y-00139
X-0014Y-0012
X0
X00065Y00025
X0009Y00045
X00065Y0007
X-00095
X-00123Y00045
X-00145Y00025
X-0019Y00115
X-0009Y00245
X0002Y0023
X0005
X-00458Y00084
X-00439Y00056
X-00458Y0003
X-00555Y00115
Y00165
X-00605Y00145
X-00355Y-0024
X-0034Y-0027
X-0029847Y-0037653
X-00155Y-005
X-00023Y-0044
X002Y-0043756
X0024Y-0046
X00275Y-0043756
X0036658Y-0040157
X00394Y-00488
X00479
X0039658Y-00615
X0031Y-0088
X0051Y-01145
X-00514Y-0115
X-004Y-0084
X00255Y-0022
X00654Y-0027
X00685Y-0026
X00576Y-00076
X0056Y0023
X00673Y00238
X0083Y-0099788
X0079Y-01109
X00775Y-01136
X0078Y-01271
X00792Y-01306
X00675Y-01265
X00964Y-01289
X00991Y-01259
X01064Y-01208
X0106Y-01176
X01092Y-01147
X0105075Y-01119
X01312Y-00899
Y-00815
X0152721Y-00625
X01466Y00594
Y00666
X015171Y0064971
X00865Y00945
X0084Y00965
X00815Y00985
X0091Y0102685
X0106158Y0117842
X0086586Y0138184
X00826Y01393
X00595Y0155
X0067Y00425
Y00395
Y00365
Y00335
X0066Y003
X00673Y00273
X0044Y00385
X00463Y00552
X0029913Y0055213
X0029987Y0058513
X00215Y00585
X00149Y0059
Y00613
X00154Y00497
Y00466
Y00435
Y00404
Y00373
X00185
X00216
X00247
Y00404
X00216
X00185
Y00435
X00216
X00247
Y00466
X00216
X00185
Y00497
X00216
X00247
X00123
Y00466
Y00435
Y00404
Y00373
X00025Y0036
X0005158Y0030658
X-0006657
X-0008Y0044
X-00115Y00525
X-0012Y00585
X-0008658Y0073443
X-00035Y0073
X0003Y0074
X00075
X0012
X00155Y00875
X00285Y0075
X0038Y0079
X0007Y0055213
X003Y0032
X-00435Y0064
X-004Y00685
X-003657Y007743
X-00591Y00844
X-00613Y00874
X-00569
X-0055Y00965
X-0079Y00885
X-00815Y00865
X-0084Y00885
X-0081Y01295
X-0076
X-00735Y01255
X-00652Y01257
X-00641Y01229
X-00665Y012
X-0074857Y0147042
X-01445Y0069
X-015Y00575
X-01535Y0060827
T02
X0086138Y-0122362
X0090862
Y-0117638
X0086138
X-0078508Y0115138
X-0083232
Y0119862
X-0078508
T03
X-00125Y-0105
X-00075
X-00025
X0018Y00195
X0021Y00215
Y0017
X00595Y0114
X0065
X00705
X0076
Y01185
Y0123
X00705
X0065
X00595
X00705Y01285
X0076
Y0134
Y01395
X00705
Y0134
Y0145
X00745Y01435
X0091642Y013721
X0085Y012
X0086701Y0110701
X0072Y0109
Y01055
X00985Y012
X0054Y0123
X00485
X0043
X00385
Y01185
Y0114
X0043
X00485
X0054
X00205
Y01185
Y0123
X0015
X00095
X0004
X-00015
X-0007
X-00125
X-00135Y01285
Y0134
Y01395
Y0145
Y01505
Y01555
Y01605
X-00455Y01525
Y0147
Y01415
Y0136
Y01305
Y0125
Y01195
X-004Y0114
X-00345
X-0029
X-00235
X-0018
X-00125
X-0007
X-00015
X0004
X00095
X0015
X00025Y00605
X-00286Y00454
T04
X00615Y-01365
X00375Y-0105
X0025Y-00655
X0017Y-0071
X0011
X-0003Y-0083
Y-0089
X00655Y-01015
X00605Y-01115
Y-01175
X0096Y-0107
X01Y-01025
X00425Y00335
X001391Y009183
X-0055Y0105
X-0061
X-0067Y01045
X-0095Y01125
X-0057Y01375
X-0103Y01065
T05
X-0035Y-0018
X00205Y-0015
X00465Y-0019
X006
T06
X-0069Y-00545
X0119
X0069Y00535
X-0119
T07
X-0119Y-00845
Y-00545
X-0069Y-00845
X0069
Y-00545
X0119Y-00845
Y00535
Y00835
X0069
X-0069
Y00535
X-0119Y00835
T08
X-0161297Y0
X0161537
T09
X0Y-015087
M30
