%FSLAX25Y25*%
%MOIN*%
G70*
G01*
G75*
G04 Layer_Color=2752767*
%ADD10C,0.01000*%
%ADD11C,0.00500*%
%ADD12C,0.00600*%
%ADD13R,0.03347X0.02953*%
%ADD14R,0.02953X0.03347*%
%ADD15R,0.03543X0.02953*%
G04:AMPARAMS|DCode=16|XSize=17.72mil|YSize=19.69mil|CornerRadius=0mil|HoleSize=0mil|Usage=FLASHONLY|Rotation=22.500|XOffset=0mil|YOffset=0mil|HoleType=Round|Shape=Rectangle|*
%AMROTATEDRECTD16*
4,1,4,-0.00442,-0.01248,-0.01195,0.00570,0.00442,0.01248,0.01195,-0.00570,-0.00442,-0.01248,0.0*
%
%ADD16ROTATEDRECTD16*%

G04:AMPARAMS|DCode=17|XSize=33.47mil|YSize=35.43mil|CornerRadius=0mil|HoleSize=0mil|Usage=FLASHONLY|Rotation=202.500|XOffset=0mil|YOffset=0mil|HoleType=Round|Shape=Rectangle|*
%AMROTATEDRECTD17*
4,1,4,0.00868,0.02277,0.02224,-0.00997,-0.00868,-0.02277,-0.02224,0.00997,0.00868,0.02277,0.0*
%
%ADD17ROTATEDRECTD17*%

G04:AMPARAMS|DCode=18|XSize=17.72mil|YSize=19.69mil|CornerRadius=0mil|HoleSize=0mil|Usage=FLASHONLY|Rotation=112.500|XOffset=0mil|YOffset=0mil|HoleType=Round|Shape=Rectangle|*
%AMROTATEDRECTD18*
4,1,4,0.01248,-0.00442,-0.00570,-0.01195,-0.01248,0.00442,0.00570,0.01195,0.01248,-0.00442,0.0*
%
%ADD18ROTATEDRECTD18*%

G04:AMPARAMS|DCode=19|XSize=33.47mil|YSize=35.43mil|CornerRadius=0mil|HoleSize=0mil|Usage=FLASHONLY|Rotation=292.500|XOffset=0mil|YOffset=0mil|HoleType=Round|Shape=Rectangle|*
%AMROTATEDRECTD19*
4,1,4,-0.02277,0.00868,0.00997,0.02224,0.02277,-0.00868,-0.00997,-0.02224,-0.02277,0.00868,0.0*
%
%ADD19ROTATEDRECTD19*%

G04:AMPARAMS|DCode=20|XSize=17.72mil|YSize=19.69mil|CornerRadius=0mil|HoleSize=0mil|Usage=FLASHONLY|Rotation=337.500|XOffset=0mil|YOffset=0mil|HoleType=Round|Shape=Rectangle|*
%AMROTATEDRECTD20*
4,1,4,-0.01195,-0.00570,-0.00442,0.01248,0.01195,0.00570,0.00442,-0.01248,-0.01195,-0.00570,0.0*
%
%ADD20ROTATEDRECTD20*%

G04:AMPARAMS|DCode=21|XSize=33.47mil|YSize=35.43mil|CornerRadius=0mil|HoleSize=0mil|Usage=FLASHONLY|Rotation=157.500|XOffset=0mil|YOffset=0mil|HoleType=Round|Shape=Rectangle|*
%AMROTATEDRECTD21*
4,1,4,0.02224,0.00997,0.00868,-0.02277,-0.02224,-0.00997,-0.00868,0.02277,0.02224,0.00997,0.0*
%
%ADD21ROTATEDRECTD21*%

G04:AMPARAMS|DCode=22|XSize=17.72mil|YSize=19.69mil|CornerRadius=0mil|HoleSize=0mil|Usage=FLASHONLY|Rotation=247.500|XOffset=0mil|YOffset=0mil|HoleType=Round|Shape=Rectangle|*
%AMROTATEDRECTD22*
4,1,4,-0.00570,0.01195,0.01248,0.00442,0.00570,-0.01195,-0.01248,-0.00442,-0.00570,0.01195,0.0*
%
%ADD22ROTATEDRECTD22*%

G04:AMPARAMS|DCode=23|XSize=33.47mil|YSize=35.43mil|CornerRadius=0mil|HoleSize=0mil|Usage=FLASHONLY|Rotation=67.500|XOffset=0mil|YOffset=0mil|HoleType=Round|Shape=Rectangle|*
%AMROTATEDRECTD23*
4,1,4,0.00997,-0.02224,-0.02277,-0.00868,-0.00997,0.02224,0.02277,0.00868,0.00997,-0.02224,0.0*
%
%ADD23ROTATEDRECTD23*%

%ADD24R,0.02362X0.02362*%
%ADD25R,0.01890X0.01575*%
%ADD26R,0.03150X0.05118*%
%ADD27R,0.02362X0.02559*%
%ADD28C,0.03200*%
%ADD29R,0.02559X0.02362*%
%ADD30R,0.08268X0.08268*%
%ADD31O,0.02559X0.01181*%
%ADD32O,0.01181X0.02559*%
%ADD33R,0.02953X0.03543*%
%ADD34R,0.03543X0.07480*%
%ADD35R,0.02362X0.02362*%
%ADD36R,0.02362X0.02756*%
%ADD37R,0.04724X0.05512*%
G04:AMPARAMS|DCode=38|XSize=11.02mil|YSize=33.47mil|CornerRadius=0mil|HoleSize=0mil|Usage=FLASHONLY|Rotation=0.000|XOffset=0mil|YOffset=0mil|HoleType=Round|Shape=Octagon|*
%AMOCTAGOND38*
4,1,8,-0.00276,0.01673,0.00276,0.01673,0.00551,0.01398,0.00551,-0.01398,0.00276,-0.01673,-0.00276,-0.01673,-0.00551,-0.01398,-0.00551,0.01398,-0.00276,0.01673,0.0*
%
%ADD38OCTAGOND38*%

%ADD39R,0.01102X0.03347*%
%ADD40R,0.03347X0.01102*%
%ADD41R,0.13583X0.13583*%
%ADD42R,0.05709X0.02165*%
%ADD43R,0.05512X0.04724*%
%ADD44R,0.05118X0.07480*%
%ADD45R,0.03000X0.10000*%
%ADD46R,0.17716X0.17716*%
%ADD47R,0.03600X0.04800*%
%ADD48R,0.09055X0.02559*%
%ADD49R,0.08071X0.11417*%
%ADD50R,0.08661X0.04095*%
%ADD51C,0.10000*%
%ADD52C,0.01500*%
%ADD53C,0.00800*%
%ADD54C,0.04000*%
%ADD55C,0.02000*%
%ADD56C,0.03000*%
%ADD57C,0.02500*%
%ADD58C,0.00700*%
%ADD59R,0.07000X0.23500*%
%ADD60R,0.15700X0.07000*%
%ADD61R,0.03000X0.03300*%
%ADD62C,0.03500*%
%ADD63C,0.02000*%
%ADD64R,0.10800X0.10800*%
%ADD65C,0.10800*%
%ADD66C,0.03000*%
%ADD67C,0.02200*%
%ADD68C,0.04000*%
%ADD69C,0.02598*%
%ADD70C,0.00984*%
%ADD71C,0.00984*%
%ADD72C,0.00787*%
%ADD73C,0.00300*%
%ADD74R,0.01772X0.03740*%
%ADD75R,0.03147X0.02753*%
%ADD76R,0.02753X0.03147*%
%ADD77R,0.03343X0.02753*%
G04:AMPARAMS|DCode=78|XSize=15.72mil|YSize=17.69mil|CornerRadius=0mil|HoleSize=0mil|Usage=FLASHONLY|Rotation=22.500|XOffset=0mil|YOffset=0mil|HoleType=Round|Shape=Rectangle|*
%AMROTATEDRECTD78*
4,1,4,-0.00388,-0.01118,-0.01064,0.00516,0.00388,0.01118,0.01064,-0.00516,-0.00388,-0.01118,0.0*
%
%ADD78ROTATEDRECTD78*%

G04:AMPARAMS|DCode=79|XSize=31.47mil|YSize=33.43mil|CornerRadius=0mil|HoleSize=0mil|Usage=FLASHONLY|Rotation=202.500|XOffset=0mil|YOffset=0mil|HoleType=Round|Shape=Rectangle|*
%AMROTATEDRECTD79*
4,1,4,0.00814,0.02147,0.02093,-0.00942,-0.00814,-0.02147,-0.02093,0.00942,0.00814,0.02147,0.0*
%
%ADD79ROTATEDRECTD79*%

G04:AMPARAMS|DCode=80|XSize=15.72mil|YSize=17.69mil|CornerRadius=0mil|HoleSize=0mil|Usage=FLASHONLY|Rotation=112.500|XOffset=0mil|YOffset=0mil|HoleType=Round|Shape=Rectangle|*
%AMROTATEDRECTD80*
4,1,4,0.01118,-0.00388,-0.00516,-0.01064,-0.01118,0.00388,0.00516,0.01064,0.01118,-0.00388,0.0*
%
%ADD80ROTATEDRECTD80*%

G04:AMPARAMS|DCode=81|XSize=31.47mil|YSize=33.43mil|CornerRadius=0mil|HoleSize=0mil|Usage=FLASHONLY|Rotation=292.500|XOffset=0mil|YOffset=0mil|HoleType=Round|Shape=Rectangle|*
%AMROTATEDRECTD81*
4,1,4,-0.02147,0.00814,0.00942,0.02093,0.02147,-0.00814,-0.00942,-0.02093,-0.02147,0.00814,0.0*
%
%ADD81ROTATEDRECTD81*%

G04:AMPARAMS|DCode=82|XSize=15.72mil|YSize=17.69mil|CornerRadius=0mil|HoleSize=0mil|Usage=FLASHONLY|Rotation=337.500|XOffset=0mil|YOffset=0mil|HoleType=Round|Shape=Rectangle|*
%AMROTATEDRECTD82*
4,1,4,-0.01064,-0.00516,-0.00388,0.01118,0.01064,0.00516,0.00388,-0.01118,-0.01064,-0.00516,0.0*
%
%ADD82ROTATEDRECTD82*%

G04:AMPARAMS|DCode=83|XSize=31.47mil|YSize=33.43mil|CornerRadius=0mil|HoleSize=0mil|Usage=FLASHONLY|Rotation=157.500|XOffset=0mil|YOffset=0mil|HoleType=Round|Shape=Rectangle|*
%AMROTATEDRECTD83*
4,1,4,0.02093,0.00942,0.00814,-0.02147,-0.02093,-0.00942,-0.00814,0.02147,0.02093,0.00942,0.0*
%
%ADD83ROTATEDRECTD83*%

G04:AMPARAMS|DCode=84|XSize=15.72mil|YSize=17.69mil|CornerRadius=0mil|HoleSize=0mil|Usage=FLASHONLY|Rotation=247.500|XOffset=0mil|YOffset=0mil|HoleType=Round|Shape=Rectangle|*
%AMROTATEDRECTD84*
4,1,4,-0.00516,0.01064,0.01118,0.00388,0.00516,-0.01064,-0.01118,-0.00388,-0.00516,0.01064,0.0*
%
%ADD84ROTATEDRECTD84*%

G04:AMPARAMS|DCode=85|XSize=31.47mil|YSize=33.43mil|CornerRadius=0mil|HoleSize=0mil|Usage=FLASHONLY|Rotation=67.500|XOffset=0mil|YOffset=0mil|HoleType=Round|Shape=Rectangle|*
%AMROTATEDRECTD85*
4,1,4,0.00942,-0.02093,-0.02147,-0.00814,-0.00942,0.02093,0.02147,0.00814,0.00942,-0.02093,0.0*
%
%ADD85ROTATEDRECTD85*%

%ADD86R,0.02162X0.02162*%
%ADD87R,0.01690X0.01375*%
%ADD88R,0.02950X0.04918*%
%ADD89R,0.02162X0.02359*%
%ADD90R,0.02359X0.02162*%
%ADD91R,0.08068X0.08068*%
%ADD92O,0.02359X0.00981*%
%ADD93O,0.00981X0.02359*%
%ADD94R,0.02753X0.03343*%
%ADD95R,0.03343X0.07280*%
%ADD96R,0.02162X0.02162*%
%ADD97R,0.02162X0.02556*%
%ADD98R,0.04524X0.05312*%
G04:AMPARAMS|DCode=99|XSize=9.02mil|YSize=31.47mil|CornerRadius=0mil|HoleSize=0mil|Usage=FLASHONLY|Rotation=0.000|XOffset=0mil|YOffset=0mil|HoleType=Round|Shape=Octagon|*
%AMOCTAGOND99*
4,1,8,-0.00226,0.01573,0.00226,0.01573,0.00451,0.01348,0.00451,-0.01348,0.00226,-0.01573,-0.00226,-0.01573,-0.00451,-0.01348,-0.00451,0.01348,-0.00226,0.01573,0.0*
%
%ADD99OCTAGOND99*%

%ADD100R,0.00100X0.00100*%
%ADD101R,0.05509X0.01965*%
%ADD102R,0.05312X0.04524*%
%ADD103R,0.04918X0.07280*%
%ADD104R,0.02800X0.09800*%
%ADD105R,0.08855X0.02359*%
%ADD106R,0.07871X0.11217*%
%ADD107R,0.08461X0.03895*%
%ADD108R,0.03400X0.03700*%
%ADD109R,0.03747X0.03353*%
%ADD110R,0.03353X0.03747*%
%ADD111R,0.03943X0.03353*%
G04:AMPARAMS|DCode=112|XSize=19.72mil|YSize=21.69mil|CornerRadius=0mil|HoleSize=0mil|Usage=FLASHONLY|Rotation=22.500|XOffset=0mil|YOffset=0mil|HoleType=Round|Shape=Rectangle|*
%AMROTATEDRECTD112*
4,1,4,-0.00496,-0.01379,-0.01326,0.00625,0.00496,0.01379,0.01326,-0.00625,-0.00496,-0.01379,0.0*
%
%ADD112ROTATEDRECTD112*%

G04:AMPARAMS|DCode=113|XSize=35.47mil|YSize=37.43mil|CornerRadius=0mil|HoleSize=0mil|Usage=FLASHONLY|Rotation=202.500|XOffset=0mil|YOffset=0mil|HoleType=Round|Shape=Rectangle|*
%AMROTATEDRECTD113*
4,1,4,0.00922,0.02408,0.02355,-0.01051,-0.00922,-0.02408,-0.02355,0.01051,0.00922,0.02408,0.0*
%
%ADD113ROTATEDRECTD113*%

G04:AMPARAMS|DCode=114|XSize=19.72mil|YSize=21.69mil|CornerRadius=0mil|HoleSize=0mil|Usage=FLASHONLY|Rotation=112.500|XOffset=0mil|YOffset=0mil|HoleType=Round|Shape=Rectangle|*
%AMROTATEDRECTD114*
4,1,4,0.01379,-0.00496,-0.00625,-0.01326,-0.01379,0.00496,0.00625,0.01326,0.01379,-0.00496,0.0*
%
%ADD114ROTATEDRECTD114*%

G04:AMPARAMS|DCode=115|XSize=35.47mil|YSize=37.43mil|CornerRadius=0mil|HoleSize=0mil|Usage=FLASHONLY|Rotation=292.500|XOffset=0mil|YOffset=0mil|HoleType=Round|Shape=Rectangle|*
%AMROTATEDRECTD115*
4,1,4,-0.02408,0.00922,0.01051,0.02355,0.02408,-0.00922,-0.01051,-0.02355,-0.02408,0.00922,0.0*
%
%ADD115ROTATEDRECTD115*%

G04:AMPARAMS|DCode=116|XSize=19.72mil|YSize=21.69mil|CornerRadius=0mil|HoleSize=0mil|Usage=FLASHONLY|Rotation=337.500|XOffset=0mil|YOffset=0mil|HoleType=Round|Shape=Rectangle|*
%AMROTATEDRECTD116*
4,1,4,-0.01326,-0.00625,-0.00496,0.01379,0.01326,0.00625,0.00496,-0.01379,-0.01326,-0.00625,0.0*
%
%ADD116ROTATEDRECTD116*%

G04:AMPARAMS|DCode=117|XSize=35.47mil|YSize=37.43mil|CornerRadius=0mil|HoleSize=0mil|Usage=FLASHONLY|Rotation=157.500|XOffset=0mil|YOffset=0mil|HoleType=Round|Shape=Rectangle|*
%AMROTATEDRECTD117*
4,1,4,0.02355,0.01051,0.00922,-0.02408,-0.02355,-0.01051,-0.00922,0.02408,0.02355,0.01051,0.0*
%
%ADD117ROTATEDRECTD117*%

G04:AMPARAMS|DCode=118|XSize=19.72mil|YSize=21.69mil|CornerRadius=0mil|HoleSize=0mil|Usage=FLASHONLY|Rotation=247.500|XOffset=0mil|YOffset=0mil|HoleType=Round|Shape=Rectangle|*
%AMROTATEDRECTD118*
4,1,4,-0.00625,0.01326,0.01379,0.00496,0.00625,-0.01326,-0.01379,-0.00496,-0.00625,0.01326,0.0*
%
%ADD118ROTATEDRECTD118*%

G04:AMPARAMS|DCode=119|XSize=35.47mil|YSize=37.43mil|CornerRadius=0mil|HoleSize=0mil|Usage=FLASHONLY|Rotation=67.500|XOffset=0mil|YOffset=0mil|HoleType=Round|Shape=Rectangle|*
%AMROTATEDRECTD119*
4,1,4,0.01051,-0.02355,-0.02408,-0.00922,-0.01051,0.02355,0.02408,0.00922,0.01051,-0.02355,0.0*
%
%ADD119ROTATEDRECTD119*%

%ADD120R,0.02762X0.02762*%
%ADD121R,0.02290X0.01975*%
%ADD122R,0.03550X0.05518*%
%ADD123R,0.02762X0.02959*%
%ADD124C,0.03600*%
%ADD125R,0.02959X0.02762*%
%ADD126R,0.08668X0.08668*%
%ADD127O,0.02959X0.01581*%
%ADD128O,0.01581X0.02959*%
%ADD129R,0.03353X0.03943*%
%ADD130R,0.03943X0.07880*%
%ADD131R,0.02762X0.02762*%
%ADD132R,0.02762X0.03156*%
%ADD133R,0.05124X0.05912*%
G04:AMPARAMS|DCode=134|XSize=15.02mil|YSize=37.47mil|CornerRadius=0mil|HoleSize=0mil|Usage=FLASHONLY|Rotation=0.000|XOffset=0mil|YOffset=0mil|HoleType=Round|Shape=Octagon|*
%AMOCTAGOND134*
4,1,8,-0.00376,0.01873,0.00376,0.01873,0.00751,0.01498,0.00751,-0.01498,0.00376,-0.01873,-0.00376,-0.01873,-0.00751,-0.01498,-0.00751,0.01498,-0.00376,0.01873,0.0*
%
%ADD134OCTAGOND134*%

%ADD135R,0.01502X0.03747*%
%ADD136R,0.03747X0.01502*%
%ADD137R,0.00083X0.00083*%
%ADD138R,0.06109X0.02565*%
%ADD139R,0.05912X0.05124*%
%ADD140R,0.05518X0.07880*%
%ADD141R,0.03400X0.10400*%
%ADD142R,0.00117X0.00117*%
%ADD143R,0.04000X0.05200*%
%ADD144R,0.09455X0.02959*%
%ADD145R,0.08471X0.11817*%
%ADD146R,0.09061X0.04495*%
%ADD147C,0.03900*%
%ADD148C,0.02400*%
%ADD149C,0.00400*%
%ADD150R,0.11200X0.11200*%
%ADD151C,0.11200*%
%ADD152C,0.03400*%
%ADD153C,0.02600*%
%ADD154C,0.02998*%
%ADD155C,0.00667*%
%ADD156C,0.00900*%
%ADD157C,0.01600*%
D10*
X264999Y382478D02*
X261000D01*
Y379479D01*
X262999D01*
X261000D01*
Y376480D01*
X266998D02*
X268997D01*
X267998D01*
Y382478D01*
X266998D01*
X272996Y376480D02*
X274995D01*
X275995Y377480D01*
Y379479D01*
X274995Y380479D01*
X272996D01*
X271996Y379479D01*
Y377480D01*
X272996Y376480D01*
X277994D02*
Y380479D01*
X278994D01*
X279994Y379479D01*
Y376480D01*
Y379479D01*
X280994Y380479D01*
X281993Y379479D01*
Y376480D01*
X283993D02*
X285992D01*
X284992D01*
Y380479D01*
X283993D01*
X289991Y376480D02*
X291990D01*
X292990Y377480D01*
Y379479D01*
X291990Y380479D01*
X289991D01*
X288991Y379479D01*
Y377480D01*
X289991Y376480D01*
X300987Y382478D02*
Y376480D01*
X303986D01*
X304986Y377480D01*
Y378479D01*
X303986Y379479D01*
X300987D01*
X303986D01*
X304986Y380479D01*
Y381478D01*
X303986Y382478D01*
X300987D01*
X306985D02*
Y376480D01*
X310984D01*
X316982Y382478D02*
X312983D01*
Y376480D01*
X316982D01*
X312983Y379479D02*
X314983D01*
X318981D02*
X322980D01*
X324979Y376480D02*
Y382478D01*
X328978Y376480D01*
Y382478D01*
X334976D02*
X330977D01*
Y379479D01*
X332977D01*
X330977D01*
Y376480D01*
X340974Y381478D02*
X339974Y382478D01*
X337975D01*
X336975Y381478D01*
Y377480D01*
X337975Y376480D01*
X339974D01*
X340974Y377480D01*
X342973Y376480D02*
Y377480D01*
X343973D01*
Y376480D01*
X342973D01*
X347972D02*
Y382478D01*
X350971D01*
X351971Y381478D01*
Y379479D01*
X350971Y378479D01*
X347972D01*
X357969Y380479D02*
X354970D01*
X353970Y379479D01*
Y377480D01*
X354970Y376480D01*
X357969D01*
X359968Y382478D02*
Y376480D01*
X362967D01*
X363967Y377480D01*
Y378479D01*
Y379479D01*
X362967Y380479D01*
X359968D01*
X365966Y382478D02*
Y376480D01*
X368965D01*
X369965Y377480D01*
Y381478D01*
X368965Y382478D01*
X365966D01*
X372964Y376480D02*
X374963D01*
X375963Y377480D01*
Y379479D01*
X374963Y380479D01*
X372964D01*
X371964Y379479D01*
Y377480D01*
X372964Y376480D01*
X381961Y380479D02*
X378962D01*
X377962Y379479D01*
Y377480D01*
X378962Y376480D01*
X381961D01*
X261000Y342478D02*
Y336480D01*
X263999D01*
X264999Y337480D01*
Y338479D01*
X263999Y339479D01*
X261000D01*
X263999D01*
X264999Y340479D01*
Y341478D01*
X263999Y342478D01*
X261000D01*
X267998Y336480D02*
X269997D01*
X270997Y337480D01*
Y339479D01*
X269997Y340479D01*
X267998D01*
X266998Y339479D01*
Y337480D01*
X267998Y336480D01*
X273996Y341478D02*
Y340479D01*
X272996D01*
X274995D01*
X273996D01*
Y337480D01*
X274995Y336480D01*
X278994Y341478D02*
Y340479D01*
X277994D01*
X279994D01*
X278994D01*
Y337480D01*
X279994Y336480D01*
X283993D02*
X285992D01*
X286992Y337480D01*
Y339479D01*
X285992Y340479D01*
X283993D01*
X282993Y339479D01*
Y337480D01*
X283993Y336480D01*
X288991D02*
Y340479D01*
X289991D01*
X290990Y339479D01*
Y336480D01*
Y339479D01*
X291990Y340479D01*
X292990Y339479D01*
Y336480D01*
X300987Y342478D02*
Y336480D01*
X304986D01*
X307985Y340479D02*
X309984D01*
X310984Y339479D01*
Y336480D01*
X307985D01*
X306985Y337480D01*
X307985Y338479D01*
X310984D01*
X312983Y340479D02*
Y337480D01*
X313983Y336480D01*
X316982D01*
Y335480D01*
X315982Y334481D01*
X314983D01*
X316982Y336480D02*
Y340479D01*
X321980Y336480D02*
X319981D01*
X318981Y337480D01*
Y339479D01*
X319981Y340479D01*
X321980D01*
X322980Y339479D01*
Y338479D01*
X318981D01*
X324979Y340479D02*
Y336480D01*
Y338479D01*
X325979Y339479D01*
X326979Y340479D01*
X327978D01*
X338975Y336480D02*
X336975Y338479D01*
Y340479D01*
X338975Y342478D01*
X345972Y341478D02*
X344973Y342478D01*
X342973D01*
X341974Y341478D01*
Y337480D01*
X342973Y336480D01*
X344973D01*
X345972Y337480D01*
Y339479D01*
X343973D01*
X347972Y342478D02*
Y336480D01*
X350971D01*
X351971Y337480D01*
Y338479D01*
X350971Y339479D01*
X347972D01*
X350971D01*
X351971Y340479D01*
Y341478D01*
X350971Y342478D01*
X347972D01*
X353970D02*
Y336480D01*
X357969D01*
X359968D02*
X361967Y338479D01*
Y340479D01*
X359968Y342478D01*
X370964Y339479D02*
X374963D01*
X382961Y336480D02*
X384960D01*
X383960D01*
Y342478D01*
X382961Y341478D01*
X388959Y336480D02*
X390958D01*
X391958Y337480D01*
Y339479D01*
X390958Y340479D01*
X388959D01*
X387959Y339479D01*
Y337480D01*
X388959Y336480D01*
X393957Y340479D02*
X397956D01*
X393957Y336480D01*
X397956D01*
X261000Y352478D02*
X264999D01*
X262999D01*
Y346480D01*
X267998D02*
X269997D01*
X270997Y347480D01*
Y349479D01*
X269997Y350479D01*
X267998D01*
X266998Y349479D01*
Y347480D01*
X267998Y346480D01*
X272996Y344481D02*
Y350479D01*
X275995D01*
X276995Y349479D01*
Y347480D01*
X275995Y346480D01*
X272996D01*
X284992Y352478D02*
Y346480D01*
X288991D01*
X291990Y350479D02*
X293989D01*
X294989Y349479D01*
Y346480D01*
X291990D01*
X290990Y347480D01*
X291990Y348479D01*
X294989D01*
X296988Y350479D02*
Y347480D01*
X297988Y346480D01*
X300987D01*
Y345480D01*
X299987Y344481D01*
X298988D01*
X300987Y346480D02*
Y350479D01*
X305985Y346480D02*
X303986D01*
X302986Y347480D01*
Y349479D01*
X303986Y350479D01*
X305985D01*
X306985Y349479D01*
Y348479D01*
X302986D01*
X308984Y350479D02*
Y346480D01*
Y348479D01*
X309984Y349479D01*
X310984Y350479D01*
X311983D01*
X322980Y346480D02*
X320981Y348479D01*
Y350479D01*
X322980Y352478D01*
X329978Y351478D02*
X328978Y352478D01*
X326979D01*
X325979Y351478D01*
Y347480D01*
X326979Y346480D01*
X328978D01*
X329978Y347480D01*
Y349479D01*
X327978D01*
X331977Y352478D02*
X335976D01*
X333976D01*
Y346480D01*
X337975Y352478D02*
Y346480D01*
X341974D01*
X343973D02*
X345972Y348479D01*
Y350479D01*
X343973Y352478D01*
X354970Y349479D02*
X358968D01*
X366966Y346480D02*
X368965D01*
X367965D01*
Y352478D01*
X366966Y351478D01*
X372964Y346480D02*
X374963D01*
X375963Y347480D01*
Y349479D01*
X374963Y350479D01*
X372964D01*
X371964Y349479D01*
Y347480D01*
X372964Y346480D01*
X377962Y350479D02*
X381961D01*
X377962Y346480D01*
X381961D01*
X261000Y386480D02*
Y392478D01*
X262999Y390479D01*
X264999Y392478D01*
Y386480D01*
X267998D02*
Y391478D01*
Y389479D01*
X266998D01*
X268997D01*
X267998D01*
Y391478D01*
X268997Y392478D01*
X273996Y384481D02*
X274995D01*
X275995Y385480D01*
Y390479D01*
X272996D01*
X271996Y389479D01*
Y387480D01*
X272996Y386480D01*
X275995D01*
X283993D02*
Y392478D01*
X287991Y386480D01*
Y392478D01*
X290990Y386480D02*
X292990D01*
X293989Y387480D01*
Y389479D01*
X292990Y390479D01*
X290990D01*
X289991Y389479D01*
Y387480D01*
X290990Y386480D01*
X296988Y391478D02*
Y390479D01*
X295989D01*
X297988D01*
X296988D01*
Y387480D01*
X297988Y386480D01*
X303986D02*
X301987D01*
X300987Y387480D01*
Y389479D01*
X301987Y390479D01*
X303986D01*
X304986Y389479D01*
Y388479D01*
X300987D01*
X306985Y386480D02*
X309984D01*
X310984Y387480D01*
X309984Y388479D01*
X307985D01*
X306985Y389479D01*
X307985Y390479D01*
X310984D01*
X319981Y386480D02*
Y391478D01*
Y389479D01*
X318981D01*
X320981D01*
X319981D01*
Y391478D01*
X320981Y392478D01*
X324979Y386480D02*
X326979D01*
X327978Y387480D01*
Y389479D01*
X326979Y390479D01*
X324979D01*
X323980Y389479D01*
Y387480D01*
X324979Y386480D01*
X329978Y390479D02*
Y386480D01*
Y388479D01*
X330977Y389479D01*
X331977Y390479D01*
X332977D01*
X335976D02*
X336975D01*
Y389479D01*
X335976D01*
Y390479D01*
Y387480D02*
X336975D01*
Y386480D01*
X335976D01*
Y387480D01*
X264999Y361478D02*
X263999Y362478D01*
X262000D01*
X261000Y361478D01*
Y360479D01*
X262000Y359479D01*
X263999D01*
X264999Y358479D01*
Y357480D01*
X263999Y356480D01*
X262000D01*
X261000Y357480D01*
X267998Y361478D02*
Y360479D01*
X266998D01*
X268997D01*
X267998D01*
Y357480D01*
X268997Y356480D01*
X272996Y360479D02*
X274995D01*
X275995Y359479D01*
Y356480D01*
X272996D01*
X271996Y357480D01*
X272996Y358479D01*
X275995D01*
X281993Y360479D02*
X278994D01*
X277994Y359479D01*
Y357480D01*
X278994Y356480D01*
X281993D01*
X283993D02*
Y362478D01*
Y358479D02*
X286992Y360479D01*
X283993Y358479D02*
X286992Y356480D01*
X289991Y360479D02*
Y357480D01*
X290990Y356480D01*
X293989D01*
Y360479D01*
X295989Y354481D02*
Y360479D01*
X298988D01*
X299987Y359479D01*
Y357480D01*
X298988Y356480D01*
X295989D01*
X301987Y360479D02*
X302986D01*
Y359479D01*
X301987D01*
Y360479D01*
Y357480D02*
X302986D01*
Y356480D01*
X301987D01*
Y357480D01*
X261000Y332478D02*
Y326480D01*
X263999D01*
X264999Y327480D01*
Y328479D01*
X263999Y329479D01*
X261000D01*
X263999D01*
X264999Y330479D01*
Y331478D01*
X263999Y332478D01*
X261000D01*
X267998Y326480D02*
X269997D01*
X270997Y327480D01*
Y329479D01*
X269997Y330479D01*
X267998D01*
X266998Y329479D01*
Y327480D01*
X267998Y326480D01*
X273996Y330479D02*
X275995D01*
X276995Y329479D01*
Y326480D01*
X273996D01*
X272996Y327480D01*
X273996Y328479D01*
X276995D01*
X278994Y330479D02*
Y326480D01*
Y328479D01*
X279994Y329479D01*
X280994Y330479D01*
X281993D01*
X288991Y332478D02*
Y326480D01*
X285992D01*
X284992Y327480D01*
Y329479D01*
X285992Y330479D01*
X288991D01*
X296988Y332478D02*
X300987D01*
X298988D01*
Y326480D01*
X302986Y332478D02*
Y326480D01*
Y329479D01*
X303986Y330479D01*
X305985D01*
X306985Y329479D01*
Y326480D01*
X308984D02*
X310984D01*
X309984D01*
Y330479D01*
X308984D01*
X317982D02*
X314983D01*
X313983Y329479D01*
Y327480D01*
X314983Y326480D01*
X317982D01*
X319981D02*
Y332478D01*
Y328479D02*
X322980Y330479D01*
X319981Y328479D02*
X322980Y326480D01*
X325979D02*
Y330479D01*
X328978D01*
X329978Y329479D01*
Y326480D01*
X334976D02*
X332977D01*
X331977Y327480D01*
Y329479D01*
X332977Y330479D01*
X334976D01*
X335976Y329479D01*
Y328479D01*
X331977D01*
X337975Y326480D02*
X340974D01*
X341974Y327480D01*
X340974Y328479D01*
X338975D01*
X337975Y329479D01*
X338975Y330479D01*
X341974D01*
X343973Y326480D02*
X346972D01*
X347972Y327480D01*
X346972Y328479D01*
X344973D01*
X343973Y329479D01*
X344973Y330479D01*
X347972D01*
X349971D02*
X350971D01*
Y329479D01*
X349971D01*
Y330479D01*
Y327480D02*
X350971D01*
Y326480D01*
X349971D01*
Y327480D01*
X360968Y326480D02*
Y327480D01*
X361967D01*
Y326480D01*
X360968D01*
X365966Y331478D02*
X366966Y332478D01*
X368965D01*
X369965Y331478D01*
Y327480D01*
X368965Y326480D01*
X366966D01*
X365966Y327480D01*
Y331478D01*
X375963Y332478D02*
X373963Y331478D01*
X371964Y329479D01*
Y327480D01*
X372964Y326480D01*
X374963D01*
X375963Y327480D01*
Y328479D01*
X374963Y329479D01*
X371964D01*
X381961Y326480D02*
X377962D01*
X381961Y330479D01*
Y331478D01*
X380961Y332478D01*
X378962D01*
X377962Y331478D01*
X383960Y326480D02*
X385960D01*
X384960D01*
Y330479D01*
X383960D01*
X388959Y326480D02*
Y330479D01*
X391958D01*
X392957Y329479D01*
Y326480D01*
X264999Y271478D02*
X263999Y272478D01*
X262000D01*
X261000Y271478D01*
Y270479D01*
X262000Y269479D01*
X263999D01*
X264999Y268479D01*
Y267480D01*
X263999Y266480D01*
X262000D01*
X261000Y267480D01*
X266998Y266480D02*
X268997D01*
X267998D01*
Y270479D01*
X266998D01*
X271996Y266480D02*
X273996D01*
X272996D01*
Y272478D01*
X271996D01*
X276995Y266480D02*
Y272478D01*
Y268479D02*
X279994Y270479D01*
X276995Y268479D02*
X279994Y266480D01*
X288991D02*
X291990D01*
X292990Y267480D01*
X291990Y268479D01*
X289991D01*
X288991Y269479D01*
X289991Y270479D01*
X292990D01*
X298988D02*
X295989D01*
X294989Y269479D01*
Y267480D01*
X295989Y266480D01*
X298988D01*
X300987Y270479D02*
Y266480D01*
Y268479D01*
X301987Y269479D01*
X302986Y270479D01*
X303986D01*
X309984Y266480D02*
X307985D01*
X306985Y267480D01*
Y269479D01*
X307985Y270479D01*
X309984D01*
X310984Y269479D01*
Y268479D01*
X306985D01*
X315982Y266480D02*
X313983D01*
X312983Y267480D01*
Y269479D01*
X313983Y270479D01*
X315982D01*
X316982Y269479D01*
Y268479D01*
X312983D01*
X318981Y266480D02*
Y270479D01*
X321980D01*
X322980Y269479D01*
Y266480D01*
X324979Y270479D02*
X325979D01*
Y269479D01*
X324979D01*
Y270479D01*
Y267480D02*
X325979D01*
Y266480D01*
X324979D01*
Y267480D01*
X335976Y272478D02*
Y266480D01*
X337975Y268479D01*
X339974Y266480D01*
Y272478D01*
X341974D02*
Y266480D01*
Y269479D01*
X342973Y270479D01*
X344973D01*
X345972Y269479D01*
Y266480D01*
X347972D02*
X349971D01*
X348972D01*
Y270479D01*
X347972D01*
X353970Y271478D02*
Y270479D01*
X352970D01*
X354970D01*
X353970D01*
Y267480D01*
X354970Y266480D01*
X360968D02*
X358968D01*
X357969Y267480D01*
Y269479D01*
X358968Y270479D01*
X360968D01*
X361967Y269479D01*
Y268479D01*
X357969D01*
X261000Y282478D02*
Y276480D01*
X264999D01*
X269997D02*
X267998D01*
X266998Y277480D01*
Y279479D01*
X267998Y280479D01*
X269997D01*
X270997Y279479D01*
Y278479D01*
X266998D01*
X273996Y280479D02*
X275995D01*
X276995Y279479D01*
Y276480D01*
X273996D01*
X272996Y277480D01*
X273996Y278479D01*
X276995D01*
X282993Y282478D02*
Y276480D01*
X279994D01*
X278994Y277480D01*
Y279479D01*
X279994Y280479D01*
X282993D01*
X284992D02*
X285992D01*
Y279479D01*
X284992D01*
Y280479D01*
Y277480D02*
X285992D01*
Y276480D01*
X284992D01*
Y277480D01*
X295989Y282478D02*
Y276480D01*
X299987D01*
X304986D02*
X302986D01*
X301987Y277480D01*
Y279479D01*
X302986Y280479D01*
X304986D01*
X305985Y279479D01*
Y278479D01*
X301987D01*
X308984Y280479D02*
X310984D01*
X311983Y279479D01*
Y276480D01*
X308984D01*
X307985Y277480D01*
X308984Y278479D01*
X311983D01*
X317982Y282478D02*
Y276480D01*
X314983D01*
X313983Y277480D01*
Y279479D01*
X314983Y280479D01*
X317982D01*
X326979Y276480D02*
Y281478D01*
Y279479D01*
X325979D01*
X327978D01*
X326979D01*
Y281478D01*
X327978Y282478D01*
X330977Y280479D02*
Y276480D01*
Y278479D01*
X331977Y279479D01*
X332977Y280479D01*
X333976D01*
X339974Y276480D02*
X337975D01*
X336975Y277480D01*
Y279479D01*
X337975Y280479D01*
X339974D01*
X340974Y279479D01*
Y278479D01*
X336975D01*
X345972Y276480D02*
X343973D01*
X342973Y277480D01*
Y279479D01*
X343973Y280479D01*
X345972D01*
X346972Y279479D01*
Y278479D01*
X342973D01*
X348972Y276480D02*
X352970Y280479D01*
X354970Y276480D02*
Y282478D01*
X357969D01*
X358968Y281478D01*
Y279479D01*
X357969Y278479D01*
X354970D01*
X356969D02*
X358968Y276480D01*
X361967D02*
X363967D01*
X364966Y277480D01*
Y279479D01*
X363967Y280479D01*
X361967D01*
X360968Y279479D01*
Y277480D01*
X361967Y276480D01*
X366966Y282478D02*
Y276480D01*
Y279479D01*
X370964D01*
Y282478D01*
Y276480D01*
X376962Y281478D02*
X375963Y282478D01*
X373963D01*
X372964Y281478D01*
Y280479D01*
X373963Y279479D01*
X375963D01*
X376962Y278479D01*
Y277480D01*
X375963Y276480D01*
X373963D01*
X372964Y277480D01*
X264999Y292478D02*
X261000D01*
Y289479D01*
X262999D01*
X261000D01*
Y286480D01*
X266998D02*
X268997D01*
X267998D01*
Y290479D01*
X266998D01*
X271996Y286480D02*
Y290479D01*
X274995D01*
X275995Y289479D01*
Y286480D01*
X277994D02*
X279994D01*
X278994D01*
Y290479D01*
X277994D01*
X282993Y286480D02*
X285992D01*
X286992Y287480D01*
X285992Y288479D01*
X283993D01*
X282993Y289479D01*
X283993Y290479D01*
X286992D01*
X288991Y292478D02*
Y286480D01*
Y289479D01*
X289991Y290479D01*
X291990D01*
X292990Y289479D01*
Y286480D01*
X294989Y290479D02*
X295989D01*
Y289479D01*
X294989D01*
Y290479D01*
Y287480D02*
X295989D01*
Y286480D01*
X294989D01*
Y287480D01*
X305985Y286480D02*
Y292478D01*
X307985Y290479D01*
X309984Y292478D01*
Y286480D01*
X312983Y290479D02*
X314983D01*
X315982Y289479D01*
Y286480D01*
X312983D01*
X311983Y287480D01*
X312983Y288479D01*
X315982D01*
X318981Y291478D02*
Y290479D01*
X317982D01*
X319981D01*
X318981D01*
Y287480D01*
X319981Y286480D01*
X323980Y291478D02*
Y290479D01*
X322980D01*
X324979D01*
X323980D01*
Y287480D01*
X324979Y286480D01*
X330977D02*
X328978D01*
X327978Y287480D01*
Y289479D01*
X328978Y290479D01*
X330977D01*
X331977Y289479D01*
Y288479D01*
X327978D01*
X343973Y291478D02*
X342973Y292478D01*
X340974D01*
X339974Y291478D01*
Y287480D01*
X340974Y286480D01*
X342973D01*
X343973Y287480D01*
Y289479D01*
X341974D01*
X345972Y290479D02*
Y286480D01*
Y288479D01*
X346972Y289479D01*
X347972Y290479D01*
X348972D01*
X354970Y286480D02*
X352970D01*
X351971Y287480D01*
Y289479D01*
X352970Y290479D01*
X354970D01*
X355969Y289479D01*
Y288479D01*
X351971D01*
X360968Y286480D02*
X358968D01*
X357969Y287480D01*
Y289479D01*
X358968Y290479D01*
X360968D01*
X361967Y289479D01*
Y288479D01*
X357969D01*
X363967Y286480D02*
Y290479D01*
X366966D01*
X367965Y289479D01*
Y286480D01*
X379961Y291478D02*
X378962Y292478D01*
X376962D01*
X375963Y291478D01*
Y290479D01*
X376962Y289479D01*
X378962D01*
X379961Y288479D01*
Y287480D01*
X378962Y286480D01*
X376962D01*
X375963Y287480D01*
X382961Y286480D02*
X384960D01*
X385960Y287480D01*
Y289479D01*
X384960Y290479D01*
X382961D01*
X381961Y289479D01*
Y287480D01*
X382961Y286480D01*
X387959D02*
X389958D01*
X388959D01*
Y292478D01*
X387959D01*
X396956D02*
Y286480D01*
X393957D01*
X392957Y287480D01*
Y289479D01*
X393957Y290479D01*
X396956D01*
X401954Y286480D02*
X399955D01*
X398955Y287480D01*
Y289479D01*
X399955Y290479D01*
X401954D01*
X402954Y289479D01*
Y288479D01*
X398955D01*
X404953Y290479D02*
Y286480D01*
Y288479D01*
X405953Y289479D01*
X406953Y290479D01*
X407952D01*
X410952Y286480D02*
Y290479D01*
X411951D01*
X412951Y289479D01*
Y286480D01*
Y289479D01*
X413950Y290479D01*
X414950Y289479D01*
Y286480D01*
X417949Y290479D02*
X419949D01*
X420948Y289479D01*
Y286480D01*
X417949D01*
X416950Y287480D01*
X417949Y288479D01*
X420948D01*
X422948Y286480D02*
X425947D01*
X426946Y287480D01*
X425947Y288479D01*
X423947D01*
X422948Y289479D01*
X423947Y290479D01*
X426946D01*
X428946Y286480D02*
Y292478D01*
Y288479D02*
X431945Y290479D01*
X428946Y288479D02*
X431945Y286480D01*
X261000Y312478D02*
Y306480D01*
X263999D01*
X264999Y307480D01*
Y308479D01*
X263999Y309479D01*
X261000D01*
X263999D01*
X264999Y310479D01*
Y311478D01*
X263999Y312478D01*
X261000D01*
X266998Y310479D02*
Y307480D01*
X267998Y306480D01*
X270997D01*
Y310479D01*
X272996Y306480D02*
X274995D01*
X273996D01*
Y310479D01*
X272996D01*
X277994Y306480D02*
X279994D01*
X278994D01*
Y312478D01*
X277994D01*
X286992D02*
Y306480D01*
X283993D01*
X282993Y307480D01*
Y309479D01*
X283993Y310479D01*
X286992D01*
X294989Y306480D02*
Y312478D01*
X298988Y306480D01*
Y312478D01*
X301987Y306480D02*
X303986D01*
X304986Y307480D01*
Y309479D01*
X303986Y310479D01*
X301987D01*
X300987Y309479D01*
Y307480D01*
X301987Y306480D01*
X307985Y311478D02*
Y310479D01*
X306985D01*
X308984D01*
X307985D01*
Y307480D01*
X308984Y306480D01*
X314983D02*
X312983D01*
X311983Y307480D01*
Y309479D01*
X312983Y310479D01*
X314983D01*
X315982Y309479D01*
Y308479D01*
X311983D01*
X317982Y306480D02*
X320981D01*
X321980Y307480D01*
X320981Y308479D01*
X318981D01*
X317982Y309479D01*
X318981Y310479D01*
X321980D01*
X323980D02*
X324979D01*
Y309479D01*
X323980D01*
Y310479D01*
Y307480D02*
X324979D01*
Y306480D01*
X323980D01*
Y307480D01*
X261000Y296480D02*
Y302478D01*
X262999Y300479D01*
X264999Y302478D01*
Y296480D01*
X267998Y300479D02*
X269997D01*
X270997Y299479D01*
Y296480D01*
X267998D01*
X266998Y297480D01*
X267998Y298479D01*
X270997D01*
X273996Y301478D02*
Y300479D01*
X272996D01*
X274995D01*
X273996D01*
Y297480D01*
X274995Y296480D01*
X280994D02*
X278994D01*
X277994Y297480D01*
Y299479D01*
X278994Y300479D01*
X280994D01*
X281993Y299479D01*
Y298479D01*
X277994D01*
X283993Y300479D02*
Y296480D01*
Y298479D01*
X284992Y299479D01*
X285992Y300479D01*
X286992D01*
X289991Y296480D02*
X291990D01*
X290990D01*
Y300479D01*
X289991D01*
X295989D02*
X297988D01*
X298988Y299479D01*
Y296480D01*
X295989D01*
X294989Y297480D01*
X295989Y298479D01*
X298988D01*
X300987Y296480D02*
X302986D01*
X301987D01*
Y302478D01*
X300987D01*
X305985Y300479D02*
X306985D01*
Y299479D01*
X305985D01*
Y300479D01*
Y297480D02*
X306985D01*
Y296480D01*
X305985D01*
Y297480D01*
X320981Y302478D02*
X316982D01*
Y299479D01*
X318981D01*
X316982D01*
Y296480D01*
X322980D02*
Y302478D01*
X325979D01*
X326979Y301478D01*
Y299479D01*
X325979Y298479D01*
X322980D01*
X324979D02*
X326979Y296480D01*
X328978Y299479D02*
X332977D01*
X337975Y296480D02*
Y302478D01*
X334976Y299479D01*
X338975D01*
X346972Y302478D02*
X350971D01*
X348972D01*
Y296480D01*
X356969Y301478D02*
X355969Y302478D01*
X353970D01*
X352970Y301478D01*
Y297480D01*
X353970Y296480D01*
X355969D01*
X356969Y297480D01*
Y299479D01*
X354970D01*
X364966Y296480D02*
X366966D01*
X365966D01*
Y302478D01*
X364966Y301478D01*
X372964Y296480D02*
Y302478D01*
X369965Y299479D01*
X373963D01*
X375963Y301478D02*
X376962Y302478D01*
X378962D01*
X379961Y301478D01*
Y297480D01*
X378962Y296480D01*
X376962D01*
X375963Y297480D01*
Y301478D01*
X385960Y302478D02*
Y296480D01*
X382961D01*
X381961Y297480D01*
Y299479D01*
X382961Y300479D01*
X385960D01*
X390958Y296480D02*
X388959D01*
X387959Y297480D01*
Y299479D01*
X388959Y300479D01*
X390958D01*
X391958Y299479D01*
Y298479D01*
X387959D01*
X395956Y294481D02*
X396956D01*
X397956Y295480D01*
Y300479D01*
X394957D01*
X393957Y299479D01*
Y297480D01*
X394957Y296480D01*
X397956D01*
X-470992Y-287020D02*
X-468993D01*
X-469993D01*
Y-281022D01*
X-470992Y-282022D01*
X-465994D02*
X-464994Y-281022D01*
X-462995D01*
X-461995Y-282022D01*
Y-283021D01*
X-462995Y-284021D01*
X-461995Y-285021D01*
Y-286020D01*
X-462995Y-287020D01*
X-464994D01*
X-465994Y-286020D01*
Y-285021D01*
X-464994Y-284021D01*
X-465994Y-283021D01*
Y-282022D01*
X-464994Y-284021D02*
X-462995D01*
X-459996Y-281022D02*
X-455997D01*
Y-282022D01*
X-459996Y-286020D01*
Y-287020D01*
X-401411D02*
X-399412D01*
X-400411D01*
Y-281022D01*
X-401411Y-282022D01*
X-396413D02*
X-395413Y-281022D01*
X-393414D01*
X-392414Y-282022D01*
Y-286020D01*
X-393414Y-287020D01*
X-395413D01*
X-396413Y-286020D01*
Y-282022D01*
X-390415Y-287020D02*
Y-283021D01*
X-389415D01*
X-388415Y-284021D01*
Y-287020D01*
Y-284021D01*
X-387416Y-283021D01*
X-386416Y-284021D01*
Y-287020D01*
X-384417D02*
X-382417D01*
X-383417D01*
Y-283021D01*
X-384417D01*
X-379418Y-287020D02*
X-377419D01*
X-378418D01*
Y-281022D01*
X-379418D01*
X-366422Y-287020D02*
X-368422Y-285021D01*
Y-283021D01*
X-366422Y-281022D01*
X-363423Y-282022D02*
X-362424Y-281022D01*
X-360424D01*
X-359425Y-282022D01*
Y-286020D01*
X-360424Y-287020D01*
X-362424D01*
X-363423Y-286020D01*
Y-282022D01*
X-357425Y-287020D02*
Y-286020D01*
X-356426D01*
Y-287020D01*
X-357425D01*
X-348428D02*
X-352427D01*
X-348428Y-283021D01*
Y-282022D01*
X-349428Y-281022D01*
X-351427D01*
X-352427Y-282022D01*
X-342430Y-281022D02*
X-346429D01*
Y-284021D01*
X-344429Y-283021D01*
X-343430D01*
X-342430Y-284021D01*
Y-286020D01*
X-343430Y-287020D01*
X-345429D01*
X-346429Y-286020D01*
X-337432Y-287020D02*
Y-281022D01*
X-340431Y-284021D01*
X-336432D01*
X-334433Y-287020D02*
Y-283021D01*
X-333433D01*
X-332433Y-284021D01*
Y-287020D01*
Y-284021D01*
X-331434Y-283021D01*
X-330434Y-284021D01*
Y-287020D01*
X-328435D02*
Y-283021D01*
X-327435D01*
X-326435Y-284021D01*
Y-287020D01*
Y-284021D01*
X-325436Y-283021D01*
X-324436Y-284021D01*
Y-287020D01*
X-322437D02*
X-320437Y-285021D01*
Y-283021D01*
X-322437Y-281022D01*
X-267051Y-287020D02*
Y-281022D01*
X-264052D01*
X-263052Y-282022D01*
Y-284021D01*
X-264052Y-285021D01*
X-267051D01*
X-261053Y-281022D02*
X-257054D01*
X-259053D01*
Y-287020D01*
X-255055Y-281022D02*
Y-287020D01*
Y-284021D01*
X-251056D01*
Y-281022D01*
Y-287020D01*
X-216663D02*
Y-281022D01*
X-213664D01*
X-212664Y-282022D01*
Y-284021D01*
X-213664Y-285021D01*
X-216663D01*
X-214664D02*
X-212664Y-287020D01*
X-209665D02*
X-207666D01*
X-206666Y-286020D01*
Y-284021D01*
X-207666Y-283021D01*
X-209665D01*
X-210665Y-284021D01*
Y-286020D01*
X-209665Y-287020D01*
X-204667Y-283021D02*
Y-286020D01*
X-203667Y-287020D01*
X-200668D01*
Y-283021D01*
X-198669Y-287020D02*
Y-283021D01*
X-195670D01*
X-194670Y-284021D01*
Y-287020D01*
X-188672Y-281022D02*
Y-287020D01*
X-191671D01*
X-192671Y-286020D01*
Y-284021D01*
X-191671Y-283021D01*
X-188672D01*
X-470992Y-294022D02*
X-469993Y-293022D01*
X-467993D01*
X-466994Y-294022D01*
Y-295021D01*
X-467993Y-296021D01*
X-466994Y-297021D01*
Y-298020D01*
X-467993Y-299020D01*
X-469993D01*
X-470992Y-298020D01*
Y-297021D01*
X-469993Y-296021D01*
X-470992Y-295021D01*
Y-294022D01*
X-469993Y-296021D02*
X-467993D01*
X-401411Y-299020D02*
X-399412D01*
X-400411D01*
Y-293022D01*
X-401411Y-294022D01*
X-392414Y-299020D02*
X-396413D01*
X-392414Y-295021D01*
Y-294022D01*
X-393414Y-293022D01*
X-395413D01*
X-396413Y-294022D01*
X-390415Y-299020D02*
Y-298020D01*
X-389415D01*
Y-299020D01*
X-390415D01*
X-385416Y-298020D02*
X-384417Y-299020D01*
X-382417D01*
X-381417Y-298020D01*
Y-294022D01*
X-382417Y-293022D01*
X-384417D01*
X-385416Y-294022D01*
Y-295021D01*
X-384417Y-296021D01*
X-381417D01*
X-379418Y-298020D02*
X-378418Y-299020D01*
X-376419D01*
X-375419Y-298020D01*
Y-294022D01*
X-376419Y-293022D01*
X-378418D01*
X-379418Y-294022D01*
Y-295021D01*
X-378418Y-296021D01*
X-375419D01*
X-369421Y-299020D02*
X-373420D01*
X-369421Y-295021D01*
Y-294022D01*
X-370421Y-293022D01*
X-372420D01*
X-373420Y-294022D01*
X-367422Y-299020D02*
Y-295021D01*
X-366422D01*
X-365423Y-296021D01*
Y-299020D01*
Y-296021D01*
X-364423Y-295021D01*
X-363423Y-296021D01*
Y-299020D01*
X-361424D02*
X-359425D01*
X-360424D01*
Y-295021D01*
X-361424D01*
X-356426Y-299020D02*
X-354426D01*
X-355426D01*
Y-293022D01*
X-356426D01*
X-343430Y-299020D02*
X-345429Y-297021D01*
Y-295021D01*
X-343430Y-293022D01*
X-340431Y-294022D02*
X-339431Y-293022D01*
X-337432D01*
X-336432Y-294022D01*
Y-298020D01*
X-337432Y-299020D01*
X-339431D01*
X-340431Y-298020D01*
Y-294022D01*
X-334433Y-299020D02*
Y-298020D01*
X-333433D01*
Y-299020D01*
X-334433D01*
X-329434Y-294022D02*
X-328435Y-293022D01*
X-326435D01*
X-325436Y-294022D01*
Y-295021D01*
X-326435Y-296021D01*
X-327435D01*
X-326435D01*
X-325436Y-297021D01*
Y-298020D01*
X-326435Y-299020D01*
X-328435D01*
X-329434Y-298020D01*
X-323436Y-294022D02*
X-322437Y-293022D01*
X-320437D01*
X-319438Y-294022D01*
Y-295021D01*
X-320437Y-296021D01*
X-321437D01*
X-320437D01*
X-319438Y-297021D01*
Y-298020D01*
X-320437Y-299020D01*
X-322437D01*
X-323436Y-298020D01*
X-317438Y-299020D02*
Y-295021D01*
X-316439D01*
X-315439Y-296021D01*
Y-299020D01*
Y-296021D01*
X-314439Y-295021D01*
X-313439Y-296021D01*
Y-299020D01*
X-311440D02*
Y-295021D01*
X-310440D01*
X-309441Y-296021D01*
Y-299020D01*
Y-296021D01*
X-308441Y-295021D01*
X-307441Y-296021D01*
Y-299020D01*
X-305442D02*
X-303443Y-297021D01*
Y-295021D01*
X-305442Y-293022D01*
X-267051Y-299020D02*
Y-293022D01*
X-264052D01*
X-263052Y-294022D01*
Y-296021D01*
X-264052Y-297021D01*
X-267051D01*
X-261053Y-293022D02*
X-257054D01*
X-259053D01*
Y-299020D01*
X-255055Y-293022D02*
Y-299020D01*
Y-296021D01*
X-251056D01*
Y-293022D01*
Y-299020D01*
X-216663D02*
Y-293022D01*
X-213664D01*
X-212664Y-294022D01*
Y-296021D01*
X-213664Y-297021D01*
X-216663D01*
X-214664D02*
X-212664Y-299020D01*
X-209665D02*
X-207666D01*
X-206666Y-298020D01*
Y-296021D01*
X-207666Y-295021D01*
X-209665D01*
X-210665Y-296021D01*
Y-298020D01*
X-209665Y-299020D01*
X-204667Y-295021D02*
Y-298020D01*
X-203667Y-299020D01*
X-200668D01*
Y-295021D01*
X-198669Y-299020D02*
Y-295021D01*
X-195670D01*
X-194670Y-296021D01*
Y-299020D01*
X-188672Y-293022D02*
Y-299020D01*
X-191671D01*
X-192671Y-298020D01*
Y-296021D01*
X-191671Y-295021D01*
X-188672D01*
X-470992Y-305022D02*
X-466994D01*
Y-306022D01*
X-470992Y-310020D01*
Y-311020D01*
X-461995D02*
Y-305022D01*
X-464994Y-308021D01*
X-460996D01*
X-401411Y-311020D02*
X-399412D01*
X-400411D01*
Y-305022D01*
X-401411Y-306022D01*
X-392414Y-305022D02*
X-396413D01*
Y-308021D01*
X-394413Y-307021D01*
X-393414D01*
X-392414Y-308021D01*
Y-310020D01*
X-393414Y-311020D01*
X-395413D01*
X-396413Y-310020D01*
X-390415Y-311020D02*
Y-307021D01*
X-389415D01*
X-388415Y-308021D01*
Y-311020D01*
Y-308021D01*
X-387416Y-307021D01*
X-386416Y-308021D01*
Y-311020D01*
X-384417D02*
X-382417D01*
X-383417D01*
Y-307021D01*
X-384417D01*
X-379418Y-311020D02*
X-377419D01*
X-378418D01*
Y-305022D01*
X-379418D01*
X-366422Y-311020D02*
X-368422Y-309021D01*
Y-307021D01*
X-366422Y-305022D01*
X-363423Y-306022D02*
X-362424Y-305022D01*
X-360424D01*
X-359425Y-306022D01*
Y-310020D01*
X-360424Y-311020D01*
X-362424D01*
X-363423Y-310020D01*
Y-306022D01*
X-357425Y-311020D02*
Y-310020D01*
X-356426D01*
Y-311020D01*
X-357425D01*
X-352427Y-306022D02*
X-351427Y-305022D01*
X-349428D01*
X-348428Y-306022D01*
Y-307021D01*
X-349428Y-308021D01*
X-350428D01*
X-349428D01*
X-348428Y-309021D01*
Y-310020D01*
X-349428Y-311020D01*
X-351427D01*
X-352427Y-310020D01*
X-346429Y-306022D02*
X-345429Y-305022D01*
X-343430D01*
X-342430Y-306022D01*
Y-307021D01*
X-343430Y-308021D01*
X-342430Y-309021D01*
Y-310020D01*
X-343430Y-311020D01*
X-345429D01*
X-346429Y-310020D01*
Y-309021D01*
X-345429Y-308021D01*
X-346429Y-307021D01*
Y-306022D01*
X-345429Y-308021D02*
X-343430D01*
X-340431Y-311020D02*
X-338432D01*
X-339431D01*
Y-305022D01*
X-340431Y-306022D01*
X-335432Y-311020D02*
Y-307021D01*
X-334433D01*
X-333433Y-308021D01*
Y-311020D01*
Y-308021D01*
X-332433Y-307021D01*
X-331434Y-308021D01*
Y-311020D01*
X-329434D02*
Y-307021D01*
X-328435D01*
X-327435Y-308021D01*
Y-311020D01*
Y-308021D01*
X-326435Y-307021D01*
X-325436Y-308021D01*
Y-311020D01*
X-323436D02*
X-321437Y-309021D01*
Y-307021D01*
X-323436Y-305022D01*
X-267051Y-311020D02*
Y-305022D01*
X-264052D01*
X-263052Y-306022D01*
Y-308021D01*
X-264052Y-309021D01*
X-267051D01*
X-261053Y-305022D02*
X-257054D01*
X-259053D01*
Y-311020D01*
X-255055Y-305022D02*
Y-311020D01*
Y-308021D01*
X-251056D01*
Y-305022D01*
Y-311020D01*
X-216663D02*
Y-305022D01*
X-213664D01*
X-212664Y-306022D01*
Y-308021D01*
X-213664Y-309021D01*
X-216663D01*
X-214664D02*
X-212664Y-311020D01*
X-209665D02*
X-207666D01*
X-206666Y-310020D01*
Y-308021D01*
X-207666Y-307021D01*
X-209665D01*
X-210665Y-308021D01*
Y-310020D01*
X-209665Y-311020D01*
X-204667Y-307021D02*
Y-310020D01*
X-203667Y-311020D01*
X-200668D01*
Y-307021D01*
X-198669Y-311020D02*
Y-307021D01*
X-195670D01*
X-194670Y-308021D01*
Y-311020D01*
X-188672Y-305022D02*
Y-311020D01*
X-191671D01*
X-192671Y-310020D01*
Y-308021D01*
X-191671Y-307021D01*
X-188672D01*
X-466994Y-323020D02*
X-470992D01*
X-466994Y-319021D01*
Y-318022D01*
X-467993Y-317022D01*
X-469993D01*
X-470992Y-318022D01*
X-464994D02*
X-463995Y-317022D01*
X-461995D01*
X-460996Y-318022D01*
Y-322020D01*
X-461995Y-323020D01*
X-463995D01*
X-464994Y-322020D01*
Y-318022D01*
X-401411Y-323020D02*
X-399412D01*
X-400411D01*
Y-317022D01*
X-401411Y-318022D01*
X-396413D02*
X-395413Y-317022D01*
X-393414D01*
X-392414Y-318022D01*
Y-319021D01*
X-393414Y-320021D01*
X-392414Y-321021D01*
Y-322020D01*
X-393414Y-323020D01*
X-395413D01*
X-396413Y-322020D01*
Y-321021D01*
X-395413Y-320021D01*
X-396413Y-319021D01*
Y-318022D01*
X-395413Y-320021D02*
X-393414D01*
X-390415Y-323020D02*
Y-319021D01*
X-389415D01*
X-388415Y-320021D01*
Y-323020D01*
Y-320021D01*
X-387416Y-319021D01*
X-386416Y-320021D01*
Y-323020D01*
X-384417D02*
X-382417D01*
X-383417D01*
Y-319021D01*
X-384417D01*
X-379418Y-323020D02*
X-377419D01*
X-378418D01*
Y-317022D01*
X-379418D01*
X-366422Y-323020D02*
X-368422Y-321021D01*
Y-319021D01*
X-366422Y-317022D01*
X-363423Y-318022D02*
X-362424Y-317022D01*
X-360424D01*
X-359425Y-318022D01*
Y-322020D01*
X-360424Y-323020D01*
X-362424D01*
X-363423Y-322020D01*
Y-318022D01*
X-357425Y-323020D02*
Y-322020D01*
X-356426D01*
Y-323020D01*
X-357425D01*
X-349428D02*
Y-317022D01*
X-352427Y-320021D01*
X-348428D01*
X-342430Y-317022D02*
X-346429D01*
Y-320021D01*
X-344429Y-319021D01*
X-343430D01*
X-342430Y-320021D01*
Y-322020D01*
X-343430Y-323020D01*
X-345429D01*
X-346429Y-322020D01*
X-340431Y-317022D02*
X-336432D01*
Y-318022D01*
X-340431Y-322020D01*
Y-323020D01*
X-330434D02*
X-334433D01*
X-330434Y-319021D01*
Y-318022D01*
X-331434Y-317022D01*
X-333433D01*
X-334433Y-318022D01*
X-328435Y-323020D02*
Y-319021D01*
X-327435D01*
X-326435Y-320021D01*
Y-323020D01*
Y-320021D01*
X-325436Y-319021D01*
X-324436Y-320021D01*
Y-323020D01*
X-322437D02*
Y-319021D01*
X-321437D01*
X-320437Y-320021D01*
Y-323020D01*
Y-320021D01*
X-319438Y-319021D01*
X-318438Y-320021D01*
Y-323020D01*
X-316439D02*
X-314439Y-321021D01*
Y-319021D01*
X-316439Y-317022D01*
X-267051Y-323020D02*
Y-317022D01*
X-264052D01*
X-263052Y-318022D01*
Y-320021D01*
X-264052Y-321021D01*
X-267051D01*
X-261053Y-317022D02*
X-257054D01*
X-259053D01*
Y-323020D01*
X-255055Y-317022D02*
Y-323020D01*
Y-320021D01*
X-251056D01*
Y-317022D01*
Y-323020D01*
X-216663D02*
Y-317022D01*
X-213664D01*
X-212664Y-318022D01*
Y-320021D01*
X-213664Y-321021D01*
X-216663D01*
X-214664D02*
X-212664Y-323020D01*
X-209665D02*
X-207666D01*
X-206666Y-322020D01*
Y-320021D01*
X-207666Y-319021D01*
X-209665D01*
X-210665Y-320021D01*
Y-322020D01*
X-209665Y-323020D01*
X-204667Y-319021D02*
Y-322020D01*
X-203667Y-323020D01*
X-200668D01*
Y-319021D01*
X-198669Y-323020D02*
Y-319021D01*
X-195670D01*
X-194670Y-320021D01*
Y-323020D01*
X-188672Y-317022D02*
Y-323020D01*
X-191671D01*
X-192671Y-322020D01*
Y-320021D01*
X-191671Y-319021D01*
X-188672D01*
X-467993Y-335020D02*
Y-329022D01*
X-470992Y-332021D01*
X-466994D01*
X-397412Y-335020D02*
X-401411D01*
X-397412Y-331021D01*
Y-330022D01*
X-398412Y-329022D01*
X-400411D01*
X-401411Y-330022D01*
X-395413D02*
X-394413Y-329022D01*
X-392414D01*
X-391414Y-330022D01*
Y-334020D01*
X-392414Y-335020D01*
X-394413D01*
X-395413Y-334020D01*
Y-330022D01*
X-389415Y-335020D02*
Y-331021D01*
X-388415D01*
X-387416Y-332021D01*
Y-335020D01*
Y-332021D01*
X-386416Y-331021D01*
X-385416Y-332021D01*
Y-335020D01*
X-383417D02*
X-381417D01*
X-382417D01*
Y-331021D01*
X-383417D01*
X-378418Y-335020D02*
X-376419D01*
X-377419D01*
Y-329022D01*
X-378418D01*
X-365423Y-335020D02*
X-367422Y-333021D01*
Y-331021D01*
X-365423Y-329022D01*
X-362424Y-330022D02*
X-361424Y-329022D01*
X-359425D01*
X-358425Y-330022D01*
Y-334020D01*
X-359425Y-335020D01*
X-361424D01*
X-362424Y-334020D01*
Y-330022D01*
X-356426Y-335020D02*
Y-334020D01*
X-355426D01*
Y-335020D01*
X-356426D01*
X-347428Y-329022D02*
X-351427D01*
Y-332021D01*
X-349428Y-331021D01*
X-348428D01*
X-347428Y-332021D01*
Y-334020D01*
X-348428Y-335020D01*
X-350428D01*
X-351427Y-334020D01*
X-345429Y-330022D02*
X-344429Y-329022D01*
X-342430D01*
X-341430Y-330022D01*
Y-334020D01*
X-342430Y-335020D01*
X-344429D01*
X-345429Y-334020D01*
Y-330022D01*
X-339431D02*
X-338431Y-329022D01*
X-336432D01*
X-335432Y-330022D01*
Y-331021D01*
X-336432Y-332021D01*
X-335432Y-333021D01*
Y-334020D01*
X-336432Y-335020D01*
X-338431D01*
X-339431Y-334020D01*
Y-333021D01*
X-338431Y-332021D01*
X-339431Y-331021D01*
Y-330022D01*
X-338431Y-332021D02*
X-336432D01*
X-333433Y-335020D02*
Y-331021D01*
X-332433D01*
X-331434Y-332021D01*
Y-335020D01*
Y-332021D01*
X-330434Y-331021D01*
X-329434Y-332021D01*
Y-335020D01*
X-327435D02*
Y-331021D01*
X-326435D01*
X-325436Y-332021D01*
Y-335020D01*
Y-332021D01*
X-324436Y-331021D01*
X-323436Y-332021D01*
Y-335020D01*
X-321437D02*
X-319438Y-333021D01*
Y-331021D01*
X-321437Y-329022D01*
X-267051Y-335020D02*
Y-329022D01*
X-264052D01*
X-263052Y-330022D01*
Y-332021D01*
X-264052Y-333021D01*
X-267051D01*
X-261053Y-329022D02*
X-257054D01*
X-259053D01*
Y-335020D01*
X-255055Y-329022D02*
Y-335020D01*
Y-332021D01*
X-251056D01*
Y-329022D01*
Y-335020D01*
X-216663D02*
Y-329022D01*
X-213664D01*
X-212664Y-330022D01*
Y-332021D01*
X-213664Y-333021D01*
X-216663D01*
X-214664D02*
X-212664Y-335020D01*
X-209665D02*
X-207666D01*
X-206666Y-334020D01*
Y-332021D01*
X-207666Y-331021D01*
X-209665D01*
X-210665Y-332021D01*
Y-334020D01*
X-209665Y-335020D01*
X-204667Y-331021D02*
Y-334020D01*
X-203667Y-335020D01*
X-200668D01*
Y-331021D01*
X-198669Y-335020D02*
Y-331021D01*
X-195670D01*
X-194670Y-332021D01*
Y-335020D01*
X-188672Y-329022D02*
Y-335020D01*
X-191671D01*
X-192671Y-334020D01*
Y-332021D01*
X-191671Y-331021D01*
X-188672D01*
X-467993Y-347020D02*
Y-341022D01*
X-470992Y-344021D01*
X-466994D01*
X-397412Y-341022D02*
X-399412Y-342022D01*
X-401411Y-344021D01*
Y-346020D01*
X-400411Y-347020D01*
X-398412D01*
X-397412Y-346020D01*
Y-345021D01*
X-398412Y-344021D01*
X-401411D01*
X-395413Y-342022D02*
X-394413Y-341022D01*
X-392414D01*
X-391414Y-342022D01*
Y-343021D01*
X-392414Y-344021D01*
X-391414Y-345021D01*
Y-346020D01*
X-392414Y-347020D01*
X-394413D01*
X-395413Y-346020D01*
Y-345021D01*
X-394413Y-344021D01*
X-395413Y-343021D01*
Y-342022D01*
X-394413Y-344021D02*
X-392414D01*
X-389415Y-347020D02*
Y-343021D01*
X-388415D01*
X-387416Y-344021D01*
Y-347020D01*
Y-344021D01*
X-386416Y-343021D01*
X-385416Y-344021D01*
Y-347020D01*
X-383417D02*
X-381417D01*
X-382417D01*
Y-343021D01*
X-383417D01*
X-378418Y-347020D02*
X-376419D01*
X-377419D01*
Y-341022D01*
X-378418D01*
X-365423Y-347020D02*
X-367422Y-345021D01*
Y-343021D01*
X-365423Y-341022D01*
X-362424Y-347020D02*
X-360424D01*
X-361424D01*
Y-341022D01*
X-362424Y-342022D01*
X-357425Y-347020D02*
Y-346020D01*
X-356426D01*
Y-347020D01*
X-357425D01*
X-352427Y-341022D02*
X-348428D01*
Y-342022D01*
X-352427Y-346020D01*
Y-347020D01*
X-342430D02*
X-346429D01*
X-342430Y-343021D01*
Y-342022D01*
X-343430Y-341022D01*
X-345429D01*
X-346429Y-342022D01*
X-340431Y-341022D02*
X-336432D01*
Y-342022D01*
X-340431Y-346020D01*
Y-347020D01*
X-330434D02*
X-334433D01*
X-330434Y-343021D01*
Y-342022D01*
X-331434Y-341022D01*
X-333433D01*
X-334433Y-342022D01*
X-328435Y-347020D02*
Y-343021D01*
X-327435D01*
X-326435Y-344021D01*
Y-347020D01*
Y-344021D01*
X-325436Y-343021D01*
X-324436Y-344021D01*
Y-347020D01*
X-322437D02*
Y-343021D01*
X-321437D01*
X-320437Y-344021D01*
Y-347020D01*
Y-344021D01*
X-319438Y-343021D01*
X-318438Y-344021D01*
Y-347020D01*
X-316439D02*
X-314439Y-345021D01*
Y-343021D01*
X-316439Y-341022D01*
X-267051Y-347020D02*
Y-341022D01*
X-264052D01*
X-263052Y-342022D01*
Y-344021D01*
X-264052Y-345021D01*
X-267051D01*
X-261053Y-341022D02*
X-257054D01*
X-259053D01*
Y-347020D01*
X-255055Y-341022D02*
Y-347020D01*
Y-344021D01*
X-251056D01*
Y-341022D01*
Y-347020D01*
X-216663D02*
Y-341022D01*
X-213664D01*
X-212664Y-342022D01*
Y-344021D01*
X-213664Y-345021D01*
X-216663D01*
X-214664D02*
X-212664Y-347020D01*
X-209665D02*
X-207666D01*
X-206666Y-346020D01*
Y-344021D01*
X-207666Y-343021D01*
X-209665D01*
X-210665Y-344021D01*
Y-346020D01*
X-209665Y-347020D01*
X-204667Y-343021D02*
Y-346020D01*
X-203667Y-347020D01*
X-200668D01*
Y-343021D01*
X-198669Y-347020D02*
Y-343021D01*
X-195670D01*
X-194670Y-344021D01*
Y-347020D01*
X-188672Y-341022D02*
Y-347020D01*
X-191671D01*
X-192671Y-346020D01*
Y-344021D01*
X-191671Y-343021D01*
X-188672D01*
X-470992Y-359020D02*
X-468993D01*
X-469993D01*
Y-353022D01*
X-470992Y-354022D01*
X-461995Y-359020D02*
X-465994D01*
X-461995Y-355021D01*
Y-354022D01*
X-462995Y-353022D01*
X-464994D01*
X-465994Y-354022D01*
X-401411Y-353022D02*
X-397412D01*
Y-354022D01*
X-401411Y-358020D01*
Y-359020D01*
X-395413Y-354022D02*
X-394413Y-353022D01*
X-392414D01*
X-391414Y-354022D01*
Y-358020D01*
X-392414Y-359020D01*
X-394413D01*
X-395413Y-358020D01*
Y-354022D01*
X-389415Y-359020D02*
Y-355021D01*
X-388415D01*
X-387416Y-356021D01*
Y-359020D01*
Y-356021D01*
X-386416Y-355021D01*
X-385416Y-356021D01*
Y-359020D01*
X-383417D02*
X-381417D01*
X-382417D01*
Y-355021D01*
X-383417D01*
X-378418Y-359020D02*
X-376419D01*
X-377419D01*
Y-353022D01*
X-378418D01*
X-365423Y-359020D02*
X-367422Y-357021D01*
Y-355021D01*
X-365423Y-353022D01*
X-362424Y-359020D02*
X-360424D01*
X-361424D01*
Y-353022D01*
X-362424Y-354022D01*
X-357425Y-359020D02*
Y-358020D01*
X-356426D01*
Y-359020D01*
X-357425D01*
X-352427Y-353022D02*
X-348428D01*
Y-354022D01*
X-352427Y-358020D01*
Y-359020D01*
X-346429Y-353022D02*
X-342430D01*
Y-354022D01*
X-346429Y-358020D01*
Y-359020D01*
X-340431Y-354022D02*
X-339431Y-353022D01*
X-337432D01*
X-336432Y-354022D01*
Y-355021D01*
X-337432Y-356021D01*
X-336432Y-357021D01*
Y-358020D01*
X-337432Y-359020D01*
X-339431D01*
X-340431Y-358020D01*
Y-357021D01*
X-339431Y-356021D01*
X-340431Y-355021D01*
Y-354022D01*
X-339431Y-356021D02*
X-337432D01*
X-334433Y-359020D02*
Y-355021D01*
X-333433D01*
X-332433Y-356021D01*
Y-359020D01*
Y-356021D01*
X-331434Y-355021D01*
X-330434Y-356021D01*
Y-359020D01*
X-328435D02*
Y-355021D01*
X-327435D01*
X-326435Y-356021D01*
Y-359020D01*
Y-356021D01*
X-325436Y-355021D01*
X-324436Y-356021D01*
Y-359020D01*
X-322437D02*
X-320437Y-357021D01*
Y-355021D01*
X-322437Y-353022D01*
X-267051Y-359020D02*
Y-353022D01*
X-264052D01*
X-263052Y-354022D01*
Y-356021D01*
X-264052Y-357021D01*
X-267051D01*
X-261053Y-353022D02*
X-257054D01*
X-259053D01*
Y-359020D01*
X-255055Y-353022D02*
Y-359020D01*
Y-356021D01*
X-251056D01*
Y-353022D01*
Y-359020D01*
X-216663D02*
Y-353022D01*
X-213664D01*
X-212664Y-354022D01*
Y-356021D01*
X-213664Y-357021D01*
X-216663D01*
X-214664D02*
X-212664Y-359020D01*
X-209665D02*
X-207666D01*
X-206666Y-358020D01*
Y-356021D01*
X-207666Y-355021D01*
X-209665D01*
X-210665Y-356021D01*
Y-358020D01*
X-209665Y-359020D01*
X-204667Y-355021D02*
Y-358020D01*
X-203667Y-359020D01*
X-200668D01*
Y-355021D01*
X-198669Y-359020D02*
Y-355021D01*
X-195670D01*
X-194670Y-356021D01*
Y-359020D01*
X-188672Y-353022D02*
Y-359020D01*
X-191671D01*
X-192671Y-358020D01*
Y-356021D01*
X-191671Y-355021D01*
X-188672D01*
X-466994Y-371020D02*
X-470992D01*
X-466994Y-367021D01*
Y-366022D01*
X-467993Y-365022D01*
X-469993D01*
X-470992Y-366022D01*
X-401411Y-371020D02*
X-399412D01*
X-400411D01*
Y-365022D01*
X-401411Y-366022D01*
X-396413Y-371020D02*
X-394413D01*
X-395413D01*
Y-365022D01*
X-396413Y-366022D01*
X-391414D02*
X-390415Y-365022D01*
X-388415D01*
X-387416Y-366022D01*
Y-367021D01*
X-388415Y-368021D01*
X-387416Y-369021D01*
Y-370020D01*
X-388415Y-371020D01*
X-390415D01*
X-391414Y-370020D01*
Y-369021D01*
X-390415Y-368021D01*
X-391414Y-367021D01*
Y-366022D01*
X-390415Y-368021D02*
X-388415D01*
X-385416Y-371020D02*
Y-370020D01*
X-384417D01*
Y-371020D01*
X-385416D01*
X-380418D02*
X-378418D01*
X-379418D01*
Y-365022D01*
X-380418Y-366022D01*
X-375419Y-371020D02*
X-373420D01*
X-374420D01*
Y-365022D01*
X-375419Y-366022D01*
X-370421Y-371020D02*
Y-367021D01*
X-369421D01*
X-368422Y-368021D01*
Y-371020D01*
Y-368021D01*
X-367422Y-367021D01*
X-366422Y-368021D01*
Y-371020D01*
X-364423D02*
X-362424D01*
X-363423D01*
Y-367021D01*
X-364423D01*
X-359425Y-371020D02*
X-357425D01*
X-358425D01*
Y-365022D01*
X-359425D01*
X-346429Y-371020D02*
X-348428Y-369021D01*
Y-367021D01*
X-346429Y-365022D01*
X-343430Y-366022D02*
X-342430Y-365022D01*
X-340431D01*
X-339431Y-366022D01*
Y-367021D01*
X-340431Y-368021D01*
X-341430D01*
X-340431D01*
X-339431Y-369021D01*
Y-370020D01*
X-340431Y-371020D01*
X-342430D01*
X-343430Y-370020D01*
X-337432Y-371020D02*
Y-367021D01*
X-336432D01*
X-335432Y-368021D01*
Y-371020D01*
Y-368021D01*
X-334433Y-367021D01*
X-333433Y-368021D01*
Y-371020D01*
X-331434D02*
Y-367021D01*
X-330434D01*
X-329434Y-368021D01*
Y-371020D01*
Y-368021D01*
X-328435Y-367021D01*
X-327435Y-368021D01*
Y-371020D01*
X-325436D02*
X-323436Y-369021D01*
Y-367021D01*
X-325436Y-365022D01*
X-267051Y-371020D02*
Y-365022D01*
X-263052Y-371020D01*
Y-365022D01*
X-261053Y-371020D02*
Y-365022D01*
X-258054D01*
X-257054Y-366022D01*
Y-368021D01*
X-258054Y-369021D01*
X-261053D01*
X-255055Y-365022D02*
X-251056D01*
X-253055D01*
Y-371020D01*
X-249057Y-365022D02*
Y-371020D01*
Y-368021D01*
X-245058D01*
Y-365022D01*
Y-371020D01*
X-216663D02*
Y-365022D01*
X-213664D01*
X-212664Y-366022D01*
Y-368021D01*
X-213664Y-369021D01*
X-216663D01*
X-214664D02*
X-212664Y-371020D01*
X-209665D02*
X-207666D01*
X-206666Y-370020D01*
Y-368021D01*
X-207666Y-367021D01*
X-209665D01*
X-210665Y-368021D01*
Y-370020D01*
X-209665Y-371020D01*
X-204667Y-367021D02*
Y-370020D01*
X-203667Y-371020D01*
X-200668D01*
Y-367021D01*
X-198669Y-371020D02*
Y-367021D01*
X-195670D01*
X-194670Y-368021D01*
Y-371020D01*
X-188672Y-365022D02*
Y-371020D01*
X-191671D01*
X-192671Y-370020D01*
Y-368021D01*
X-191671Y-367021D01*
X-188672D01*
X-470992Y-383020D02*
X-468993D01*
X-469993D01*
Y-377022D01*
X-470992Y-378022D01*
X-401411Y-383020D02*
X-399412D01*
X-400411D01*
Y-377022D01*
X-401411Y-378022D01*
X-396413D02*
X-395413Y-377022D01*
X-393414D01*
X-392414Y-378022D01*
Y-379021D01*
X-393414Y-380021D01*
X-392414Y-381021D01*
Y-382020D01*
X-393414Y-383020D01*
X-395413D01*
X-396413Y-382020D01*
Y-381021D01*
X-395413Y-380021D01*
X-396413Y-379021D01*
Y-378022D01*
X-395413Y-380021D02*
X-393414D01*
X-386416Y-377022D02*
X-390415D01*
Y-380021D01*
X-388415Y-379021D01*
X-387416D01*
X-386416Y-380021D01*
Y-382020D01*
X-387416Y-383020D01*
X-389415D01*
X-390415Y-382020D01*
X-384417Y-383020D02*
Y-382020D01*
X-383417D01*
Y-383020D01*
X-384417D01*
X-379418Y-378022D02*
X-378418Y-377022D01*
X-376419D01*
X-375419Y-378022D01*
Y-382020D01*
X-376419Y-383020D01*
X-378418D01*
X-379418Y-382020D01*
Y-378022D01*
X-373420D02*
X-372420Y-377022D01*
X-370421D01*
X-369421Y-378022D01*
Y-379021D01*
X-370421Y-380021D01*
X-371421D01*
X-370421D01*
X-369421Y-381021D01*
Y-382020D01*
X-370421Y-383020D01*
X-372420D01*
X-373420Y-382020D01*
X-367422D02*
X-366422Y-383020D01*
X-364423D01*
X-363423Y-382020D01*
Y-378022D01*
X-364423Y-377022D01*
X-366422D01*
X-367422Y-378022D01*
Y-379021D01*
X-366422Y-380021D01*
X-363423D01*
X-361424Y-383020D02*
Y-379021D01*
X-360424D01*
X-359425Y-380021D01*
Y-383020D01*
Y-380021D01*
X-358425Y-379021D01*
X-357425Y-380021D01*
Y-383020D01*
X-355426D02*
X-353427D01*
X-354426D01*
Y-379021D01*
X-355426D01*
X-350428Y-383020D02*
X-348428D01*
X-349428D01*
Y-377022D01*
X-350428D01*
X-337432Y-383020D02*
X-339431Y-381021D01*
Y-379021D01*
X-337432Y-377022D01*
X-331434Y-383020D02*
Y-377022D01*
X-334433Y-380021D01*
X-330434D01*
X-328435Y-383020D02*
Y-382020D01*
X-327435D01*
Y-383020D01*
X-328435D01*
X-323436Y-377022D02*
X-319438D01*
Y-378022D01*
X-323436Y-382020D01*
Y-383020D01*
X-317438D02*
Y-379021D01*
X-316439D01*
X-315439Y-380021D01*
Y-383020D01*
Y-380021D01*
X-314439Y-379021D01*
X-313439Y-380021D01*
Y-383020D01*
X-311440D02*
Y-379021D01*
X-310440D01*
X-309441Y-380021D01*
Y-383020D01*
Y-380021D01*
X-308441Y-379021D01*
X-307441Y-380021D01*
Y-383020D01*
X-305442D02*
X-303443Y-381021D01*
Y-379021D01*
X-305442Y-377022D01*
X-267051Y-383020D02*
Y-377022D01*
X-263052Y-383020D01*
Y-377022D01*
X-261053Y-383020D02*
Y-377022D01*
X-258054D01*
X-257054Y-378022D01*
Y-380021D01*
X-258054Y-381021D01*
X-261053D01*
X-255055Y-377022D02*
X-251056D01*
X-253055D01*
Y-383020D01*
X-249057Y-377022D02*
Y-383020D01*
Y-380021D01*
X-245058D01*
Y-377022D01*
Y-383020D01*
X-216663D02*
Y-377022D01*
X-213664D01*
X-212664Y-378022D01*
Y-380021D01*
X-213664Y-381021D01*
X-216663D01*
X-214664D02*
X-212664Y-383020D01*
X-209665D02*
X-207666D01*
X-206666Y-382020D01*
Y-380021D01*
X-207666Y-379021D01*
X-209665D01*
X-210665Y-380021D01*
Y-382020D01*
X-209665Y-383020D01*
X-204667Y-379021D02*
Y-382020D01*
X-203667Y-383020D01*
X-200668D01*
Y-379021D01*
X-198669Y-383020D02*
Y-379021D01*
X-195670D01*
X-194670Y-380021D01*
Y-383020D01*
X-188672Y-377022D02*
Y-383020D01*
X-191671D01*
X-192671Y-382020D01*
Y-380021D01*
X-191671Y-379021D01*
X-188672D01*
X-470992Y-390022D02*
X-469993Y-389022D01*
X-467993D01*
X-466994Y-390022D01*
Y-391021D01*
X-467993Y-392021D01*
X-468993D01*
X-467993D01*
X-466994Y-393021D01*
Y-394020D01*
X-467993Y-395020D01*
X-469993D01*
X-470992Y-394020D01*
X-464994Y-395020D02*
X-462995D01*
X-463995D01*
Y-389022D01*
X-464994Y-390022D01*
X-455997Y-395020D02*
X-459996D01*
X-455997Y-391021D01*
Y-390022D01*
X-456997Y-389022D01*
X-458996D01*
X-459996Y-390022D01*
X-445197Y-389022D02*
X-441199D01*
X-443198D01*
Y-395020D01*
X-438200D02*
X-436200D01*
X-435201Y-394020D01*
Y-392021D01*
X-436200Y-391021D01*
X-438200D01*
X-439199Y-392021D01*
Y-394020D01*
X-438200Y-395020D01*
X-432201Y-390022D02*
Y-391021D01*
X-433201D01*
X-431202D01*
X-432201D01*
Y-394020D01*
X-431202Y-395020D01*
X-427203Y-391021D02*
X-425204D01*
X-424204Y-392021D01*
Y-395020D01*
X-427203D01*
X-428203Y-394020D01*
X-427203Y-393021D01*
X-424204D01*
X-422205Y-395020D02*
X-420205D01*
X-421205D01*
Y-389022D01*
X-422205D01*
D11*
X94000Y-109000D02*
Y-105000D01*
X98000D01*
Y-109000D01*
X94000D01*
X58500Y-113500D02*
Y-109500D01*
X62500D01*
Y-113500D01*
X58500D01*
X-59000Y135500D02*
Y139500D01*
X-55000D01*
Y135500D01*
X-59000D01*
X63500Y-103500D02*
Y-99500D01*
X67500D01*
Y-103500D01*
X63500D01*
X59500Y-138500D02*
Y-134500D01*
X63500D01*
Y-138500D01*
X59500D01*
X98000Y-104500D02*
Y-100500D01*
X102000D01*
Y-104500D01*
X98000D01*
X58500Y-119500D02*
Y-115500D01*
X62500D01*
Y-119500D01*
X58500D01*
X9000Y-73000D02*
Y-69000D01*
X13000D01*
Y-73000D01*
X9000D01*
X23000Y-67500D02*
Y-63500D01*
X27000D01*
Y-67500D01*
X23000D01*
X-5000Y-91000D02*
Y-87000D01*
X-1000D01*
Y-91000D01*
X-5000D01*
X11910Y89830D02*
Y93830D01*
X15910D01*
Y89830D01*
X11910D01*
X35500Y-107000D02*
Y-103000D01*
X39500D01*
Y-107000D01*
X35500D01*
X-5000Y-85000D02*
Y-81000D01*
X-1000D01*
Y-85000D01*
X-5000D01*
X15000Y-73000D02*
Y-69000D01*
X19000D01*
Y-73000D01*
X15000D01*
X-97000Y110500D02*
Y114500D01*
X-93000D01*
Y110500D01*
X-97000D01*
X-69000Y102500D02*
Y106500D01*
X-65000D01*
Y102500D01*
X-69000D01*
X40500Y31500D02*
Y35500D01*
X44500D01*
Y31500D01*
X40500D01*
X-57000Y103000D02*
Y107000D01*
X-53000D01*
Y103000D01*
X-57000D01*
X-63000D02*
Y107000D01*
X-59000D01*
Y103000D01*
X-63000D01*
X-105000Y104500D02*
Y108500D01*
X-101000D01*
Y104500D01*
X-105000D01*
X161537Y-2000D02*
X159537Y2000D01*
X163537D01*
X161537Y-2000D01*
X-161297D02*
X-163297Y2000D01*
X-159297D01*
X-161297Y-2000D01*
X0Y-152870D02*
X1000Y-151870D01*
X2000D01*
X1000Y-150870D01*
X2000Y-149870D01*
X1000D01*
X0Y-148870D01*
X-1000Y-149870D01*
X-2000D01*
X-1000Y-150870D01*
X-2000Y-151870D01*
X-1000D01*
X0Y-152870D01*
X-121000Y-86500D02*
X-120000Y-84500D01*
X-121000Y-82500D01*
X-119000Y-83500D01*
X-117000Y-82500D01*
X-118000Y-84500D01*
X-117000Y-86500D01*
X-119000Y-85500D01*
X-121000Y-86500D01*
Y81500D02*
X-120000Y83500D01*
X-121000Y85500D01*
X-119000Y84500D01*
X-117000Y85500D01*
X-118000Y83500D01*
X-117000Y81500D01*
X-119000Y82500D01*
X-121000Y81500D01*
X-120000Y52500D02*
Y51500D01*
X-118000D01*
Y52500D01*
X-117000D01*
Y54500D01*
X-118000D01*
Y55500D01*
X-120000D01*
Y54500D01*
X-121000D01*
Y52500D01*
X-120000D01*
X-121000Y-56500D02*
X-120000Y-54500D01*
X-121000Y-52500D01*
X-119000Y-53500D01*
X-117000Y-52500D01*
X-118000Y-54500D01*
X-117000Y-56500D01*
X-119000Y-55500D01*
X-121000Y-56500D01*
X67000Y-86500D02*
X68000Y-84500D01*
X67000Y-82500D01*
X69000Y-83500D01*
X71000Y-82500D01*
X70000Y-84500D01*
X71000Y-86500D01*
X69000Y-85500D01*
X67000Y-86500D01*
Y81500D02*
X68000Y83500D01*
X67000Y85500D01*
X69000Y84500D01*
X71000Y85500D01*
X70000Y83500D01*
X71000Y81500D01*
X69000Y82500D01*
X67000Y81500D01*
X68000Y52500D02*
Y51500D01*
X70000D01*
Y52500D01*
X71000D01*
Y54500D01*
X70000D01*
Y55500D01*
X68000D01*
Y54500D01*
X67000D01*
Y52500D01*
X68000D01*
X67000Y-56500D02*
X68000Y-54500D01*
X67000Y-52500D01*
X69000Y-53500D01*
X71000Y-52500D01*
X70000Y-54500D01*
X71000Y-56500D01*
X69000Y-55500D01*
X67000Y-56500D01*
X117000Y81500D02*
X118000Y83500D01*
X117000Y85500D01*
X119000Y84500D01*
X121000Y85500D01*
X120000Y83500D01*
X121000Y81500D01*
X119000Y82500D01*
X117000Y81500D01*
Y-86500D02*
X118000Y-84500D01*
X117000Y-82500D01*
X119000Y-83500D01*
X121000Y-82500D01*
X120000Y-84500D01*
X121000Y-86500D01*
X119000Y-85500D01*
X117000Y-86500D01*
X118000Y-55500D02*
Y-56500D01*
X120000D01*
Y-55500D01*
X121000D01*
Y-53500D01*
X120000D01*
Y-52500D01*
X118000D01*
Y-53500D01*
X117000D01*
Y-55500D01*
X118000D01*
X117000Y51500D02*
X118000Y53500D01*
X117000Y55500D01*
X119000Y54500D01*
X121000Y55500D01*
X120000Y53500D01*
X121000Y51500D01*
X119000Y52500D01*
X117000Y51500D01*
X-71000Y81500D02*
X-70000Y83500D01*
X-71000Y85500D01*
X-69000Y84500D01*
X-67000Y85500D01*
X-68000Y83500D01*
X-67000Y81500D01*
X-69000Y82500D01*
X-71000Y81500D01*
Y-86500D02*
X-70000Y-84500D01*
X-71000Y-82500D01*
X-69000Y-83500D01*
X-67000Y-82500D01*
X-68000Y-84500D01*
X-67000Y-86500D01*
X-69000Y-85500D01*
X-71000Y-86500D01*
X-70000Y-55500D02*
Y-56500D01*
X-68000D01*
Y-55500D01*
X-67000D01*
Y-53500D01*
X-68000D01*
Y-52500D01*
X-70000D01*
Y-53500D01*
X-71000D01*
Y-55500D01*
X-70000D01*
X-71000Y51500D02*
X-70000Y53500D01*
X-71000Y55500D01*
X-69000Y54500D01*
X-67000Y55500D01*
X-68000Y53500D01*
X-67000Y51500D01*
X-69000Y52500D01*
X-71000Y51500D01*
X19000Y15000D02*
X20000D01*
X21000Y16000D01*
X22000Y15000D01*
X23000D01*
Y16000D01*
X22000Y17000D01*
X23000Y18000D01*
Y19000D01*
X22000D01*
X21000Y18000D01*
X20000Y19000D01*
X19000D01*
Y18000D01*
X20000Y17000D01*
X19000Y16000D01*
Y15000D01*
X16000Y17500D02*
X17000D01*
X18000Y18500D01*
X19000Y17500D01*
X20000D01*
Y18500D01*
X19000Y19500D01*
X20000Y20500D01*
Y21500D01*
X19000D01*
X18000Y20500D01*
X17000Y21500D01*
X16000D01*
Y20500D01*
X17000Y19500D01*
X16000Y18500D01*
Y17500D01*
X19000Y19500D02*
X20000D01*
X21000Y20500D01*
X22000Y19500D01*
X23000D01*
Y20500D01*
X22000Y21500D01*
X23000Y22500D01*
Y23500D01*
X22000D01*
X21000Y22500D01*
X20000Y23500D01*
X19000D01*
Y22500D01*
X20000Y21500D01*
X19000Y20500D01*
Y19500D01*
X-37000Y-18000D02*
X-35000Y-16000D01*
X-33000Y-18000D01*
X-35000Y-20000D01*
X-37000Y-18000D01*
X18500Y-15000D02*
X20500Y-13000D01*
X22500Y-15000D01*
X20500Y-17000D01*
X18500Y-15000D01*
X58000Y-19000D02*
X60000Y-17000D01*
X62000Y-19000D01*
X60000Y-21000D01*
X58000Y-19000D01*
X44500D02*
X46500Y-17000D01*
X48500Y-19000D01*
X46500Y-21000D01*
X44500Y-19000D01*
X500Y58500D02*
X1500D01*
X2500Y59500D01*
X3500Y58500D01*
X4500D01*
Y59500D01*
X3500Y60500D01*
X4500Y61500D01*
Y62500D01*
X3500D01*
X2500Y61500D01*
X1500Y62500D01*
X500D01*
Y61500D01*
X1500Y60500D01*
X500Y59500D01*
Y58500D01*
X88862Y-119638D02*
Y-115638D01*
X92862D01*
Y-119638D01*
X88862D01*
X89662Y-118838D02*
Y-116438D01*
X92062D01*
Y-118838D01*
X89662D01*
X88862Y-124362D02*
Y-120362D01*
X92862D01*
Y-124362D01*
X88862D01*
X89662Y-123562D02*
Y-121162D01*
X92062D01*
Y-123562D01*
X89662D01*
X84138Y-119638D02*
Y-115638D01*
X88138D01*
Y-119638D01*
X84138D01*
X84938Y-118838D02*
Y-116438D01*
X87338D01*
Y-118838D01*
X84938D01*
X84138Y-124362D02*
Y-120362D01*
X88138D01*
Y-124362D01*
X84138D01*
X84938Y-123562D02*
Y-121162D01*
X87338D01*
Y-123562D01*
X84938D01*
X-85232Y113138D02*
Y117138D01*
X-81232D01*
Y113138D01*
X-85232D01*
X-84432Y113938D02*
Y116338D01*
X-82032D01*
Y113938D01*
X-84432D01*
X-85232Y117862D02*
Y121862D01*
X-81232D01*
Y117862D01*
X-85232D01*
X-84432Y118662D02*
Y121062D01*
X-82032D01*
Y118662D01*
X-84432D01*
X-80508Y113138D02*
Y117138D01*
X-76508D01*
Y113138D01*
X-80508D01*
X-79708Y113938D02*
Y116338D01*
X-77308D01*
Y113938D01*
X-79708D01*
X-80508Y117862D02*
Y121862D01*
X-76508D01*
Y117862D01*
X-80508D01*
X-79708Y118662D02*
Y121062D01*
X-77308D01*
Y118662D01*
X-79708D01*
X-4500Y-107000D02*
X-3500D01*
X-2500Y-106000D01*
X-1500Y-107000D01*
X-500D01*
Y-106000D01*
X-1500Y-105000D01*
X-500Y-104000D01*
Y-103000D01*
X-1500D01*
X-2500Y-104000D01*
X-3500Y-103000D01*
X-4500D01*
Y-104000D01*
X-3500Y-105000D01*
X-4500Y-106000D01*
Y-107000D01*
X-14500D02*
X-13500D01*
X-12500Y-106000D01*
X-11500Y-107000D01*
X-10500D01*
Y-106000D01*
X-11500Y-105000D01*
X-10500Y-104000D01*
Y-103000D01*
X-11500D01*
X-12500Y-104000D01*
X-13500Y-103000D01*
X-14500D01*
Y-104000D01*
X-13500Y-105000D01*
X-14500Y-106000D01*
Y-107000D01*
X-9500D02*
X-8500D01*
X-7500Y-106000D01*
X-6500Y-107000D01*
X-5500D01*
Y-106000D01*
X-6500Y-105000D01*
X-5500Y-104000D01*
Y-103000D01*
X-6500D01*
X-7500Y-104000D01*
X-8500Y-103000D01*
X-9500D01*
Y-104000D01*
X-8500Y-105000D01*
X-9500Y-106000D01*
Y-107000D01*
X-15500Y158500D02*
X-14500D01*
X-13500Y159500D01*
X-12500Y158500D01*
X-11500D01*
Y159500D01*
X-12500Y160500D01*
X-11500Y161500D01*
Y162500D01*
X-12500D01*
X-13500Y161500D01*
X-14500Y162500D01*
X-15500D01*
Y161500D01*
X-14500Y160500D01*
X-15500Y159500D01*
Y158500D01*
Y143000D02*
X-14500D01*
X-13500Y144000D01*
X-12500Y143000D01*
X-11500D01*
Y144000D01*
X-12500Y145000D01*
X-11500Y146000D01*
Y147000D01*
X-12500D01*
X-13500Y146000D01*
X-14500Y147000D01*
X-15500D01*
Y146000D01*
X-14500Y145000D01*
X-15500Y144000D01*
Y143000D01*
Y148500D02*
X-14500D01*
X-13500Y149500D01*
X-12500Y148500D01*
X-11500D01*
Y149500D01*
X-12500Y150500D01*
X-11500Y151500D01*
Y152500D01*
X-12500D01*
X-13500Y151500D01*
X-14500Y152500D01*
X-15500D01*
Y151500D01*
X-14500Y150500D01*
X-15500Y149500D01*
Y148500D01*
Y153500D02*
X-14500D01*
X-13500Y154500D01*
X-12500Y153500D01*
X-11500D01*
Y154500D01*
X-12500Y155500D01*
X-11500Y156500D01*
Y157500D01*
X-12500D01*
X-13500Y156500D01*
X-14500Y157500D01*
X-15500D01*
Y156500D01*
X-14500Y155500D01*
X-15500Y154500D01*
Y153500D01*
X-14500Y121000D02*
X-13500D01*
X-12500Y122000D01*
X-11500Y121000D01*
X-10500D01*
Y122000D01*
X-11500Y123000D01*
X-10500Y124000D01*
Y125000D01*
X-11500D01*
X-12500Y124000D01*
X-13500Y125000D01*
X-14500D01*
Y124000D01*
X-13500Y123000D01*
X-14500Y122000D01*
Y121000D01*
X-9000D02*
X-8000D01*
X-7000Y122000D01*
X-6000Y121000D01*
X-5000D01*
Y122000D01*
X-6000Y123000D01*
X-5000Y124000D01*
Y125000D01*
X-6000D01*
X-7000Y124000D01*
X-8000Y125000D01*
X-9000D01*
Y124000D01*
X-8000Y123000D01*
X-9000Y122000D01*
Y121000D01*
X-3500D02*
X-2500D01*
X-1500Y122000D01*
X-500Y121000D01*
X500D01*
Y122000D01*
X-500Y123000D01*
X500Y124000D01*
Y125000D01*
X-500D01*
X-1500Y124000D01*
X-2500Y125000D01*
X-3500D01*
Y124000D01*
X-2500Y123000D01*
X-3500Y122000D01*
Y121000D01*
X-15500Y126500D02*
X-14500D01*
X-13500Y127500D01*
X-12500Y126500D01*
X-11500D01*
Y127500D01*
X-12500Y128500D01*
X-11500Y129500D01*
Y130500D01*
X-12500D01*
X-13500Y129500D01*
X-14500Y130500D01*
X-15500D01*
Y129500D01*
X-14500Y128500D01*
X-15500Y127500D01*
Y126500D01*
Y132000D02*
X-14500D01*
X-13500Y133000D01*
X-12500Y132000D01*
X-11500D01*
Y133000D01*
X-12500Y134000D01*
X-11500Y135000D01*
Y136000D01*
X-12500D01*
X-13500Y135000D01*
X-14500Y136000D01*
X-15500D01*
Y135000D01*
X-14500Y134000D01*
X-15500Y133000D01*
Y132000D01*
Y137500D02*
X-14500D01*
X-13500Y138500D01*
X-12500Y137500D01*
X-11500D01*
Y138500D01*
X-12500Y139500D01*
X-11500Y140500D01*
Y141500D01*
X-12500D01*
X-13500Y140500D01*
X-14500Y141500D01*
X-15500D01*
Y140500D01*
X-14500Y139500D01*
X-15500Y138500D01*
Y137500D01*
X13000Y121000D02*
X14000D01*
X15000Y122000D01*
X16000Y121000D01*
X17000D01*
Y122000D01*
X16000Y123000D01*
X17000Y124000D01*
Y125000D01*
X16000D01*
X15000Y124000D01*
X14000Y125000D01*
X13000D01*
Y124000D01*
X14000Y123000D01*
X13000Y122000D01*
Y121000D01*
X7500D02*
X8500D01*
X9500Y122000D01*
X10500Y121000D01*
X11500D01*
Y122000D01*
X10500Y123000D01*
X11500Y124000D01*
Y125000D01*
X10500D01*
X9500Y124000D01*
X8500Y125000D01*
X7500D01*
Y124000D01*
X8500Y123000D01*
X7500Y122000D01*
Y121000D01*
X2000D02*
X3000D01*
X4000Y122000D01*
X5000Y121000D01*
X6000D01*
Y122000D01*
X5000Y123000D01*
X6000Y124000D01*
Y125000D01*
X5000D01*
X4000Y124000D01*
X3000Y125000D01*
X2000D01*
Y124000D01*
X3000Y123000D01*
X2000Y122000D01*
Y121000D01*
X18500Y112000D02*
X19500D01*
X20500Y113000D01*
X21500Y112000D01*
X22500D01*
Y113000D01*
X21500Y114000D01*
X22500Y115000D01*
Y116000D01*
X21500D01*
X20500Y115000D01*
X19500Y116000D01*
X18500D01*
Y115000D01*
X19500Y114000D01*
X18500Y113000D01*
Y112000D01*
Y116500D02*
X19500D01*
X20500Y117500D01*
X21500Y116500D01*
X22500D01*
Y117500D01*
X21500Y118500D01*
X22500Y119500D01*
Y120500D01*
X21500D01*
X20500Y119500D01*
X19500Y120500D01*
X18500D01*
Y119500D01*
X19500Y118500D01*
X18500Y117500D01*
Y116500D01*
Y121000D02*
X19500D01*
X20500Y122000D01*
X21500Y121000D01*
X22500D01*
Y122000D01*
X21500Y123000D01*
X22500Y124000D01*
Y125000D01*
X21500D01*
X20500Y124000D01*
X19500Y125000D01*
X18500D01*
Y124000D01*
X19500Y123000D01*
X18500Y122000D01*
Y121000D01*
X2000Y112000D02*
X3000D01*
X4000Y113000D01*
X5000Y112000D01*
X6000D01*
Y113000D01*
X5000Y114000D01*
X6000Y115000D01*
Y116000D01*
X5000D01*
X4000Y115000D01*
X3000Y116000D01*
X2000D01*
Y115000D01*
X3000Y114000D01*
X2000Y113000D01*
Y112000D01*
X7500D02*
X8500D01*
X9500Y113000D01*
X10500Y112000D01*
X11500D01*
Y113000D01*
X10500Y114000D01*
X11500Y115000D01*
Y116000D01*
X10500D01*
X9500Y115000D01*
X8500Y116000D01*
X7500D01*
Y115000D01*
X8500Y114000D01*
X7500Y113000D01*
Y112000D01*
X13000D02*
X14000D01*
X15000Y113000D01*
X16000Y112000D01*
X17000D01*
Y113000D01*
X16000Y114000D01*
X17000Y115000D01*
Y116000D01*
X16000D01*
X15000Y115000D01*
X14000Y116000D01*
X13000D01*
Y115000D01*
X14000Y114000D01*
X13000Y113000D01*
Y112000D01*
X-3500D02*
X-2500D01*
X-1500Y113000D01*
X-500Y112000D01*
X500D01*
Y113000D01*
X-500Y114000D01*
X500Y115000D01*
Y116000D01*
X-500D01*
X-1500Y115000D01*
X-2500Y116000D01*
X-3500D01*
Y115000D01*
X-2500Y114000D01*
X-3500Y113000D01*
Y112000D01*
X-9000D02*
X-8000D01*
X-7000Y113000D01*
X-6000Y112000D01*
X-5000D01*
Y113000D01*
X-6000Y114000D01*
X-5000Y115000D01*
Y116000D01*
X-6000D01*
X-7000Y115000D01*
X-8000Y116000D01*
X-9000D01*
Y115000D01*
X-8000Y114000D01*
X-9000Y113000D01*
Y112000D01*
X-14500D02*
X-13500D01*
X-12500Y113000D01*
X-11500Y112000D01*
X-10500D01*
Y113000D01*
X-11500Y114000D01*
X-10500Y115000D01*
Y116000D01*
X-11500D01*
X-12500Y115000D01*
X-13500Y116000D01*
X-14500D01*
Y115000D01*
X-13500Y114000D01*
X-14500Y113000D01*
Y112000D01*
X-31000D02*
X-30000D01*
X-29000Y113000D01*
X-28000Y112000D01*
X-27000D01*
Y113000D01*
X-28000Y114000D01*
X-27000Y115000D01*
Y116000D01*
X-28000D01*
X-29000Y115000D01*
X-30000Y116000D01*
X-31000D01*
Y115000D01*
X-30000Y114000D01*
X-31000Y113000D01*
Y112000D01*
X-25500D02*
X-24500D01*
X-23500Y113000D01*
X-22500Y112000D01*
X-21500D01*
Y113000D01*
X-22500Y114000D01*
X-21500Y115000D01*
Y116000D01*
X-22500D01*
X-23500Y115000D01*
X-24500Y116000D01*
X-25500D01*
Y115000D01*
X-24500Y114000D01*
X-25500Y113000D01*
Y112000D01*
X-20000D02*
X-19000D01*
X-18000Y113000D01*
X-17000Y112000D01*
X-16000D01*
Y113000D01*
X-17000Y114000D01*
X-16000Y115000D01*
Y116000D01*
X-17000D01*
X-18000Y115000D01*
X-19000Y116000D01*
X-20000D01*
Y115000D01*
X-19000Y114000D01*
X-20000Y113000D01*
Y112000D01*
X-36500D02*
X-35500D01*
X-34500Y113000D01*
X-33500Y112000D01*
X-32500D01*
Y113000D01*
X-33500Y114000D01*
X-32500Y115000D01*
Y116000D01*
X-33500D01*
X-34500Y115000D01*
X-35500Y116000D01*
X-36500D01*
Y115000D01*
X-35500Y114000D01*
X-36500Y113000D01*
Y112000D01*
X-42000D02*
X-41000D01*
X-40000Y113000D01*
X-39000Y112000D01*
X-38000D01*
Y113000D01*
X-39000Y114000D01*
X-38000Y115000D01*
Y116000D01*
X-39000D01*
X-40000Y115000D01*
X-41000Y116000D01*
X-42000D01*
Y115000D01*
X-41000Y114000D01*
X-42000Y113000D01*
Y112000D01*
X-47500Y134000D02*
X-46500D01*
X-45500Y135000D01*
X-44500Y134000D01*
X-43500D01*
Y135000D01*
X-44500Y136000D01*
X-43500Y137000D01*
Y138000D01*
X-44500D01*
X-45500Y137000D01*
X-46500Y138000D01*
X-47500D01*
Y137000D01*
X-46500Y136000D01*
X-47500Y135000D01*
Y134000D01*
Y128500D02*
X-46500D01*
X-45500Y129500D01*
X-44500Y128500D01*
X-43500D01*
Y129500D01*
X-44500Y130500D01*
X-43500Y131500D01*
Y132500D01*
X-44500D01*
X-45500Y131500D01*
X-46500Y132500D01*
X-47500D01*
Y131500D01*
X-46500Y130500D01*
X-47500Y129500D01*
Y128500D01*
Y123000D02*
X-46500D01*
X-45500Y124000D01*
X-44500Y123000D01*
X-43500D01*
Y124000D01*
X-44500Y125000D01*
X-43500Y126000D01*
Y127000D01*
X-44500D01*
X-45500Y126000D01*
X-46500Y127000D01*
X-47500D01*
Y126000D01*
X-46500Y125000D01*
X-47500Y124000D01*
Y123000D01*
Y117500D02*
X-46500D01*
X-45500Y118500D01*
X-44500Y117500D01*
X-43500D01*
Y118500D01*
X-44500Y119500D01*
X-43500Y120500D01*
Y121500D01*
X-44500D01*
X-45500Y120500D01*
X-46500Y121500D01*
X-47500D01*
Y120500D01*
X-46500Y119500D01*
X-47500Y118500D01*
Y117500D01*
Y150500D02*
X-46500D01*
X-45500Y151500D01*
X-44500Y150500D01*
X-43500D01*
Y151500D01*
X-44500Y152500D01*
X-43500Y153500D01*
Y154500D01*
X-44500D01*
X-45500Y153500D01*
X-46500Y154500D01*
X-47500D01*
Y153500D01*
X-46500Y152500D01*
X-47500Y151500D01*
Y150500D01*
Y145000D02*
X-46500D01*
X-45500Y146000D01*
X-44500Y145000D01*
X-43500D01*
Y146000D01*
X-44500Y147000D01*
X-43500Y148000D01*
Y149000D01*
X-44500D01*
X-45500Y148000D01*
X-46500Y149000D01*
X-47500D01*
Y148000D01*
X-46500Y147000D01*
X-47500Y146000D01*
Y145000D01*
Y139500D02*
X-46500D01*
X-45500Y140500D01*
X-44500Y139500D01*
X-43500D01*
Y140500D01*
X-44500Y141500D01*
X-43500Y142500D01*
Y143500D01*
X-44500D01*
X-45500Y142500D01*
X-46500Y143500D01*
X-47500D01*
Y142500D01*
X-46500Y141500D01*
X-47500Y140500D01*
Y139500D01*
X36500Y121000D02*
X37500D01*
X38500Y122000D01*
X39500Y121000D01*
X40500D01*
Y122000D01*
X39500Y123000D01*
X40500Y124000D01*
Y125000D01*
X39500D01*
X38500Y124000D01*
X37500Y125000D01*
X36500D01*
Y124000D01*
X37500Y123000D01*
X36500Y122000D01*
Y121000D01*
Y116500D02*
X37500D01*
X38500Y117500D01*
X39500Y116500D01*
X40500D01*
Y117500D01*
X39500Y118500D01*
X40500Y119500D01*
Y120500D01*
X39500D01*
X38500Y119500D01*
X37500Y120500D01*
X36500D01*
Y119500D01*
X37500Y118500D01*
X36500Y117500D01*
Y116500D01*
Y112000D02*
X37500D01*
X38500Y113000D01*
X39500Y112000D01*
X40500D01*
Y113000D01*
X39500Y114000D01*
X40500Y115000D01*
Y116000D01*
X39500D01*
X38500Y115000D01*
X37500Y116000D01*
X36500D01*
Y115000D01*
X37500Y114000D01*
X36500Y113000D01*
Y112000D01*
X41000D02*
X42000D01*
X43000Y113000D01*
X44000Y112000D01*
X45000D01*
Y113000D01*
X44000Y114000D01*
X45000Y115000D01*
Y116000D01*
X44000D01*
X43000Y115000D01*
X42000Y116000D01*
X41000D01*
Y115000D01*
X42000Y114000D01*
X41000Y113000D01*
Y112000D01*
X57500D02*
X58500D01*
X59500Y113000D01*
X60500Y112000D01*
X61500D01*
Y113000D01*
X60500Y114000D01*
X61500Y115000D01*
Y116000D01*
X60500D01*
X59500Y115000D01*
X58500Y116000D01*
X57500D01*
Y115000D01*
X58500Y114000D01*
X57500Y113000D01*
Y112000D01*
X52000D02*
X53000D01*
X54000Y113000D01*
X55000Y112000D01*
X56000D01*
Y113000D01*
X55000Y114000D01*
X56000Y115000D01*
Y116000D01*
X55000D01*
X54000Y115000D01*
X53000Y116000D01*
X52000D01*
Y115000D01*
X53000Y114000D01*
X52000Y113000D01*
Y112000D01*
X46500D02*
X47500D01*
X48500Y113000D01*
X49500Y112000D01*
X50500D01*
Y113000D01*
X49500Y114000D01*
X50500Y115000D01*
Y116000D01*
X49500D01*
X48500Y115000D01*
X47500Y116000D01*
X46500D01*
Y115000D01*
X47500Y114000D01*
X46500Y113000D01*
Y112000D01*
X63000D02*
X64000D01*
X65000Y113000D01*
X66000Y112000D01*
X67000D01*
Y113000D01*
X66000Y114000D01*
X67000Y115000D01*
Y116000D01*
X66000D01*
X65000Y115000D01*
X64000Y116000D01*
X63000D01*
Y115000D01*
X64000Y114000D01*
X63000Y113000D01*
Y112000D01*
X68500D02*
X69500D01*
X70500Y113000D01*
X71500Y112000D01*
X72500D01*
Y113000D01*
X71500Y114000D01*
X72500Y115000D01*
Y116000D01*
X71500D01*
X70500Y115000D01*
X69500Y116000D01*
X68500D01*
Y115000D01*
X69500Y114000D01*
X68500Y113000D01*
Y112000D01*
X74000D02*
X75000D01*
X76000Y113000D01*
X77000Y112000D01*
X78000D01*
Y113000D01*
X77000Y114000D01*
X78000Y115000D01*
Y116000D01*
X77000D01*
X76000Y115000D01*
X75000Y116000D01*
X74000D01*
Y115000D01*
X75000Y114000D01*
X74000Y113000D01*
Y112000D01*
X68500Y137500D02*
X69500D01*
X70500Y138500D01*
X71500Y137500D01*
X72500D01*
Y138500D01*
X71500Y139500D01*
X72500Y140500D01*
Y141500D01*
X71500D01*
X70500Y140500D01*
X69500Y141500D01*
X68500D01*
Y140500D01*
X69500Y139500D01*
X68500Y138500D01*
Y137500D01*
X74000D02*
X75000D01*
X76000Y138500D01*
X77000Y137500D01*
X78000D01*
Y138500D01*
X77000Y139500D01*
X78000Y140500D01*
Y141500D01*
X77000D01*
X76000Y140500D01*
X75000Y141500D01*
X74000D01*
Y140500D01*
X75000Y139500D01*
X74000Y138500D01*
Y137500D01*
X41000Y121000D02*
X42000D01*
X43000Y122000D01*
X44000Y121000D01*
X45000D01*
Y122000D01*
X44000Y123000D01*
X45000Y124000D01*
Y125000D01*
X44000D01*
X43000Y124000D01*
X42000Y125000D01*
X41000D01*
Y124000D01*
X42000Y123000D01*
X41000Y122000D01*
Y121000D01*
X57500D02*
X58500D01*
X59500Y122000D01*
X60500Y121000D01*
X61500D01*
Y122000D01*
X60500Y123000D01*
X61500Y124000D01*
Y125000D01*
X60500D01*
X59500Y124000D01*
X58500Y125000D01*
X57500D01*
Y124000D01*
X58500Y123000D01*
X57500Y122000D01*
Y121000D01*
X52000D02*
X53000D01*
X54000Y122000D01*
X55000Y121000D01*
X56000D01*
Y122000D01*
X55000Y123000D01*
X56000Y124000D01*
Y125000D01*
X55000D01*
X54000Y124000D01*
X53000Y125000D01*
X52000D01*
Y124000D01*
X53000Y123000D01*
X52000Y122000D01*
Y121000D01*
X46500D02*
X47500D01*
X48500Y122000D01*
X49500Y121000D01*
X50500D01*
Y122000D01*
X49500Y123000D01*
X50500Y124000D01*
Y125000D01*
X49500D01*
X48500Y124000D01*
X47500Y125000D01*
X46500D01*
Y124000D01*
X47500Y123000D01*
X46500Y122000D01*
Y121000D01*
X63000D02*
X64000D01*
X65000Y122000D01*
X66000Y121000D01*
X67000D01*
Y122000D01*
X66000Y123000D01*
X67000Y124000D01*
Y125000D01*
X66000D01*
X65000Y124000D01*
X64000Y125000D01*
X63000D01*
Y124000D01*
X64000Y123000D01*
X63000Y122000D01*
Y121000D01*
X68500D02*
X69500D01*
X70500Y122000D01*
X71500Y121000D01*
X72500D01*
Y122000D01*
X71500Y123000D01*
X72500Y124000D01*
Y125000D01*
X71500D01*
X70500Y124000D01*
X69500Y125000D01*
X68500D01*
Y124000D01*
X69500Y123000D01*
X68500Y122000D01*
Y121000D01*
X74000D02*
X75000D01*
X76000Y122000D01*
X77000Y121000D01*
X78000D01*
Y122000D01*
X77000Y123000D01*
X78000Y124000D01*
Y125000D01*
X77000D01*
X76000Y124000D01*
X75000Y125000D01*
X74000D01*
Y124000D01*
X75000Y123000D01*
X74000Y122000D01*
Y121000D01*
Y126500D02*
X75000D01*
X76000Y127500D01*
X77000Y126500D01*
X78000D01*
Y127500D01*
X77000Y128500D01*
X78000Y129500D01*
Y130500D01*
X77000D01*
X76000Y129500D01*
X75000Y130500D01*
X74000D01*
Y129500D01*
X75000Y128500D01*
X74000Y127500D01*
Y126500D01*
Y132000D02*
X75000D01*
X76000Y133000D01*
X77000Y132000D01*
X78000D01*
Y133000D01*
X77000Y134000D01*
X78000Y135000D01*
Y136000D01*
X77000D01*
X76000Y135000D01*
X75000Y136000D01*
X74000D01*
Y135000D01*
X75000Y134000D01*
X74000Y133000D01*
Y132000D01*
X68500D02*
X69500D01*
X70500Y133000D01*
X71500Y132000D01*
X72500D01*
Y133000D01*
X71500Y134000D01*
X72500Y135000D01*
Y136000D01*
X71500D01*
X70500Y135000D01*
X69500Y136000D01*
X68500D01*
Y135000D01*
X69500Y134000D01*
X68500Y133000D01*
Y132000D01*
Y126500D02*
X69500D01*
X70500Y127500D01*
X71500Y126500D01*
X72500D01*
Y127500D01*
X71500Y128500D01*
X72500Y129500D01*
Y130500D01*
X71500D01*
X70500Y129500D01*
X69500Y130500D01*
X68500D01*
Y129500D01*
X69500Y128500D01*
X68500Y127500D01*
Y126500D01*
X74000Y116500D02*
X75000D01*
X76000Y117500D01*
X77000Y116500D01*
X78000D01*
Y117500D01*
X77000Y118500D01*
X78000Y119500D01*
Y120500D01*
X77000D01*
X76000Y119500D01*
X75000Y120500D01*
X74000D01*
Y119500D01*
X75000Y118500D01*
X74000Y117500D01*
Y116500D01*
X83000Y118000D02*
X84000D01*
X85000Y119000D01*
X86000Y118000D01*
X87000D01*
Y119000D01*
X86000Y120000D01*
X87000Y121000D01*
Y122000D01*
X86000D01*
X85000Y121000D01*
X84000Y122000D01*
X83000D01*
Y121000D01*
X84000Y120000D01*
X83000Y119000D01*
Y118000D01*
X96500D02*
X97500D01*
X98500Y119000D01*
X99500Y118000D01*
X100500D01*
Y119000D01*
X99500Y120000D01*
X100500Y121000D01*
Y122000D01*
X99500D01*
X98500Y121000D01*
X97500Y122000D01*
X96500D01*
Y121000D01*
X97500Y120000D01*
X96500Y119000D01*
Y118000D01*
X84701Y108701D02*
X85701D01*
X86701Y109701D01*
X87701Y108701D01*
X88701D01*
Y109701D01*
X87701Y110701D01*
X88701Y111701D01*
Y112701D01*
X87701D01*
X86701Y111701D01*
X85701Y112701D01*
X84701D01*
Y111701D01*
X85701Y110701D01*
X84701Y109701D01*
Y108701D01*
X70000Y107000D02*
X71000D01*
X72000Y108000D01*
X73000Y107000D01*
X74000D01*
Y108000D01*
X73000Y109000D01*
X74000Y110000D01*
Y111000D01*
X73000D01*
X72000Y110000D01*
X71000Y111000D01*
X70000D01*
Y110000D01*
X71000Y109000D01*
X70000Y108000D01*
Y107000D01*
Y103500D02*
X71000D01*
X72000Y104500D01*
X73000Y103500D01*
X74000D01*
Y104500D01*
X73000Y105500D01*
X74000Y106500D01*
Y107500D01*
X73000D01*
X72000Y106500D01*
X71000Y107500D01*
X70000D01*
Y106500D01*
X71000Y105500D01*
X70000Y104500D01*
Y103500D01*
X-30600Y43400D02*
X-29600D01*
X-28600Y44400D01*
X-27600Y43400D01*
X-26600D01*
Y44400D01*
X-27600Y45400D01*
X-26600Y46400D01*
Y47400D01*
X-27600D01*
X-28600Y46400D01*
X-29600Y47400D01*
X-30600D01*
Y46400D01*
X-29600Y45400D01*
X-30600Y44400D01*
Y43400D01*
X72500Y141500D02*
X73500D01*
X74500Y142500D01*
X75500Y141500D01*
X76500D01*
Y142500D01*
X75500Y143500D01*
X76500Y144500D01*
Y145500D01*
X75500D01*
X74500Y144500D01*
X73500Y145500D01*
X72500D01*
Y144500D01*
X73500Y143500D01*
X72500Y142500D01*
Y141500D01*
X68500Y143000D02*
X69500D01*
X70500Y144000D01*
X71500Y143000D01*
X72500D01*
Y144000D01*
X71500Y145000D01*
X72500Y146000D01*
Y147000D01*
X71500D01*
X70500Y146000D01*
X69500Y147000D01*
X68500D01*
Y146000D01*
X69500Y145000D01*
X68500Y144000D01*
Y143000D01*
X89642Y135210D02*
X90642D01*
X91642Y136210D01*
X92642Y135210D01*
X93642D01*
Y136210D01*
X92642Y137210D01*
X93642Y138210D01*
Y139210D01*
X92642D01*
X91642Y138210D01*
X90642Y139210D01*
X89642D01*
Y138210D01*
X90642Y137210D01*
X89642Y136210D01*
Y135210D01*
X-521380Y-298420D02*
Y-293620D01*
X-516580D01*
Y-298420D01*
X-521380D01*
X-520380Y-297420D02*
Y-294620D01*
X-517580D01*
Y-297420D01*
X-520380D01*
X-521380Y-310420D02*
X-520180D01*
X-518980Y-309220D01*
X-517780Y-310420D01*
X-516580D01*
Y-309220D01*
X-517780Y-308020D01*
X-516580Y-306820D01*
Y-305620D01*
X-517780D01*
X-518980Y-306820D01*
X-520180Y-305620D01*
X-521380D01*
Y-306820D01*
X-520180Y-308020D01*
X-521380Y-309220D01*
Y-310420D01*
Y-322420D02*
Y-317620D01*
X-516580D01*
Y-322420D01*
X-521380D01*
Y-332020D02*
X-518980Y-329620D01*
X-516580Y-332020D01*
X-518980Y-334420D01*
X-521380Y-332020D01*
X-520180Y-345220D02*
Y-346420D01*
X-517780D01*
Y-345220D01*
X-516580D01*
Y-342820D01*
X-517780D01*
Y-341620D01*
X-520180D01*
Y-342820D01*
X-521380D01*
Y-345220D01*
X-520180D01*
X-521380Y-358420D02*
X-520180Y-356020D01*
X-521380Y-353620D01*
X-518980Y-354820D01*
X-516580Y-353620D01*
X-517780Y-356020D01*
X-516580Y-358420D01*
X-518980Y-357220D01*
X-521380Y-358420D01*
X-518980Y-370420D02*
X-521380Y-365620D01*
X-516580D01*
X-518980Y-370420D01*
Y-382420D02*
X-517780Y-381220D01*
X-516580D01*
X-517780Y-380020D01*
X-516580Y-378820D01*
X-517780D01*
X-518980Y-377620D01*
X-520180Y-378820D01*
X-521380D01*
X-520180Y-380020D01*
X-521380Y-381220D01*
X-520180D01*
X-518980Y-382420D01*
D53*
X-516580Y-284020D02*
G03*
X-516580Y-284020I-2400J0D01*
G01*
D155*
X16650Y-58150D02*
G03*
X16650Y-58150I-2000J0D01*
G01*
X13550D02*
G03*
X13550Y-58150I-2000J0D01*
G01*
X10450D02*
G03*
X10450Y-58150I-2000J0D01*
G01*
X7350D02*
G03*
X7350Y-58150I-2000J0D01*
G01*
X16650Y-55050D02*
G03*
X16650Y-55050I-2000J0D01*
G01*
X13550D02*
G03*
X13550Y-55050I-2000J0D01*
G01*
X10450D02*
G03*
X10450Y-55050I-2000J0D01*
G01*
X7350D02*
G03*
X7350Y-55050I-2000J0D01*
G01*
X16650Y-51950D02*
G03*
X16650Y-51950I-2000J0D01*
G01*
X13550D02*
G03*
X13550Y-51950I-2000J0D01*
G01*
X10450D02*
G03*
X10450Y-51950I-2000J0D01*
G01*
X7350D02*
G03*
X7350Y-51950I-2000J0D01*
G01*
X16650Y-48850D02*
G03*
X16650Y-48850I-2000J0D01*
G01*
X13550D02*
G03*
X13550Y-48850I-2000J0D01*
G01*
X10450D02*
G03*
X10450Y-48850I-2000J0D01*
G01*
X7350D02*
G03*
X7350Y-48850I-2000J0D01*
G01*
X26700Y37300D02*
G03*
X26700Y37300I-2000J0D01*
G01*
X23600D02*
G03*
X23600Y37300I-2000J0D01*
G01*
X20500D02*
G03*
X20500Y37300I-2000J0D01*
G01*
X17400D02*
G03*
X17400Y37300I-2000J0D01*
G01*
X14300D02*
G03*
X14300Y37300I-2000J0D01*
G01*
X26700Y40400D02*
G03*
X26700Y40400I-2000J0D01*
G01*
X23600D02*
G03*
X23600Y40400I-2000J0D01*
G01*
X20500D02*
G03*
X20500Y40400I-2000J0D01*
G01*
X17400D02*
G03*
X17400Y40400I-2000J0D01*
G01*
X14300D02*
G03*
X14300Y40400I-2000J0D01*
G01*
X26700Y43500D02*
G03*
X26700Y43500I-2000J0D01*
G01*
X23600D02*
G03*
X23600Y43500I-2000J0D01*
G01*
X20500D02*
G03*
X20500Y43500I-2000J0D01*
G01*
X17400D02*
G03*
X17400Y43500I-2000J0D01*
G01*
X14300D02*
G03*
X14300Y43500I-2000J0D01*
G01*
X26700Y46600D02*
G03*
X26700Y46600I-2000J0D01*
G01*
X23600D02*
G03*
X23600Y46600I-2000J0D01*
G01*
X20500D02*
G03*
X20500Y46600I-2000J0D01*
G01*
X17400D02*
G03*
X17400Y46600I-2000J0D01*
G01*
X14300D02*
G03*
X14300Y46600I-2000J0D01*
G01*
X26700Y49700D02*
G03*
X26700Y49700I-2000J0D01*
G01*
X23600D02*
G03*
X23600Y49700I-2000J0D01*
G01*
X20500D02*
G03*
X20500Y49700I-2000J0D01*
G01*
X17400D02*
G03*
X17400Y49700I-2000J0D01*
G01*
X14300D02*
G03*
X14300Y49700I-2000J0D01*
G01*
X-82000Y88500D02*
G03*
X-82000Y88500I-2000J0D01*
G01*
X-79500Y86500D02*
G03*
X-79500Y86500I-2000J0D01*
G01*
X-77000Y88500D02*
G03*
X-77000Y88500I-2000J0D01*
G01*
X-79000Y129500D02*
G03*
X-79000Y129500I-2000J0D01*
G01*
X-74000D02*
G03*
X-74000Y129500I-2000J0D01*
G01*
X-71500Y125500D02*
G03*
X-71500Y125500I-2000J0D01*
G01*
X-53500Y16500D02*
G03*
X-53500Y16500I-2000J0D01*
G01*
X-58500Y14500D02*
G03*
X-58500Y14500I-2000J0D01*
G01*
X-53500Y11500D02*
G03*
X-53500Y11500I-2000J0D01*
G01*
X69000Y33500D02*
G03*
X69000Y33500I-2000J0D01*
G01*
X68000Y30000D02*
G03*
X68000Y30000I-2000J0D01*
G01*
X69000Y36500D02*
G03*
X69000Y36500I-2000J0D01*
G01*
Y39500D02*
G03*
X69000Y39500I-2000J0D01*
G01*
Y42500D02*
G03*
X69000Y42500I-2000J0D01*
G01*
X88500Y94500D02*
G03*
X88500Y94500I-2000J0D01*
G01*
X86000Y96500D02*
G03*
X86000Y96500I-2000J0D01*
G01*
X-41500Y64000D02*
G03*
X-41500Y64000I-2000J0D01*
G01*
X-17000Y11500D02*
G03*
X-17000Y11500I-2000J0D01*
G01*
X58000Y23000D02*
G03*
X58000Y23000I-2000J0D01*
G01*
X46000Y38500D02*
G03*
X46000Y38500I-2000J0D01*
G01*
X-7000Y24500D02*
G03*
X-7000Y24500I-2000J0D01*
G01*
X83500Y98500D02*
G03*
X83500Y98500I-2000J0D01*
G01*
X-3213Y-22500D02*
G03*
X-3213Y-22500I-2000J0D01*
G01*
X70500Y-26000D02*
G03*
X70500Y-26000I-2000J0D01*
G01*
X-300Y-44000D02*
G03*
X-300Y-44000I-2000J0D01*
G01*
X84600Y139300D02*
G03*
X84600Y139300I-2000J0D01*
G01*
X88586Y138184D02*
G03*
X88586Y138184I-2000J0D01*
G01*
X61500Y155000D02*
G03*
X61500Y155000I-2000J0D01*
G01*
X-142500Y69000D02*
G03*
X-142500Y69000I-2000J0D01*
G01*
X-148000Y57500D02*
G03*
X-148000Y57500I-2000J0D01*
G01*
X-64500Y120000D02*
G03*
X-64500Y120000I-2000J0D01*
G01*
X-59300Y87400D02*
G03*
X-59300Y87400I-2000J0D01*
G01*
X-62100Y122900D02*
G03*
X-62100Y122900I-2000J0D01*
G01*
X-63200Y125700D02*
G03*
X-63200Y125700I-2000J0D01*
G01*
X-57100Y84400D02*
G03*
X-57100Y84400I-2000J0D01*
G01*
X-54900Y87400D02*
G03*
X-54900Y87400I-2000J0D01*
G01*
X-43800Y8400D02*
G03*
X-43800Y8400I-2000J0D01*
G01*
X-41900Y5600D02*
G03*
X-41900Y5600I-2000J0D01*
G01*
X-43800Y3000D02*
G03*
X-43800Y3000I-2000J0D01*
G01*
X69300Y27300D02*
G03*
X69300Y27300I-2000J0D01*
G01*
Y23800D02*
G03*
X69300Y23800I-2000J0D01*
G01*
X148600Y59400D02*
G03*
X148600Y59400I-2000J0D01*
G01*
Y66600D02*
G03*
X148600Y66600I-2000J0D01*
G01*
X-15700Y-133800D02*
G03*
X-15700Y-133800I-2000J0D01*
G01*
X-18900Y-136400D02*
G03*
X-18900Y-136400I-2000J0D01*
G01*
X-15700Y-138900D02*
G03*
X-15700Y-138900I-2000J0D01*
G01*
X78500Y-133300D02*
G03*
X78500Y-133300I-2000J0D01*
G01*
X80000Y-127100D02*
G03*
X80000Y-127100I-2000J0D01*
G01*
X81200Y-130600D02*
G03*
X81200Y-130600I-2000J0D01*
G01*
X79500Y-113600D02*
G03*
X79500Y-113600I-2000J0D01*
G01*
X81000Y-110900D02*
G03*
X81000Y-110900I-2000J0D01*
G01*
X107074Y-111900D02*
G03*
X107074Y-111900I-2000J0D01*
G01*
X92100Y-133400D02*
G03*
X92100Y-133400I-2000J0D01*
G01*
X95000Y-131600D02*
G03*
X95000Y-131600I-2000J0D01*
G01*
X108000Y-117600D02*
G03*
X108000Y-117600I-2000J0D01*
G01*
X98400Y-128900D02*
G03*
X98400Y-128900I-2000J0D01*
G01*
X111200Y-114700D02*
G03*
X111200Y-114700I-2000J0D01*
G01*
X133200Y-89900D02*
G03*
X133200Y-89900I-2000J0D01*
G01*
Y-81500D02*
G03*
X133200Y-81500I-2000J0D01*
G01*
X108400Y-120800D02*
G03*
X108400Y-120800I-2000J0D01*
G01*
X101100Y-125900D02*
G03*
X101100Y-125900I-2000J0D01*
G01*
X39091Y-149724D02*
G03*
X39091Y-149724I-2000J0D01*
G01*
X38300Y-153800D02*
G03*
X38300Y-153800I-2000J0D01*
G01*
X20702Y-149599D02*
G03*
X20702Y-149599I-2000J0D01*
G01*
X20205Y-144585D02*
G03*
X20205Y-144585I-2000J0D01*
G01*
X31500Y-149300D02*
G03*
X31500Y-149300I-2000J0D01*
G01*
X24700Y-150900D02*
G03*
X24700Y-150900I-2000J0D01*
G01*
X8500Y2500D02*
G03*
X8500Y2500I-2000J0D01*
G01*
X-12500D02*
G03*
X-12500Y2500I-2000J0D01*
G01*
X-10300Y4500D02*
G03*
X-10300Y4500I-2000J0D01*
G01*
X11000D02*
G03*
X11000Y4500I-2000J0D01*
G01*
X-7500Y7000D02*
G03*
X-7500Y7000I-2000J0D01*
G01*
X8500D02*
G03*
X8500Y7000I-2000J0D01*
G01*
X-33500Y-24000D02*
G03*
X-33500Y-24000I-2000J0D01*
G01*
X6289Y-68211D02*
G03*
X6289Y-68211I-2000J0D01*
G01*
X26000Y-46000D02*
G03*
X26000Y-46000I-2000J0D01*
G01*
X31987Y58513D02*
G03*
X31987Y58513I-2000J0D01*
G01*
X-9500Y52500D02*
G03*
X-9500Y52500I-2000J0D01*
G01*
X-6000Y44000D02*
G03*
X-6000Y44000I-2000J0D01*
G01*
X-38000Y68500D02*
G03*
X-38000Y68500I-2000J0D01*
G01*
X41400Y-48800D02*
G03*
X41400Y-48800I-2000J0D01*
G01*
X49900D02*
G03*
X49900Y-48800I-2000J0D01*
G01*
X59600Y-7600D02*
G03*
X59600Y-7600I-2000J0D01*
G01*
X-17400Y-13900D02*
G03*
X-17400Y-13900I-2000J0D01*
G01*
X4000Y23000D02*
G03*
X4000Y23000I-2000J0D01*
G01*
X-1500Y73000D02*
G03*
X-1500Y73000I-2000J0D01*
G01*
X9000Y55213D02*
G03*
X9000Y55213I-2000J0D01*
G01*
X-165000Y-51000D02*
G03*
X-165000Y-51000I-2000J0D01*
G01*
X-4657Y30658D02*
G03*
X-4657Y30658I-2000J0D01*
G01*
X0Y-30100D02*
G03*
X0Y-30100I-2000J0D01*
G01*
X6400D02*
G03*
X6400Y-30100I-2000J0D01*
G01*
X7500Y-38500D02*
G03*
X7500Y-38500I-2000J0D01*
G01*
X-49400Y-115000D02*
G03*
X-49400Y-115000I-2000J0D01*
G01*
X4500Y36000D02*
G03*
X4500Y36000I-2000J0D01*
G01*
X23500Y58500D02*
G03*
X23500Y58500I-2000J0D01*
G01*
X31913Y55213D02*
G03*
X31913Y55213I-2000J0D01*
G01*
X16900Y61300D02*
G03*
X16900Y61300I-2000J0D01*
G01*
Y59000D02*
G03*
X16900Y59000I-2000J0D01*
G01*
X40000Y79000D02*
G03*
X40000Y79000I-2000J0D01*
G01*
X48300Y55200D02*
G03*
X48300Y55200I-2000J0D01*
G01*
X-10000Y58500D02*
G03*
X-10000Y58500I-2000J0D01*
G01*
X-6657Y73443D02*
G03*
X-6657Y73443I-2000J0D01*
G01*
X29500Y-43756D02*
G03*
X29500Y-43756I-2000J0D01*
G01*
X22000D02*
G03*
X22000Y-43756I-2000J0D01*
G01*
X30500Y75000D02*
G03*
X30500Y75000I-2000J0D01*
G01*
X5000Y74000D02*
G03*
X5000Y74000I-2000J0D01*
G01*
X9500D02*
G03*
X9500Y74000I-2000J0D01*
G01*
X14000D02*
G03*
X14000Y74000I-2000J0D01*
G01*
X17500Y87500D02*
G03*
X17500Y87500I-2000J0D01*
G01*
X-34570Y77430D02*
G03*
X-34570Y77430I-2000J0D01*
G01*
X-15100Y-22400D02*
G03*
X-15100Y-22400I-2000J0D01*
G01*
X-27847Y-37653D02*
G03*
X-27847Y-37653I-2000J0D01*
G01*
X-13500Y-50000D02*
G03*
X-13500Y-50000I-2000J0D01*
G01*
X-22000Y-55500D02*
G03*
X-22000Y-55500I-2000J0D01*
G01*
Y-60500D02*
G03*
X-22000Y-60500I-2000J0D01*
G01*
Y-65500D02*
G03*
X-22000Y-65500I-2000J0D01*
G01*
Y-70500D02*
G03*
X-22000Y-70500I-2000J0D01*
G01*
Y-75000D02*
G03*
X-22000Y-75000I-2000J0D01*
G01*
X-38000Y-84000D02*
G03*
X-38000Y-84000I-2000J0D01*
G01*
X-6500Y-77500D02*
G03*
X-6500Y-77500I-2000J0D01*
G01*
X85000Y-99788D02*
G03*
X85000Y-99788I-2000J0D01*
G01*
X53000Y-114500D02*
G03*
X53000Y-114500I-2000J0D01*
G01*
X69500Y-126500D02*
G03*
X69500Y-126500I-2000J0D01*
G01*
X27500Y-22000D02*
G03*
X27500Y-22000I-2000J0D01*
G01*
X23963Y-167356D02*
G03*
X23963Y-167356I-2000J0D01*
G01*
X-150500Y-47000D02*
G03*
X-150500Y-47000I-2000J0D01*
G01*
X32000Y32000D02*
G03*
X32000Y32000I-2000J0D01*
G01*
X7000Y23000D02*
G03*
X7000Y23000I-2000J0D01*
G01*
X7158Y30658D02*
G03*
X7158Y30658I-2000J0D01*
G01*
X38658Y-40157D02*
G03*
X38658Y-40157I-2000J0D01*
G01*
X41658Y-61500D02*
G03*
X41658Y-61500I-2000J0D01*
G01*
X33000Y-88000D02*
G03*
X33000Y-88000I-2000J0D01*
G01*
X108158Y117842D02*
G03*
X108158Y117842I-2000J0D01*
G01*
X93000Y102685D02*
G03*
X93000Y102685I-2000J0D01*
G01*
X2000Y-12000D02*
G03*
X2000Y-12000I-2000J0D01*
G01*
X-12000D02*
G03*
X-12000Y-12000I-2000J0D01*
G01*
X153710Y64971D02*
G03*
X153710Y64971I-2000J0D01*
G01*
X154721Y-62500D02*
G03*
X154721Y-62500I-2000J0D01*
G01*
X66974Y-152400D02*
G03*
X66974Y-152400I-2000J0D01*
G01*
X-49500Y-157000D02*
G03*
X-49500Y-157000I-2000J0D01*
G01*
X-149500Y-65195D02*
G03*
X-149500Y-65195I-2000J0D01*
G01*
X-151500Y60827D02*
G03*
X-151500Y60827I-2000J0D01*
G01*
X-72857Y147042D02*
G03*
X-72857Y147042I-2000J0D01*
G01*
X67400Y-27000D02*
G03*
X67400Y-27000I-2000J0D01*
G01*
X-32000D02*
G03*
X-32000Y-27000I-2000J0D01*
G01*
X-53000Y96500D02*
G03*
X-53000Y96500I-2000J0D01*
G01*
D156*
X264620Y319120D02*
X516620D01*
X264620Y369120D02*
X516620D01*
X522620Y262480D02*
Y397980D01*
X258620Y262480D02*
Y397980D01*
Y262480D02*
X522620D01*
X258620Y397980D02*
X522620D01*
D157*
X-516581Y-266622D02*
X-517781Y-265422D01*
X-520180D01*
X-521380Y-266622D01*
Y-267822D01*
X-520180Y-269021D01*
X-517781D01*
X-516581Y-270221D01*
Y-271420D01*
X-517781Y-272620D01*
X-520180D01*
X-521380Y-271420D01*
X-514182Y-267822D02*
Y-271420D01*
X-512983Y-272620D01*
X-509384D01*
Y-273820D01*
X-510583Y-275019D01*
X-511783D01*
X-509384Y-272620D02*
Y-267822D01*
X-506985Y-272620D02*
Y-267822D01*
X-505785D01*
X-504585Y-269021D01*
Y-272620D01*
Y-269021D01*
X-503386Y-267822D01*
X-502186Y-269021D01*
Y-272620D01*
X-499787Y-265422D02*
Y-272620D01*
X-496188D01*
X-494988Y-271420D01*
Y-270221D01*
Y-269021D01*
X-496188Y-267822D01*
X-499787D01*
X-491390Y-272620D02*
X-488990D01*
X-487791Y-271420D01*
Y-269021D01*
X-488990Y-267822D01*
X-491390D01*
X-492589Y-269021D01*
Y-271420D01*
X-491390Y-272620D01*
X-485392D02*
X-482992D01*
X-484192D01*
Y-265422D01*
X-485392D01*
X-470992D02*
Y-272620D01*
Y-269021D01*
X-466194D01*
Y-265422D01*
Y-272620D01*
X-463795D02*
X-461396D01*
X-462595D01*
Y-267822D01*
X-463795D01*
X-456597Y-266622D02*
Y-267822D01*
X-457797D01*
X-455398D01*
X-456597D01*
Y-271420D01*
X-455398Y-272620D01*
X-439803Y-266622D02*
X-441002Y-265422D01*
X-443401D01*
X-444601Y-266622D01*
Y-271420D01*
X-443401Y-272620D01*
X-441002D01*
X-439803Y-271420D01*
X-436204Y-272620D02*
X-433805D01*
X-432605Y-271420D01*
Y-269021D01*
X-433805Y-267822D01*
X-436204D01*
X-437403Y-269021D01*
Y-271420D01*
X-436204Y-272620D01*
X-430206Y-267822D02*
Y-271420D01*
X-429006Y-272620D01*
X-425407D01*
Y-267822D01*
X-423008Y-272620D02*
Y-267822D01*
X-419409D01*
X-418210Y-269021D01*
Y-272620D01*
X-414611Y-266622D02*
Y-267822D01*
X-415810D01*
X-413411D01*
X-414611D01*
Y-271420D01*
X-413411Y-272620D01*
X-396613Y-265422D02*
X-401411D01*
Y-269021D01*
X-399012D01*
X-401411D01*
Y-272620D01*
X-394213D02*
X-391814D01*
X-393014D01*
Y-267822D01*
X-394213D01*
X-388215Y-272620D02*
Y-267822D01*
X-384616D01*
X-383417Y-269021D01*
Y-272620D01*
X-381018D02*
X-378618D01*
X-379818D01*
Y-267822D01*
X-381018D01*
X-375020Y-272620D02*
X-371421D01*
X-370221Y-271420D01*
X-371421Y-270221D01*
X-373820D01*
X-375020Y-269021D01*
X-373820Y-267822D01*
X-370221D01*
X-367822Y-265422D02*
Y-272620D01*
Y-269021D01*
X-366622Y-267822D01*
X-364223D01*
X-363023Y-269021D01*
Y-272620D01*
X-357025D02*
X-359425D01*
X-360624Y-271420D01*
Y-269021D01*
X-359425Y-267822D01*
X-357025D01*
X-355826Y-269021D01*
Y-270221D01*
X-360624D01*
X-348628Y-265422D02*
Y-272620D01*
X-352227D01*
X-353427Y-271420D01*
Y-269021D01*
X-352227Y-267822D01*
X-348628D01*
X-339031Y-265422D02*
Y-272620D01*
Y-269021D01*
X-334233D01*
Y-265422D01*
Y-272620D01*
X-330634D02*
X-328235D01*
X-327035Y-271420D01*
Y-269021D01*
X-328235Y-267822D01*
X-330634D01*
X-331834Y-269021D01*
Y-271420D01*
X-330634Y-272620D01*
X-324636D02*
X-322237D01*
X-323436D01*
Y-265422D01*
X-324636D01*
X-315039Y-272620D02*
X-317438D01*
X-318638Y-271420D01*
Y-269021D01*
X-317438Y-267822D01*
X-315039D01*
X-313839Y-269021D01*
Y-270221D01*
X-318638D01*
X-299444Y-266622D02*
X-300644Y-265422D01*
X-303043D01*
X-304242Y-266622D01*
Y-267822D01*
X-303043Y-269021D01*
X-300644D01*
X-299444Y-270221D01*
Y-271420D01*
X-300644Y-272620D01*
X-303043D01*
X-304242Y-271420D01*
X-297045Y-272620D02*
X-294646D01*
X-295845D01*
Y-267822D01*
X-297045D01*
X-291047D02*
X-286248D01*
X-291047Y-272620D01*
X-286248D01*
X-280250D02*
X-282649D01*
X-283849Y-271420D01*
Y-269021D01*
X-282649Y-267822D01*
X-280250D01*
X-279051Y-269021D01*
Y-270221D01*
X-283849D01*
X-267051Y-272620D02*
Y-265422D01*
X-263452D01*
X-262252Y-266622D01*
Y-269021D01*
X-263452Y-270221D01*
X-267051D01*
X-259853Y-272620D02*
X-257454D01*
X-258653D01*
Y-265422D01*
X-259853D01*
X-252655Y-267822D02*
X-250256D01*
X-249057Y-269021D01*
Y-272620D01*
X-252655D01*
X-253855Y-271420D01*
X-252655Y-270221D01*
X-249057D01*
X-245458Y-266622D02*
Y-267822D01*
X-246657D01*
X-244258D01*
X-245458D01*
Y-271420D01*
X-244258Y-272620D01*
X-237060D02*
X-239460D01*
X-240659Y-271420D01*
Y-269021D01*
X-239460Y-267822D01*
X-237060D01*
X-235861Y-269021D01*
Y-270221D01*
X-240659D01*
X-228663Y-265422D02*
Y-272620D01*
X-232262D01*
X-233461Y-271420D01*
Y-269021D01*
X-232262Y-267822D01*
X-228663D01*
X-216663Y-265422D02*
Y-272620D01*
Y-269021D01*
X-211865D01*
Y-265422D01*
Y-272620D01*
X-208266D02*
X-205867D01*
X-204667Y-271420D01*
Y-269021D01*
X-205867Y-267822D01*
X-208266D01*
X-209465Y-269021D01*
Y-271420D01*
X-208266Y-272620D01*
X-202268D02*
X-199869D01*
X-201068D01*
Y-265422D01*
X-202268D01*
X-192671Y-272620D02*
X-195070D01*
X-196270Y-271420D01*
Y-269021D01*
X-195070Y-267822D01*
X-192671D01*
X-191471Y-269021D01*
Y-270221D01*
X-196270D01*
X-181874Y-265422D02*
X-177076D01*
X-179475D01*
Y-272620D01*
X-174677Y-267822D02*
Y-271420D01*
X-173477Y-272620D01*
X-169878D01*
Y-273820D01*
X-171078Y-275019D01*
X-172277D01*
X-169878Y-272620D02*
Y-267822D01*
X-167479Y-275019D02*
Y-267822D01*
X-163880D01*
X-162681Y-269021D01*
Y-271420D01*
X-163880Y-272620D01*
X-167479D01*
X-156683D02*
X-159082D01*
X-160281Y-271420D01*
Y-269021D01*
X-159082Y-267822D01*
X-156683D01*
X-155483Y-269021D01*
Y-270221D01*
X-160281D01*
X-530180Y-261820D02*
X-143483D01*
X-530180Y-278020D02*
X-143483D01*
X-530180Y-261820D02*
Y-398020D01*
X-143483Y-261820D02*
Y-398020D01*
X-475392Y-261820D02*
Y-398020D01*
X-405811Y-261820D02*
Y-398020D01*
X-271451Y-261820D02*
Y-398020D01*
X-221063Y-261820D02*
Y-398020D01*
X-530180Y-386020D02*
X-143483D01*
X-530180Y-398020D02*
X-143483D01*
M02*
