%FSLAX25Y25*%
%MOIN*%
G70*
G01*
G75*
G04 Layer_Physical_Order=1*
G04 Layer_Color=255*
%ADD10C,0.01000*%
%ADD11C,0.00500*%
%ADD12C,0.00600*%
%ADD13R,0.03347X0.02953*%
%ADD14R,0.02953X0.03347*%
%ADD15R,0.03543X0.02953*%
G04:AMPARAMS|DCode=16|XSize=17.72mil|YSize=19.69mil|CornerRadius=0mil|HoleSize=0mil|Usage=FLASHONLY|Rotation=22.500|XOffset=0mil|YOffset=0mil|HoleType=Round|Shape=Rectangle|*
%AMROTATEDRECTD16*
4,1,4,-0.00442,-0.01248,-0.01195,0.00570,0.00442,0.01248,0.01195,-0.00570,-0.00442,-0.01248,0.0*
%
%ADD16ROTATEDRECTD16*%

G04:AMPARAMS|DCode=17|XSize=33.47mil|YSize=35.43mil|CornerRadius=0mil|HoleSize=0mil|Usage=FLASHONLY|Rotation=202.500|XOffset=0mil|YOffset=0mil|HoleType=Round|Shape=Rectangle|*
%AMROTATEDRECTD17*
4,1,4,0.00868,0.02277,0.02224,-0.00997,-0.00868,-0.02277,-0.02224,0.00997,0.00868,0.02277,0.0*
%
%ADD17ROTATEDRECTD17*%

G04:AMPARAMS|DCode=18|XSize=17.72mil|YSize=19.69mil|CornerRadius=0mil|HoleSize=0mil|Usage=FLASHONLY|Rotation=112.500|XOffset=0mil|YOffset=0mil|HoleType=Round|Shape=Rectangle|*
%AMROTATEDRECTD18*
4,1,4,0.01248,-0.00442,-0.00570,-0.01195,-0.01248,0.00442,0.00570,0.01195,0.01248,-0.00442,0.0*
%
%ADD18ROTATEDRECTD18*%

G04:AMPARAMS|DCode=19|XSize=33.47mil|YSize=35.43mil|CornerRadius=0mil|HoleSize=0mil|Usage=FLASHONLY|Rotation=292.500|XOffset=0mil|YOffset=0mil|HoleType=Round|Shape=Rectangle|*
%AMROTATEDRECTD19*
4,1,4,-0.02277,0.00868,0.00997,0.02224,0.02277,-0.00868,-0.00997,-0.02224,-0.02277,0.00868,0.0*
%
%ADD19ROTATEDRECTD19*%

G04:AMPARAMS|DCode=20|XSize=17.72mil|YSize=19.69mil|CornerRadius=0mil|HoleSize=0mil|Usage=FLASHONLY|Rotation=337.500|XOffset=0mil|YOffset=0mil|HoleType=Round|Shape=Rectangle|*
%AMROTATEDRECTD20*
4,1,4,-0.01195,-0.00570,-0.00442,0.01248,0.01195,0.00570,0.00442,-0.01248,-0.01195,-0.00570,0.0*
%
%ADD20ROTATEDRECTD20*%

G04:AMPARAMS|DCode=21|XSize=33.47mil|YSize=35.43mil|CornerRadius=0mil|HoleSize=0mil|Usage=FLASHONLY|Rotation=157.500|XOffset=0mil|YOffset=0mil|HoleType=Round|Shape=Rectangle|*
%AMROTATEDRECTD21*
4,1,4,0.02224,0.00997,0.00868,-0.02277,-0.02224,-0.00997,-0.00868,0.02277,0.02224,0.00997,0.0*
%
%ADD21ROTATEDRECTD21*%

G04:AMPARAMS|DCode=22|XSize=17.72mil|YSize=19.69mil|CornerRadius=0mil|HoleSize=0mil|Usage=FLASHONLY|Rotation=247.500|XOffset=0mil|YOffset=0mil|HoleType=Round|Shape=Rectangle|*
%AMROTATEDRECTD22*
4,1,4,-0.00570,0.01195,0.01248,0.00442,0.00570,-0.01195,-0.01248,-0.00442,-0.00570,0.01195,0.0*
%
%ADD22ROTATEDRECTD22*%

G04:AMPARAMS|DCode=23|XSize=33.47mil|YSize=35.43mil|CornerRadius=0mil|HoleSize=0mil|Usage=FLASHONLY|Rotation=67.500|XOffset=0mil|YOffset=0mil|HoleType=Round|Shape=Rectangle|*
%AMROTATEDRECTD23*
4,1,4,0.00997,-0.02224,-0.02277,-0.00868,-0.00997,0.02224,0.02277,0.00868,0.00997,-0.02224,0.0*
%
%ADD23ROTATEDRECTD23*%

%ADD24R,0.02362X0.02362*%
%ADD25R,0.01890X0.01575*%
%ADD26R,0.03150X0.05118*%
%ADD27R,0.02362X0.02559*%
%ADD28C,0.03200*%
%ADD29R,0.02559X0.02362*%
%ADD30R,0.08268X0.08268*%
%ADD31O,0.02559X0.01181*%
%ADD32O,0.01181X0.02559*%
%ADD33R,0.02953X0.03543*%
%ADD34R,0.03543X0.07480*%
%ADD35R,0.02362X0.02362*%
%ADD36R,0.02362X0.02756*%
%ADD37R,0.04724X0.05512*%
G04:AMPARAMS|DCode=38|XSize=11.02mil|YSize=33.47mil|CornerRadius=0mil|HoleSize=0mil|Usage=FLASHONLY|Rotation=0.000|XOffset=0mil|YOffset=0mil|HoleType=Round|Shape=Octagon|*
%AMOCTAGOND38*
4,1,8,-0.00276,0.01673,0.00276,0.01673,0.00551,0.01398,0.00551,-0.01398,0.00276,-0.01673,-0.00276,-0.01673,-0.00551,-0.01398,-0.00551,0.01398,-0.00276,0.01673,0.0*
%
%ADD38OCTAGOND38*%

%ADD39R,0.01102X0.03347*%
%ADD40R,0.03347X0.01102*%
%ADD41R,0.13583X0.13583*%
%ADD42R,0.05709X0.02165*%
%ADD43R,0.05512X0.04724*%
%ADD44R,0.05118X0.07480*%
%ADD45R,0.03000X0.10000*%
%ADD46R,0.17716X0.17716*%
%ADD47R,0.03600X0.04800*%
%ADD48R,0.09055X0.02559*%
%ADD49R,0.08071X0.11417*%
%ADD50R,0.08661X0.04095*%
%ADD51C,0.10000*%
%ADD52C,0.01500*%
%ADD53C,0.00800*%
%ADD54C,0.04000*%
%ADD55C,0.02000*%
%ADD56C,0.03000*%
%ADD57C,0.02500*%
%ADD58C,0.00700*%
%ADD59R,0.07000X0.23500*%
%ADD60R,0.15700X0.07000*%
%ADD61R,0.03000X0.03300*%
%ADD62C,0.03500*%
%ADD63C,0.02000*%
%ADD64R,0.10800X0.10800*%
%ADD65C,0.10800*%
%ADD66C,0.03000*%
%ADD67C,0.02200*%
%ADD68C,0.04000*%
%ADD69C,0.02598*%
G36*
X22500Y22500D02*
Y12000D01*
X23500Y11000D01*
X37500D01*
Y4500D01*
X16000D01*
X13500Y7000D01*
Y18000D01*
X16500D01*
Y22500D01*
X17500Y23500D01*
X21500D01*
X22500Y22500D01*
D02*
G37*
G36*
X16500Y-30500D02*
X28000D01*
Y-35500D01*
X25500Y-38000D01*
Y-47000D01*
X22500D01*
Y-40000D01*
X20500Y-38000D01*
X17500D01*
X15500Y-40000D01*
Y-41500D01*
X12500D01*
Y-36000D01*
X10000Y-33500D01*
Y-25500D01*
X16500D01*
Y-30500D01*
D02*
G37*
G36*
X38200Y54100D02*
X29300D01*
X28800Y54600D01*
Y58900D01*
X31200Y61300D01*
X38200D01*
Y54100D01*
D02*
G37*
G36*
X16200Y61900D02*
Y57900D01*
X5500D01*
X4100Y56500D01*
Y51300D01*
X400D01*
Y62400D01*
X15700D01*
X16200Y61900D01*
D02*
G37*
G36*
X-500Y-129500D02*
X-2500Y-131500D01*
X-8500D01*
Y-123500D01*
X-500D01*
Y-129500D01*
D02*
G37*
G36*
X-1000Y-119500D02*
X-2000Y-120500D01*
X-9500D01*
X-11000Y-122000D01*
Y-131500D01*
X-19500D01*
Y-113500D01*
X-1000D01*
Y-119500D01*
D02*
G37*
G36*
X23500Y-91000D02*
X24500Y-92000D01*
X27500D01*
Y-96500D01*
X17500D01*
X16000Y-98000D01*
X11500D01*
X9500Y-96000D01*
Y-86500D01*
X23500D01*
Y-91000D01*
D02*
G37*
G36*
X27000Y-112500D02*
X12500Y-127000D01*
X2531D01*
X2500Y-126969D01*
Y-121000D01*
X1000Y-119500D01*
Y-114500D01*
X10500D01*
X11000Y-114000D01*
Y-101000D01*
X27000D01*
Y-112500D01*
D02*
G37*
G36*
X-11500Y162016D02*
Y125984D01*
X22271D01*
Y107834D01*
X15519Y101081D01*
X15187Y100585D01*
X15071Y100000D01*
Y95900D01*
X15187Y95315D01*
X15518Y94819D01*
X17025Y93312D01*
X16834Y92850D01*
X16055D01*
X15604Y93524D01*
X14827Y94044D01*
X13910Y94226D01*
X12993Y94044D01*
X12216Y93524D01*
X11696Y92747D01*
X11514Y91830D01*
X11696Y90913D01*
X12216Y90136D01*
X12993Y89616D01*
X13910Y89434D01*
X14827Y89616D01*
X15604Y90136D01*
X15919Y90607D01*
X20719D01*
Y89750D01*
X20719D01*
Y89313D01*
X20687Y89281D01*
X20687D01*
Y85719D01*
X20719D01*
Y85250D01*
X20719D01*
Y81294D01*
Y81149D01*
X20500D01*
X20175Y81015D01*
X20041Y80959D01*
X19041Y79959D01*
X18851Y79500D01*
Y77250D01*
X18719D01*
Y73687D01*
X18719Y73687D01*
X18719Y73313D01*
X18719D01*
Y70206D01*
X18281D01*
Y70206D01*
X14719D01*
Y67419D01*
X14273D01*
Y67419D01*
X9727D01*
D01*
D01*
X9727Y67419D01*
X9473D01*
Y67419D01*
X4927D01*
D01*
D01*
X4927Y67419D01*
X4773D01*
Y67419D01*
X1000D01*
Y82500D01*
X-2000Y85500D01*
Y93500D01*
X-8500D01*
Y105000D01*
X-33000D01*
X-47002Y119002D01*
X-46969Y156420D01*
X-40509Y158098D01*
X-32493Y159789D01*
X-24408Y161108D01*
X-16270Y162052D01*
X-11866Y162357D01*
X-11500Y162016D01*
D02*
G37*
G36*
X105500Y113500D02*
Y110500D01*
X107000Y109000D01*
X109000D01*
X125500Y92500D01*
Y76500D01*
X110000D01*
Y87000D01*
X93500Y103500D01*
Y111000D01*
X89500Y115000D01*
Y117500D01*
X101500D01*
X105500Y113500D01*
D02*
G37*
G36*
X85000Y113000D02*
X80500Y108500D01*
Y104000D01*
X70000D01*
Y111000D01*
X78000D01*
X79500Y112500D01*
Y117500D01*
X85000D01*
Y113000D01*
D02*
G37*
G36*
X35300Y102400D02*
X26900Y94000D01*
X18500D01*
X16600Y95900D01*
Y100000D01*
X23800Y107200D01*
Y133500D01*
X35300D01*
Y102400D01*
D02*
G37*
G36*
X25500Y70500D02*
X27000Y69000D01*
X29500D01*
Y66500D01*
X23500D01*
Y72000D01*
X25500D01*
Y70500D01*
D02*
G37*
G36*
X71724Y147698D02*
X77836Y144828D01*
X77846Y144802D01*
X77846Y144802D01*
X77846D01*
X77998Y112354D01*
X77646Y112000D01*
X68500D01*
Y98709D01*
X58646Y88854D01*
X58229Y88311D01*
X57967Y87679D01*
X57877Y87000D01*
X57878Y87000D01*
Y66086D01*
X54414Y62622D01*
X47000D01*
X46321Y62533D01*
X45689Y62271D01*
X45187Y61886D01*
X44734D01*
Y62273D01*
X40581D01*
Y61500D01*
X39419D01*
Y62273D01*
X35266D01*
Y61949D01*
X31600D01*
X31409Y62411D01*
X33180Y64182D01*
X39400D01*
X39751Y64252D01*
X40049Y64451D01*
X40806Y65209D01*
X41005Y65506D01*
X41075Y65857D01*
Y66227D01*
X42234D01*
Y70773D01*
X41075D01*
Y71313D01*
X44309D01*
Y78025D01*
X38384D01*
Y71313D01*
X39240D01*
Y70773D01*
X38081D01*
Y66227D01*
D01*
Y66227D01*
X37872Y66018D01*
X32800D01*
X32449Y65948D01*
X32359Y65887D01*
X31918Y66123D01*
Y79120D01*
X32772Y79975D01*
X37616D01*
Y86687D01*
X35260D01*
Y87227D01*
X36419D01*
Y91773D01*
X32266D01*
Y87227D01*
X33425D01*
Y86687D01*
X31691D01*
Y81489D01*
X30351Y80149D01*
X30152Y79851D01*
X30082Y79500D01*
Y69813D01*
X27106D01*
X26281Y70637D01*
Y73294D01*
Y77250D01*
X26149D01*
Y79500D01*
X26015Y79825D01*
X25959Y79959D01*
X24959Y80959D01*
X24500Y81149D01*
X24281D01*
Y81294D01*
Y85250D01*
X24250D01*
Y85719D01*
X24250D01*
Y89281D01*
X24250D01*
Y89719D01*
X24281Y89750D01*
X24281D01*
Y92394D01*
X25181D01*
Y92471D01*
X26900D01*
X27388Y92568D01*
X27485Y92587D01*
X27981Y92919D01*
X36381Y101319D01*
X36713Y101815D01*
X36829Y102400D01*
Y125984D01*
X68898D01*
Y148418D01*
X69313Y148696D01*
X71724Y147698D01*
D02*
G37*
G36*
X25500Y79500D02*
Y74500D01*
X19500D01*
Y79500D01*
X20500Y80500D01*
X24500D01*
X25500Y79500D01*
D02*
G37*
G36*
X21500Y67000D02*
X15500D01*
Y69500D01*
X19000D01*
X19500Y70000D01*
Y72000D01*
X21500D01*
Y67000D01*
D02*
G37*
D10*
X80035Y148014D02*
G03*
X86586Y138184I49449J25862D01*
G01*
X75800Y150600D02*
G03*
X73627Y151500I-2173J-2173D01*
G01*
X65800Y153900D02*
G03*
X68200Y151500I2400J0D01*
G01*
X80035Y148014D02*
G03*
X74100Y154000I-9985J-3964D01*
G01*
X80995Y150498D02*
G03*
X91767Y137406I25502J10003D01*
G01*
X-147900Y-60800D02*
G03*
X-152004Y-59100I-4104J-4104D01*
G01*
X-145800Y-65870D02*
G03*
X-147900Y-60800I-7170J0D01*
G01*
X-145800Y-74758D02*
G03*
X-142871Y-81829I10000J0D01*
G01*
X-84029Y-140671D02*
G03*
X-76958Y-143600I7071J7071D01*
G01*
X-20958Y-133800D02*
G03*
X-23000Y-134646I0J-2888D01*
G01*
X-147900Y-65600D02*
G03*
X-151800Y-61700I-3900J0D01*
G01*
X-147900Y-75458D02*
G03*
X-144971Y-82529I10000J0D01*
G01*
X-84329Y-143171D02*
G03*
X-77258Y-146100I7071J7071D01*
G01*
X-83829Y-145971D02*
G03*
X-76758Y-148900I7071J7071D01*
G01*
X18702Y-149599D02*
G03*
X-6007Y-140494I-17084J-8282D01*
G01*
X128271Y-98729D02*
G03*
X131200Y-91658I-7071J7071D01*
G01*
X125571Y-98329D02*
G03*
X128500Y-91258I-7071J7071D01*
G01*
X129631Y-87369D02*
G03*
X128500Y-90100I2731J-2731D01*
G01*
X149903Y-71240D02*
G03*
X142832Y-74168I0J-10000D01*
G01*
X134137Y-64163D02*
G03*
X129000Y-69300I0J-5137D01*
G01*
X123671Y-97229D02*
G03*
X126600Y-90158I-7071J7071D01*
G01*
X136600Y-59800D02*
G03*
X126600Y-69800I0J-10000D01*
G01*
X159516Y-61601D02*
G03*
X155169Y-59800I-4347J-4347D01*
G01*
X104816Y-135361D02*
G03*
X106400Y-131538I-3823J3823D01*
G01*
X101900Y-125007D02*
G03*
X99846Y-122953I-2054J0D01*
G01*
X103900Y-123800D02*
G03*
X101100Y-121000I-2800J0D01*
G01*
X100971Y-135860D02*
G03*
X103900Y-128789I-7071J7071D01*
G01*
X98971Y-135329D02*
G03*
X101900Y-128258I-7071J7071D01*
G01*
X66215Y-147400D02*
G03*
X59532Y-150168I0J-9451D01*
G01*
D02*
G03*
X58300Y-153142I2974J-2974D01*
G01*
X65100Y-149600D02*
G03*
X63222Y-150378I0J-2656D01*
G01*
X63000Y-150600D02*
G03*
X62010Y-152990I2390J-2390D01*
G01*
X83036Y-139051D02*
G03*
X87500Y-132800I-2886J6780D01*
G01*
X79115Y-135730D02*
G03*
X83579Y-129479I-2886J6780D01*
G01*
X81083Y-137251D02*
G03*
X85547Y-131000I-2886J6780D01*
G01*
X18205Y-144585D02*
G03*
X-6700Y-138700I-16105J-12515D01*
G01*
X68500Y160500D02*
G03*
X63427Y157044I-808J-4265D01*
G01*
X78482Y155020D02*
G03*
X68500Y160500I-13232J-12270D01*
G01*
X80995Y150498D02*
G03*
X78482Y155020I-14764J-5248D01*
G01*
X-67600Y158300D02*
G03*
X-71352Y159527I-2600J-1600D01*
G01*
X-73200Y158700D02*
G03*
X-74427Y154948I1600J-2600D01*
G01*
X-74875Y147055D02*
G03*
X-74427Y154948I-6113J4306D01*
G01*
X-81500Y136500D02*
X-68500Y149500D01*
X-84500Y136500D02*
X-81500D01*
X-88200Y132800D02*
X-84500Y136500D01*
X-63427Y156951D02*
X-62000Y153500D01*
Y152500D02*
Y153500D01*
X-80000Y134500D02*
X-62000Y152500D01*
X-83500Y134500D02*
X-80000D01*
X-85791Y132209D02*
X-83500Y134500D01*
X-85791Y125472D02*
Y132209D01*
X-88200Y127300D02*
Y132800D01*
X-83823Y130177D02*
X-81500Y132500D01*
X-78500D02*
X-59500Y151500D01*
X-81500Y132500D02*
X-78500D01*
X-60681Y159580D02*
X-59500Y156500D01*
Y151500D02*
Y156500D01*
X-83823Y125472D02*
Y130177D01*
X-70319Y155587D02*
X-68500Y151500D01*
Y149500D02*
Y151500D01*
X-84000Y38000D02*
X-60500Y14500D01*
X-84000Y38000D02*
Y88500D01*
X-81500Y39500D02*
Y86500D01*
Y39500D02*
X-58000Y16000D01*
Y14000D02*
Y16000D01*
Y14000D02*
X-55500Y11500D01*
X-79000Y40000D02*
X-55500Y16500D01*
X-79000Y40000D02*
Y88500D01*
X67000Y33500D02*
X70500D01*
X66000Y30000D02*
X110300D01*
X70500Y33500D02*
X82500Y45500D01*
Y90500D01*
X86500Y94500D01*
X67000Y36500D02*
X70500D01*
X67000Y39500D02*
X70500D01*
Y36500D02*
X80500Y46500D01*
Y93000D01*
X84000Y96500D01*
X70500Y39500D02*
X78500Y47500D01*
Y95500D01*
X81500Y98500D01*
X-40000Y68500D02*
X-36843D01*
X-36570Y68773D01*
X67300Y27300D02*
X111100D01*
X111000Y23800D02*
X146600Y59400D01*
X67300Y23800D02*
X111000D01*
X75800Y150600D02*
X78603Y146200D01*
X68200Y151500D02*
X73627D01*
X65800Y153900D02*
X66519Y155763D01*
X78603Y146200D02*
X82600Y139300D01*
X70319Y155680D02*
X74100Y154000D01*
X59500Y155000D02*
Y157000D01*
X60681Y159673D01*
X-144500Y75500D02*
X-97500Y122500D01*
X-92000D01*
X-144500Y69000D02*
Y75500D01*
X-142000Y67500D02*
Y75000D01*
X-96500Y120500D01*
X-92000D01*
X-140000Y71000D02*
Y74000D01*
X-95500Y118500D01*
X-92000D01*
X-140000Y66000D02*
Y71000D01*
X-143500Y62500D02*
X-140000Y66000D01*
X-143500D02*
X-142000Y67500D01*
X-149000Y66000D02*
X-143500D01*
X-156384Y69599D02*
X-149000Y66000D01*
X-149500Y62500D02*
X-143500D01*
X-156467Y65799D02*
X-149500Y62500D01*
X-155000Y57500D02*
X-150000D01*
X-160376Y59961D02*
X-155000Y57500D01*
X-61300Y28600D02*
Y87400D01*
Y28600D02*
X-49900Y17200D01*
Y4600D02*
Y17200D01*
Y4600D02*
X-48300Y3000D01*
X-45800D01*
X-59100Y29100D02*
Y84400D01*
Y29100D02*
X-48000Y18000D01*
Y6600D02*
Y18000D01*
Y6600D02*
X-47000Y5600D01*
X-43900D01*
X-56900Y87400D02*
X-56800Y87300D01*
Y29500D02*
Y87300D01*
Y29500D02*
X-45800Y18500D01*
Y8400D02*
Y18500D01*
X111100Y27300D02*
X145600Y61800D01*
X110300Y30000D02*
X144300Y64000D01*
X150400Y62300D02*
X154400D01*
X148700Y64000D02*
X150400Y62300D01*
X144300Y64000D02*
X148700D01*
X150500Y59500D02*
X156800D01*
X148200Y61800D02*
X150500Y59500D01*
X145600Y61800D02*
X148200D01*
X156800Y59500D02*
X159520Y60680D01*
X154400Y62300D02*
X156891Y63426D01*
X146600Y66600D02*
X155527Y70319D01*
X-160173Y-61481D02*
X-159299Y-61822D01*
X-153100Y-59100D02*
X-152004D01*
X-145800Y-74758D02*
Y-65870D01*
X-142871Y-81829D02*
X-84029Y-140671D01*
X-44900Y-143600D02*
X-23000Y-134646D01*
X-20958Y-133800D02*
X-17700D01*
X-159299Y-61822D02*
X-153100Y-59100D01*
X-76958Y-143600D02*
X-44900D01*
X-157544Y-64227D02*
X-151800Y-61700D01*
X-147900Y-75458D02*
Y-65600D01*
X-144971Y-82529D02*
X-84329Y-143171D01*
X-77258Y-146100D02*
X-44100D01*
X-20900Y-136400D01*
X-153900Y-75900D02*
X-83829Y-145971D01*
X-156180Y-71120D02*
X-153900Y-75900D01*
X-76758Y-148900D02*
X-43000D01*
X-17700Y-138900D01*
X79115Y-135730D02*
X79115Y-135730D01*
X29500Y-149300D02*
X79115Y-135730D01*
X83036Y-139051D02*
X83036Y-139051D01*
X36300Y-153800D02*
X83036Y-139051D01*
X79000Y-110900D02*
X80528Y-112428D01*
Y-115079D02*
Y-112428D01*
X89484Y-132784D02*
X90100Y-133400D01*
X89484Y-132784D02*
Y-127972D01*
X109200Y-114700D02*
X125571Y-98329D01*
X92200Y-131600D02*
X93000D01*
X91453Y-130853D02*
X92200Y-131600D01*
X91453Y-130853D02*
Y-127972D01*
X95472D02*
X96400Y-128900D01*
X93421Y-127972D02*
X95472D01*
X106000Y-117600D02*
X110500D01*
X112800Y-115300D01*
Y-114200D01*
X105075Y-111900D02*
X109000D01*
X112800Y-114200D02*
X128271Y-98729D01*
X131200Y-91658D02*
Y-89900D01*
Y-81500D02*
Y-77700D01*
X128500Y-91258D02*
Y-90100D01*
X129631Y-87369D02*
X142832Y-74168D01*
X129000Y-75500D02*
X131200Y-77700D01*
X149903Y-71240D02*
X155524D01*
X129000Y-75500D02*
Y-69300D01*
X134137Y-64163D02*
X147394D01*
X155607Y-67439D01*
X109000Y-111900D02*
X123671Y-97229D01*
X126600Y-90158D02*
Y-69800D01*
X136600Y-59800D02*
X155169D01*
X106400Y-131538D02*
Y-120800D01*
X101900Y-128258D02*
Y-125007D01*
X96472Y-122953D02*
X99846D01*
X96472Y-121000D02*
X101100D01*
X103900Y-128789D02*
Y-123800D01*
X96508Y-140323D02*
X100971Y-135860D01*
X96472Y-121000D02*
Y-120984D01*
X96100Y-138200D02*
X98971Y-135329D01*
X98121Y-124921D02*
X99100Y-125900D01*
X98759Y-141418D02*
X104816Y-135361D01*
X70319Y-156624D02*
X98759Y-141418D01*
X96472Y-124921D02*
X98121D01*
X96472Y-122953D02*
Y-122900D01*
X82200Y-145200D02*
X96100Y-138200D01*
X66215Y-147400D02*
X77700D01*
X58300Y-154300D02*
Y-153142D01*
X77700Y-147400D02*
X82200Y-145200D01*
X58300Y-154300D02*
X60681Y-160616D01*
X65100Y-149600D02*
X78667D01*
X96508Y-140323D01*
X63000Y-150600D02*
X63222Y-150378D01*
X62010Y-154357D02*
Y-152990D01*
Y-154357D02*
X63427Y-157987D01*
X83036Y-139051D02*
X83036D01*
X37091Y-149724D02*
X81108Y-137338D01*
X83579Y-129479D02*
Y-127972D01*
X87516Y-132800D02*
Y-127972D01*
X85547Y-131000D02*
Y-127972D01*
X-32000Y-150800D02*
X-6007Y-140494D01*
X-40500Y-154100D02*
X-32000Y-150800D01*
X-42000Y-152500D02*
X-6700Y-138700D01*
X-55500Y-163100D02*
X7300D01*
X22700Y-150900D01*
X-60681Y-161020D02*
X-55500Y-163100D01*
X-54000Y-152500D02*
X-42000D01*
X-54613Y-153113D02*
X-54000Y-152500D01*
X-56913Y-153113D02*
X-54613D01*
X-52600Y-154100D02*
X-40500D01*
X-53500Y-155000D02*
X-52600Y-154100D01*
X-57500Y-155000D02*
X-53500D01*
X-60900Y-151400D02*
X-56913Y-153113D01*
X-69000Y-153800D02*
X-60900Y-151400D01*
X-70319Y-157027D02*
X-69000Y-153800D01*
X-61000Y-153500D02*
X-57500Y-155000D01*
X-65500D02*
X-61000Y-153500D01*
X-66518Y-157110D02*
X-65500Y-155000D01*
X-55012Y-158419D02*
X-51500Y-157000D01*
X-60853Y-155941D02*
X-55012Y-158419D01*
X-62704Y-156689D02*
X-60853Y-155941D01*
X-57098Y137402D02*
X-57000Y137500D01*
X-57098Y131500D02*
Y137402D01*
X-60043Y122500D02*
X-56657D01*
X-60043Y127000D02*
X-56968D01*
X-59500Y131500D02*
X-57098D01*
X-60043Y130957D02*
X-59500Y131500D01*
X-60043Y129957D02*
Y130957D01*
X-46500Y131500D02*
X-45500Y130500D01*
X-51902Y131500D02*
X-46500D01*
X-63427Y-158391D02*
X-62704Y-156689D01*
X-36570Y68773D02*
X-31070D01*
Y74088D02*
Y84068D01*
X152721Y-62500D02*
X156887Y-64347D01*
X64974Y-152400D02*
X66518Y-156707D01*
X-156263Y-67319D02*
X-151500Y-65195D01*
X-157747Y62707D02*
X-153500Y60827D01*
X151710Y64971D02*
X155610Y66518D01*
X6787Y32287D02*
Y34639D01*
X22500Y87532D02*
Y91728D01*
X22468Y87500D02*
X22500Y87532D01*
X22468Y83303D02*
Y87500D01*
Y83303D02*
X22500Y83272D01*
X14012Y91728D02*
X22500D01*
X13910Y91830D02*
X14012Y91728D01*
X-67600Y158300D02*
X-66519Y155670D01*
X-73200Y158700D02*
X-71352Y159527D01*
X-71352Y159527D01*
X170000Y14000D02*
Y15999D01*
Y15000D01*
X164002D01*
X165002Y14000D01*
Y18998D02*
X164002Y19998D01*
Y21997D01*
X165002Y22997D01*
X169000D01*
X170000Y21997D01*
Y19998D01*
X169000Y18998D01*
X165002D01*
X170000Y28995D02*
Y24996D01*
X166001Y28995D01*
X165002D01*
X164002Y27995D01*
Y25996D01*
X165002Y24996D01*
X170000Y34993D02*
Y30994D01*
X166001Y34993D01*
X165002D01*
X164002Y33994D01*
Y31994D01*
X165002Y30994D01*
X160000Y14000D02*
X154002D01*
Y16999D01*
X155002Y17999D01*
X157001D01*
X158001Y16999D01*
Y14000D01*
Y15999D02*
X160000Y17999D01*
Y22997D02*
Y20998D01*
X159000Y19998D01*
X157001D01*
X156001Y20998D01*
Y22997D01*
X157001Y23997D01*
X158001D01*
Y19998D01*
X156001Y25996D02*
X160000Y27995D01*
X156001Y29995D01*
X155002Y37992D02*
X154002Y38992D01*
Y40991D01*
X155002Y41991D01*
X159000D01*
X160000Y40991D01*
Y38992D01*
X159000Y37992D01*
X155002D01*
D11*
X12862Y-136234D02*
G03*
X4207Y-134559I-8798J-22264D01*
G01*
X21963Y-167356D02*
G03*
X12862Y-136234I-14313J12706D01*
G01*
X-12200Y-134500D02*
X-12141Y-134559D01*
X4207D01*
D12*
X-49000Y-115000D02*
G03*
X-51400Y-115000I-1200J0D01*
G01*
Y-117400D02*
G03*
X-49000Y-115000I0J2400D01*
G01*
X-54200Y-114600D02*
G03*
X-51400Y-117400I2800J0D01*
G01*
X-51000Y-111400D02*
G03*
X-54200Y-114600I0J-3200D01*
G01*
X-47400Y-115000D02*
G03*
X-51000Y-111400I-3600J0D01*
G01*
X-51400Y-119000D02*
G03*
X-47400Y-115000I0J4000D01*
G01*
X-55800Y-114600D02*
G03*
X-51400Y-119000I4400J0D01*
G01*
X-51000Y-109800D02*
G03*
X-55800Y-114600I0J-4800D01*
G01*
X-45800Y-115000D02*
G03*
X-51000Y-109800I-5200J0D01*
G01*
X-51400Y-120600D02*
G03*
X-45800Y-115000I0J5600D01*
G01*
X-57400Y-114600D02*
G03*
X-51400Y-120600I6000J0D01*
G01*
X-51000Y-108200D02*
G03*
X-57400Y-114600I0J-6400D01*
G01*
X-44200Y-115000D02*
G03*
X-51000Y-108200I-6800J0D01*
G01*
X-51400Y-122200D02*
G03*
X-44200Y-115000I0J7200D01*
G01*
X-59000Y-114600D02*
G03*
X-51400Y-122200I7600J0D01*
G01*
X-51000Y-106600D02*
G03*
X-59000Y-114600I0J-8000D01*
G01*
X-42600Y-115000D02*
G03*
X-51000Y-106600I-8400J0D01*
G01*
X-51400Y-123800D02*
G03*
X-42600Y-115000I0J8800D01*
G01*
X-60600Y-114600D02*
G03*
X-51400Y-123800I9200J0D01*
G01*
X-51000Y-105000D02*
G03*
X-60600Y-114600I0J-9600D01*
G01*
X-41000Y-115000D02*
G03*
X-51000Y-105000I-10000J0D01*
G01*
X-51400Y-125400D02*
G03*
X-41000Y-115000I0J10400D01*
G01*
X-62200Y-114600D02*
G03*
X-51400Y-125400I10800J0D01*
G01*
X-51000Y-103400D02*
G03*
X-62200Y-114600I0J-11200D01*
G01*
X-39400Y-115000D02*
G03*
X-51000Y-103400I-11600J0D01*
G01*
X-51400Y-127000D02*
G03*
X-39400Y-115000I0J12000D01*
G01*
X-63800Y-114600D02*
G03*
X-51400Y-127000I12400J0D01*
G01*
X-51000Y-101800D02*
G03*
X-63800Y-114600I0J-12800D01*
G01*
X-37800Y-115000D02*
G03*
X-51000Y-101800I-13200J0D01*
G01*
X-51400Y-128600D02*
G03*
X-37800Y-115000I0J13600D01*
G01*
X-65400Y-114600D02*
G03*
X-51400Y-128600I14000J0D01*
G01*
X-51000Y-100200D02*
G03*
X-65400Y-114600I0J-14400D01*
G01*
X-36200Y-115000D02*
G03*
X-51000Y-100200I-14800J0D01*
G01*
X-51400Y-130200D02*
G03*
X-36200Y-115000I0J15200D01*
G01*
X-67000Y-114600D02*
G03*
X-51400Y-130200I15600J0D01*
G01*
X-51000Y-98600D02*
G03*
X-67000Y-114600I0J-16000D01*
G01*
X-34600Y-115000D02*
G03*
X-51000Y-98600I-16400J0D01*
G01*
X-51400Y-131800D02*
G03*
X-34600Y-115000I0J16800D01*
G01*
X-68600Y-114600D02*
G03*
X-51400Y-131800I17200J0D01*
G01*
X-51000Y-97000D02*
G03*
X-68600Y-114600I0J-17600D01*
G01*
X-33000Y-115000D02*
G03*
X-51000Y-97000I-18000J0D01*
G01*
X-51400Y-133400D02*
G03*
X-33000Y-115000I0J18400D01*
G01*
X-70200Y-114600D02*
G03*
X-51400Y-133400I18800J0D01*
G01*
X-51000Y-95400D02*
G03*
X-70200Y-114600I0J-19200D01*
G01*
X-31400Y-115000D02*
G03*
X-51000Y-95400I-19600J0D01*
G01*
X-51400Y-135000D02*
G03*
X-31400Y-115000I0J20000D01*
G01*
X-71800Y-114600D02*
G03*
X-51400Y-135000I20400J0D01*
G01*
X-51000Y-93800D02*
G03*
X-71800Y-114600I0J-20800D01*
G01*
X-29800Y-115000D02*
G03*
X-51000Y-93800I-21200J0D01*
G01*
X-51400Y-136600D02*
G03*
X-29800Y-115000I0J21600D01*
G01*
X-73400Y-114600D02*
G03*
X-51400Y-136600I22000J0D01*
G01*
X-51000Y-92200D02*
G03*
X-73400Y-114600I0J-22400D01*
G01*
X-28200Y-115000D02*
G03*
X-51000Y-92200I-22800J0D01*
G01*
X-51400Y-138200D02*
G03*
X-28200Y-115000I0J23200D01*
G01*
X-75000Y-114600D02*
G03*
X-51400Y-138200I23600J0D01*
G01*
X-51000Y-90600D02*
G03*
X-75000Y-114600I0J-24000D01*
G01*
X-26600Y-115000D02*
G03*
X-51000Y-90600I-24400J0D01*
G01*
X-51400Y-139800D02*
G03*
X-26600Y-115000I0J24800D01*
G01*
X-76600Y-114600D02*
G03*
X-51400Y-139800I25200J0D01*
G01*
X-51000Y-89000D02*
G03*
X-76600Y-114600I0J-25600D01*
G01*
X17516Y55213D02*
G03*
X17700Y55657I-445J445D01*
G01*
X19300D02*
G03*
X19484Y55213I629J0D01*
G01*
X-25000Y-115000D02*
G03*
X-51000Y-89000I-26000J0D01*
G01*
X-88842Y94646D02*
X-85097Y90900D01*
X-87500Y95000D02*
X-84600Y92100D01*
X-83000Y95800D02*
X-80500Y93300D01*
X-56497D01*
X-84600Y92100D02*
X-56994D01*
X-85097Y90900D02*
X-57491D01*
X-54600Y88009D01*
X-56994Y92100D02*
X-53400Y88506D01*
X-56497Y93300D02*
X-52200Y89003D01*
X-56000Y94500D02*
X-51000Y89500D01*
X-77000Y94500D02*
X-56000D01*
X-79000Y96500D02*
X-77000Y94500D01*
X-54600Y30406D02*
Y88009D01*
X-53400Y30903D02*
Y88506D01*
X-52200Y31400D02*
Y89003D01*
X-51000Y31897D02*
Y89500D01*
X-167000Y-51000D02*
X-152500Y-47000D01*
X25500Y15157D02*
Y20157D01*
X25842Y20500D01*
X25390Y20953D02*
X25842Y20500D01*
X25390Y20953D02*
Y31787D01*
X43300Y-1900D02*
X48000Y2800D01*
X15400Y-1900D02*
X43300D01*
X9000Y4500D02*
X15400Y-1900D01*
X48000Y2800D02*
Y41500D01*
X49500Y1200D02*
Y42000D01*
X44800Y-3500D02*
X49500Y1200D01*
X12500Y-3500D02*
X44800D01*
X6500Y2500D02*
X12500Y-3500D01*
X-21500Y11500D02*
X-19000D01*
X2000Y-7500D02*
Y23000D01*
Y-7500D02*
X6500Y-12000D01*
X-491Y28600D02*
X17116D01*
X-3600Y-13900D02*
Y25491D01*
X6Y27400D02*
X18597D01*
X-2400Y-13100D02*
Y24994D01*
X503Y26200D02*
X19605D01*
X-1200Y-10800D02*
Y24497D01*
X-3600Y25491D02*
X-491Y28600D01*
X-2400Y24994D02*
X6Y27400D01*
X-1200Y24497D02*
X503Y26200D01*
X1000Y25000D02*
X21000D01*
X0Y24000D02*
X1000Y25000D01*
X0Y-8100D02*
Y24000D01*
X-3600Y-13900D02*
X2000Y-19500D01*
X-2400Y-13100D02*
X3300Y-18800D01*
X-1200Y-10800D02*
X0Y-12000D01*
Y-8100D02*
X4500Y-12600D01*
X-41000Y57248D02*
Y66000D01*
X-43500Y68500D02*
X-41000Y66000D01*
X-43500Y68500D02*
Y84500D01*
X-37000Y91000D02*
X-16000D01*
X-43500Y84500D02*
X-37000Y91000D01*
X-43248Y55000D02*
X-41000Y57248D01*
X-43500Y57000D02*
Y64000D01*
X-44500Y56000D02*
X-43500Y57000D01*
X-44500Y34500D02*
Y56000D01*
Y34500D02*
X-21500Y11500D01*
X48039Y52360D02*
X56000Y44400D01*
Y23000D02*
Y44400D01*
X47109Y50392D02*
X54000Y43500D01*
Y-4000D02*
Y43500D01*
Y-4000D02*
X57600Y-7600D01*
X47078Y48423D02*
X52500Y43000D01*
Y-44200D02*
Y43000D01*
X47900Y-48800D02*
X52500Y-44200D01*
X44000Y-12000D02*
X49800Y-17800D01*
Y-41703D02*
Y-17800D01*
X39403Y-52100D02*
X49800Y-41703D01*
X47047Y46453D02*
X51000Y42500D01*
Y-42200D02*
Y42500D01*
X39800Y-53400D02*
X51000Y-42200D01*
X47016Y44484D02*
X49500Y42000D01*
X46984Y42516D02*
X48000Y41500D01*
X17116Y28600D02*
X17516Y29000D01*
X18597Y27400D02*
X19484Y28287D01*
X19605Y26200D02*
X21453Y28047D01*
X21000Y25000D02*
X23421Y27421D01*
X-6500Y-15000D02*
Y25975D01*
X-10500Y29974D02*
X-6500Y25975D01*
X-9000Y24500D02*
Y26500D01*
X-11700Y29200D02*
X-9000Y26500D01*
X-11700Y29200D02*
Y38797D01*
X-10500Y29974D02*
Y38300D01*
X-7460Y28657D02*
X-5300Y26497D01*
X-7486Y28657D02*
X-7460D01*
X-9300Y30472D02*
X-7486Y28657D01*
X-9300Y30472D02*
Y37700D01*
X-5300Y-14200D02*
Y26497D01*
X-43248Y35248D02*
Y55000D01*
X30213Y42516D02*
X46984D01*
X30213Y44484D02*
X47016D01*
X30213Y46453D02*
X47047D01*
X30213Y48423D02*
X47078D01*
X30213Y50392D02*
X47109D01*
X39500Y36500D02*
X42500Y33500D01*
X43000Y16342D02*
Y28500D01*
X36860Y34639D02*
X43000Y28500D01*
X30213Y34639D02*
X36860D01*
X-3500Y69500D02*
X-3342Y69342D01*
X-3500Y69500D02*
Y73000D01*
X-11700Y38797D02*
X-9197Y41300D01*
X-4000D01*
X-2785Y42516D01*
X6787D01*
X41658Y15000D02*
X43000Y16342D01*
X-7000Y45000D02*
X2884D01*
X-8000Y44000D02*
X-7000Y45000D01*
X-8546Y46453D02*
X6787D01*
X-13000Y42000D02*
X-8546Y46453D01*
X-13000Y33500D02*
Y42000D01*
X-9200Y47800D02*
X3400D01*
X-14800Y42200D02*
X-9200Y47800D01*
X-16300Y42200D02*
X-14800D01*
X-4000Y-31100D02*
Y-28000D01*
X-1000Y-25000D01*
Y-20500D01*
X-6500Y-15000D02*
X-1000Y-20500D01*
X-2000Y-30100D02*
Y-27803D01*
X800Y-25003D01*
Y-20300D01*
X-5300Y-14200D02*
X800Y-20300D01*
X2000Y-25500D02*
Y-19500D01*
X0Y-27500D02*
X2000Y-25500D01*
X0Y-43000D02*
Y-27500D01*
X1200Y-39500D02*
Y-28000D01*
X3300Y-25900D01*
Y-18800D01*
X2400Y-32100D02*
Y-28500D01*
X4500Y-26400D02*
Y-12600D01*
X2400Y-28500D02*
X4500Y-26400D01*
X79100Y-89600D02*
Y-36600D01*
X68500Y-26000D02*
X79100Y-36600D01*
X65400Y-27000D02*
X77900Y-39500D01*
Y-90600D02*
Y-39500D01*
X4400Y-32000D02*
Y-30100D01*
Y-32000D02*
X10984Y-38584D01*
Y-43756D02*
Y-38584D01*
X9016Y-43756D02*
Y-38716D01*
X2400Y-32100D02*
X9016Y-38716D01*
X-1700Y-43400D02*
Y-33400D01*
X-4000Y-31100D02*
X-1700Y-33400D01*
X-2300Y-44000D02*
X-1700Y-43400D01*
X75600Y-132400D02*
X76500Y-133300D01*
X75600Y-132400D02*
Y-125700D01*
X76400Y-124900D01*
Y-122700D01*
X78116Y-120984D01*
X80528D01*
X78000Y-127100D02*
Y-123700D01*
X78747Y-122953D01*
X80528D01*
X79200Y-130600D02*
X80528Y-129272D01*
Y-124921D01*
X77500Y-115600D02*
Y-113600D01*
Y-115600D02*
X78947Y-117047D01*
X80528D01*
X85300Y-95800D02*
X97202D01*
X100000Y-98598D01*
Y-102500D02*
Y-98598D01*
Y-116000D02*
Y-102500D01*
X98953Y-117047D02*
X100000Y-116000D01*
X96472Y-117047D02*
X98953D01*
X84300Y-97000D02*
X93000D01*
X96000Y-100000D01*
Y-107000D02*
Y-100000D01*
Y-110500D02*
Y-107000D01*
Y-110500D02*
X96472Y-110972D01*
Y-115079D02*
Y-110972D01*
X61500Y-136500D02*
X70500D01*
X71469Y-135531D01*
Y-133500D01*
X-14500Y-1464D02*
Y2500D01*
X-26500Y-13465D02*
X-14500Y-1464D01*
X-54600Y30406D02*
X-41700Y17506D01*
Y-26497D02*
Y17506D01*
X-88842Y109000D02*
Y112579D01*
X-100500Y109000D02*
X-88842D01*
X-103000Y106500D02*
X-100500Y109000D01*
X-88842Y94646D02*
Y109000D01*
X-53400Y30903D02*
X-40500Y18003D01*
Y-26000D02*
Y18003D01*
X-87047Y114547D02*
X-86500Y114000D01*
X-88842Y114547D02*
X-87047D01*
X-86500Y112000D02*
Y114000D01*
X-92953Y114547D02*
X-88842D01*
X-95000Y112500D02*
X-92953Y114547D01*
X-87500Y111000D02*
X-86500Y112000D01*
X-87500Y95000D02*
Y111000D01*
X-12300Y-962D02*
Y4500D01*
X-25300Y-13961D02*
X-12300Y-962D01*
X-26500Y-22500D02*
Y-13465D01*
X-25300Y-22997D02*
Y-13961D01*
X-32503Y-30200D02*
X-25300Y-22997D01*
X-33000Y-29000D02*
X-26500Y-22500D01*
X-37997Y-30200D02*
X-32503D01*
X-37500Y-29000D02*
X-33000D01*
X-41700Y-26497D02*
X-37997Y-30200D01*
X-40500Y-26000D02*
X-37500Y-29000D01*
X-21700Y-16200D02*
X-19400Y-13900D01*
X-21700Y-24997D02*
Y-16200D01*
X-20500Y-24500D02*
X-8000Y-37000D01*
X-20500Y-24500D02*
Y-18000D01*
X-14500Y-12000D01*
X6500D02*
X44000D01*
X-51630Y99500D02*
Y101630D01*
X-55000Y105000D02*
X-51630Y101630D01*
X-72898Y114547D02*
X-72850Y114500D01*
X-70000D01*
X-65500Y110000D01*
X-64000D01*
X-62000Y108000D01*
X-58000D01*
X-55000Y105000D01*
X-64500Y108500D02*
X-61000Y105000D01*
X-66500Y108500D02*
X-64500D01*
X-70579Y112579D02*
X-66500Y108500D01*
X-72898Y112579D02*
X-70579D01*
X-79000Y96500D02*
Y100630D01*
X-51000Y31897D02*
X-38100Y18997D01*
Y-21400D02*
Y18997D01*
Y-21400D02*
X-35500Y-24000D01*
X-36500Y-27000D02*
X-34000D01*
X-39300Y-24200D02*
X-36500Y-27000D01*
X-39300Y-24200D02*
Y18500D01*
X79100Y-89600D02*
X85300Y-95800D01*
X90500Y-107370D02*
X91000Y-106870D01*
X90500Y-109000D02*
Y-107370D01*
X89484Y-110016D02*
X90500Y-109000D01*
X89484Y-112028D02*
Y-110016D01*
X87000Y-106870D02*
X87516Y-107386D01*
Y-112028D02*
Y-107386D01*
X54740Y-117500D02*
X60500D01*
X54740Y-111500D02*
X60500D01*
X80870Y-106870D02*
X83000D01*
X80000Y-106000D02*
X80870Y-106870D01*
X80000Y-106000D02*
Y-102000D01*
X77000Y-99000D02*
X80000Y-102000D01*
X68000Y-99000D02*
X77000D01*
X65500Y-101500D02*
X68000Y-99000D01*
X83000Y-106870D02*
X83579Y-107449D01*
Y-112028D02*
Y-107449D01*
X39400Y65100D02*
X40157Y65857D01*
X32800Y65100D02*
X39400D01*
X25390Y57690D02*
X32800Y65100D01*
X31000Y79500D02*
X34653Y83153D01*
X31000Y65400D02*
Y79500D01*
X-14828Y58500D02*
X-11500Y55172D01*
X-23000Y62000D02*
X-19500Y58500D01*
X-14828D01*
X-23000Y62000D02*
Y75000D01*
X-20500Y77500D01*
X-16640D01*
X-16070Y78070D01*
Y84068D01*
X-11500Y52500D02*
Y55172D01*
X2500Y36000D02*
X3108Y36608D01*
X1000Y34500D02*
X2500Y36000D01*
X30213Y52360D02*
X48039D01*
X19744Y-50546D02*
X37653D01*
X39400Y-48800D01*
X2946Y40547D02*
X6787D01*
X-10500Y38300D02*
X-8700Y40100D01*
X2500D01*
X2946Y40547D01*
X3400Y44484D02*
X6787D01*
X2884Y45000D02*
X3400Y44484D01*
X27000Y-52100D02*
X39403D01*
X26585Y-52516D02*
X27000Y-52100D01*
X19744Y-52516D02*
X26585D01*
X19744Y-54484D02*
X27716D01*
X28800Y-53400D01*
X39800D01*
X-9300Y37700D02*
X-8422Y38577D01*
X6603Y44300D02*
X6787Y44484D01*
X-16070Y91070D02*
X-16000Y91000D01*
X-16070Y91070D02*
Y98792D01*
X-43248Y35248D02*
X-39500Y31500D01*
X-15000D01*
X-13000Y33500D01*
X-5342Y91000D02*
X-5000Y90658D01*
X-16000Y91000D02*
X-5342D01*
X25390Y55213D02*
Y57690D01*
X7000Y55213D02*
X9642D01*
X-3342Y69342D02*
Y69500D01*
X-8422Y38577D02*
X6787D01*
X5500Y-38500D02*
X7047Y-40047D01*
Y-43756D02*
Y-40047D01*
X19484Y28287D02*
Y31787D01*
X1200Y-39500D02*
X2200Y-40500D01*
X4500D01*
X5079Y-41079D01*
Y-43756D02*
Y-41079D01*
X756Y-43756D02*
X3110D01*
X0Y-43000D02*
X756Y-43756D01*
X3108Y36608D02*
X6787D01*
X-1343Y34500D02*
X1000D01*
X23600Y62631D02*
X24500Y63532D01*
X-1843Y53500D02*
X-703Y52360D01*
X19700Y62731D02*
X20500Y63532D01*
X17700Y55657D02*
Y59300D01*
X19700Y61300D01*
Y62731D01*
X19300Y55657D02*
Y59200D01*
X23600Y61400D02*
Y62631D01*
X19300Y59200D02*
X20800Y60700D01*
X22900D01*
X23600Y61400D01*
X23421Y55213D02*
Y57821D01*
X40157Y65857D02*
Y68500D01*
Y73480D01*
X41346Y74669D01*
X23421Y57821D02*
X31000Y65400D01*
X34343Y83465D02*
Y89500D01*
Y83465D02*
X34653Y83153D01*
X4092Y50392D02*
X6787D01*
X2700Y49000D02*
X4092Y50392D01*
X-13300Y49000D02*
X2700D01*
X-16800D02*
X-13300D01*
X-16673Y39201D02*
Y41827D01*
X-16300Y42200D01*
X3400Y47800D02*
X4022Y48423D01*
X6787D01*
X30321Y36500D02*
X39500D01*
X30213Y36608D02*
X30321Y36500D01*
X41658Y10000D02*
Y15000D01*
X23421Y27421D02*
Y31787D01*
X31000Y-61500D02*
Y-56500D01*
X19791D02*
X31343D01*
X19744Y-56454D02*
X19791Y-56500D01*
X19744Y-60391D02*
X23392D01*
X25000Y-62000D01*
Y-65500D02*
Y-62000D01*
X28000Y-71842D02*
Y-68500D01*
X25000Y-65500D02*
X28000Y-68500D01*
X37500Y-93343D02*
Y-84000D01*
X32500Y-79000D02*
X37500Y-84000D01*
X32500Y-79000D02*
Y-73000D01*
X31343Y-71842D02*
X32500Y-73000D01*
X28000Y-71842D02*
X31343D01*
X37500Y-105000D02*
Y-98658D01*
X31500Y-105000D02*
X37500D01*
X29142Y-102642D02*
X31500Y-105000D01*
X23000Y-102642D02*
X29142D01*
X-25000Y-115000D02*
X-18500D01*
X-5000Y-45000D02*
Y-40157D01*
Y-45000D02*
X-3391Y-46608D01*
X256D01*
X-4422Y-48577D02*
X256D01*
X-8000Y-45000D02*
X-4422Y-48577D01*
X-8000Y-45000D02*
Y-37000D01*
X-4484Y-52516D02*
X256D01*
X-9200Y-47800D02*
X-4484Y-52516D01*
X-9200Y-47800D02*
Y-37497D01*
X-21700Y-24997D02*
X-9200Y-37497D01*
X30259Y40500D02*
X33500D01*
X30213Y40547D02*
X30259Y40500D01*
X17516Y29000D02*
Y31787D01*
X21453Y28047D02*
Y31787D01*
X-14500Y-12000D02*
X-14000D01*
X77900Y-90600D02*
X84300Y-97000D01*
X-52200Y31400D02*
X-39300Y18500D01*
X-83000Y95800D02*
Y100630D01*
X-81854Y107846D02*
Y109528D01*
X-83000Y106700D02*
X-81854Y107846D01*
X-83000Y104370D02*
Y106700D01*
X-79886Y107686D02*
Y109528D01*
Y107686D02*
X-79000Y106800D01*
Y104370D02*
Y106800D01*
X-75949Y107649D02*
Y109528D01*
Y107649D02*
X-75000Y106700D01*
Y104370D02*
Y106700D01*
Y104370D02*
X-67130D01*
X-67000Y104500D01*
X-63370Y99500D02*
Y102630D01*
X-61000Y105000D01*
D13*
X9000Y21158D02*
D03*
Y15843D02*
D03*
X14000Y21158D02*
D03*
Y15843D02*
D03*
X31000Y15157D02*
D03*
Y9843D02*
D03*
X12000Y65342D02*
D03*
Y70657D02*
D03*
X16500Y-87657D02*
D03*
Y-82342D02*
D03*
X7500Y-115157D02*
D03*
Y-109843D02*
D03*
X28000Y-71842D02*
D03*
Y-77157D02*
D03*
X6000Y-76842D02*
D03*
Y-82157D02*
D03*
X-12500Y-115157D02*
D03*
Y-109843D02*
D03*
X11000Y-76842D02*
D03*
Y-82157D02*
D03*
X2500Y-115157D02*
D03*
Y-109843D02*
D03*
X13500Y-97000D02*
D03*
Y-102315D02*
D03*
X-7500Y-115157D02*
D03*
Y-109843D02*
D03*
X37500Y-98658D02*
D03*
Y-93343D02*
D03*
X-40000Y-75343D02*
D03*
Y-80658D02*
D03*
X-36570Y68773D02*
D03*
Y74088D02*
D03*
X25500Y-30658D02*
D03*
Y-25343D02*
D03*
X2500Y65342D02*
D03*
Y70657D02*
D03*
X7200Y65342D02*
D03*
Y70657D02*
D03*
X20500Y-25343D02*
D03*
Y-30658D02*
D03*
X500Y-71842D02*
D03*
Y-77157D02*
D03*
X-4500Y-71842D02*
D03*
Y-77157D02*
D03*
D14*
X-1343Y34500D02*
D03*
X-6657D02*
D03*
X42658Y60000D02*
D03*
X37343D02*
D03*
X-3342Y58500D02*
D03*
X-8658D02*
D03*
X-1843Y53500D02*
D03*
X-7158D02*
D03*
X73158Y-122500D02*
D03*
X67843D02*
D03*
X-24158Y-50000D02*
D03*
X-18843D02*
D03*
X-7343Y-130000D02*
D03*
X-12657D02*
D03*
X34843Y68500D02*
D03*
X40157D02*
D03*
X-7343Y-125000D02*
D03*
X-12657D02*
D03*
X39658Y89500D02*
D03*
X34343D02*
D03*
X5843Y-87500D02*
D03*
X11157D02*
D03*
X21843Y-88000D02*
D03*
X27158D02*
D03*
X78543Y106953D02*
D03*
X83858D02*
D03*
X21843Y-82500D02*
D03*
X27158D02*
D03*
X94858Y106953D02*
D03*
X89543D02*
D03*
X-21342Y-32000D02*
D03*
X-26658D02*
D03*
X-28657Y35000D02*
D03*
X-23343D02*
D03*
X-28657Y56000D02*
D03*
X-23343D02*
D03*
X-56657Y122500D02*
D03*
X-51342D02*
D03*
X37242Y55200D02*
D03*
X42557D02*
D03*
X-14842Y-75500D02*
D03*
X-20157D02*
D03*
X-14842Y-70500D02*
D03*
X-20157D02*
D03*
X-14842Y-65500D02*
D03*
X-20157D02*
D03*
X-14842Y-60500D02*
D03*
X-20157D02*
D03*
X-14842Y-55500D02*
D03*
X-20157D02*
D03*
X31000Y-61500D02*
D03*
X36315D02*
D03*
X31000Y-56500D02*
D03*
X36315D02*
D03*
D15*
X110000Y117842D02*
D03*
Y123158D02*
D03*
Y107343D02*
D03*
Y112657D02*
D03*
X-5000Y-40157D02*
D03*
Y-34843D02*
D03*
X-2500Y-115157D02*
D03*
Y-109843D02*
D03*
X-30000Y-80658D02*
D03*
Y-75343D02*
D03*
X25500Y15157D02*
D03*
Y9843D02*
D03*
X-31070Y74088D02*
D03*
Y68773D02*
D03*
X-5000Y85343D02*
D03*
Y90658D02*
D03*
X-35000Y-75343D02*
D03*
Y-80658D02*
D03*
D16*
X66518Y-156707D02*
D03*
X63427Y-157987D02*
D03*
X-66519Y155670D02*
D03*
X-63427Y156951D02*
D03*
D17*
X60681Y-160616D02*
D03*
X70319Y-156624D02*
D03*
X-60681Y159580D02*
D03*
X-70319Y155587D02*
D03*
D18*
X155610Y66518D02*
D03*
X156891Y63426D02*
D03*
X-156263Y-67319D02*
D03*
X-157544Y-64227D02*
D03*
D19*
X159520Y60680D02*
D03*
X155527Y70319D02*
D03*
X-160173Y-61481D02*
D03*
X-156180Y-71120D02*
D03*
D20*
X-63427Y-158391D02*
D03*
X-66518Y-157110D02*
D03*
X63427Y157044D02*
D03*
X66519Y155763D02*
D03*
D21*
X-70319Y-157027D02*
D03*
X-60681Y-161020D02*
D03*
X70319Y155680D02*
D03*
X60681Y159673D02*
D03*
D22*
X-157747Y62707D02*
D03*
X-156467Y65799D02*
D03*
X156887Y-64347D02*
D03*
X155607Y-67439D02*
D03*
D23*
X-156384Y69599D02*
D03*
X-160376Y59961D02*
D03*
X155524Y-71240D02*
D03*
X159516Y-61601D02*
D03*
D24*
X-56968Y127000D02*
D03*
X-53031D02*
D03*
X71469Y-133500D02*
D03*
X67532D02*
D03*
X18531Y87500D02*
D03*
X22468D02*
D03*
D25*
X-57098Y131500D02*
D03*
X-51902D02*
D03*
X72697Y-128902D02*
D03*
X67500D02*
D03*
D26*
X-60043Y116500D02*
D03*
X-52957D02*
D03*
X73543Y-116500D02*
D03*
X66457D02*
D03*
D27*
X87000Y-106870D02*
D03*
Y-103130D02*
D03*
X91000Y-106870D02*
D03*
Y-103130D02*
D03*
X83000Y-106870D02*
D03*
Y-103130D02*
D03*
X-75000Y104370D02*
D03*
Y100630D02*
D03*
X-79000Y104370D02*
D03*
Y100630D02*
D03*
X-83000Y104370D02*
D03*
Y100630D02*
D03*
D28*
X47900Y-132500D02*
D03*
X73500Y-105000D02*
D03*
X107000D02*
D03*
X39500Y-24500D02*
D03*
Y-71500D02*
D03*
X-35500Y-46500D02*
D03*
X-135000Y-70000D02*
D03*
X135000D02*
D03*
Y70000D02*
D03*
X-17000Y71500D02*
D03*
X37000Y26000D02*
D03*
X-17000Y22000D02*
D03*
X-66000Y132500D02*
D03*
X-95870D02*
D03*
Y102500D02*
D03*
D29*
X54740Y-111500D02*
D03*
X51000D02*
D03*
X54740Y-117500D02*
D03*
X51000D02*
D03*
X-51630Y99500D02*
D03*
X-55370D02*
D03*
X-63370D02*
D03*
X-59630D02*
D03*
D30*
X88500Y-120000D02*
D03*
X-80870Y117500D02*
D03*
D31*
X80528Y-124921D02*
D03*
Y-122953D02*
D03*
Y-120984D02*
D03*
Y-119016D02*
D03*
Y-117047D02*
D03*
Y-115079D02*
D03*
X96472D02*
D03*
Y-117047D02*
D03*
Y-119016D02*
D03*
Y-120984D02*
D03*
Y-122953D02*
D03*
Y-124921D02*
D03*
X-72898Y122421D02*
D03*
Y120453D02*
D03*
Y118484D02*
D03*
Y116516D02*
D03*
Y114547D02*
D03*
Y112579D02*
D03*
X-88842D02*
D03*
Y114547D02*
D03*
Y116516D02*
D03*
Y118484D02*
D03*
Y120453D02*
D03*
Y122421D02*
D03*
D32*
X83579Y-112028D02*
D03*
X85547D02*
D03*
X87516D02*
D03*
X89484D02*
D03*
X91453D02*
D03*
X93421D02*
D03*
Y-127972D02*
D03*
X91453D02*
D03*
X89484D02*
D03*
X87516D02*
D03*
X85547D02*
D03*
X83579D02*
D03*
X-75949Y109528D02*
D03*
X-77917D02*
D03*
X-79886D02*
D03*
X-81854D02*
D03*
X-83823D02*
D03*
X-85791D02*
D03*
Y125472D02*
D03*
X-83823D02*
D03*
X-81854D02*
D03*
X-79886D02*
D03*
X-77917D02*
D03*
X-75949D02*
D03*
D33*
X3658Y-125000D02*
D03*
X-1657D02*
D03*
X31343Y-44000D02*
D03*
X36658D02*
D03*
X41658Y10000D02*
D03*
X36342D02*
D03*
Y15000D02*
D03*
X41658D02*
D03*
X-3342Y69500D02*
D03*
X-8658D02*
D03*
X31157Y20500D02*
D03*
X25842D02*
D03*
D34*
X-17900Y-102300D02*
D03*
X-18200Y-117300D02*
D03*
D35*
X28500Y71969D02*
D03*
Y68032D02*
D03*
X24500Y63532D02*
D03*
Y67469D02*
D03*
X20500Y63532D02*
D03*
Y67469D02*
D03*
Y71531D02*
D03*
Y75468D02*
D03*
D36*
X24500Y71728D02*
D03*
Y75272D02*
D03*
X22500Y91728D02*
D03*
Y95272D02*
D03*
Y79728D02*
D03*
Y83272D02*
D03*
X16500Y71772D02*
D03*
Y68228D02*
D03*
D37*
X41346Y74669D02*
D03*
X34653D02*
D03*
X41346Y83331D02*
D03*
X34653D02*
D03*
D38*
X3110Y-63244D02*
D03*
X9642Y31787D02*
D03*
D39*
X5079Y-63244D02*
D03*
X7047D02*
D03*
X9016D02*
D03*
X10984D02*
D03*
X12953D02*
D03*
X14921D02*
D03*
X16890D02*
D03*
Y-43756D02*
D03*
X14921D02*
D03*
X12953D02*
D03*
X10984D02*
D03*
X9016D02*
D03*
X7047D02*
D03*
X5079D02*
D03*
X3110D02*
D03*
X11610Y31787D02*
D03*
X13579D02*
D03*
X15547D02*
D03*
X17516D02*
D03*
X19484D02*
D03*
X21453D02*
D03*
X23421D02*
D03*
X25390D02*
D03*
X27358D02*
D03*
Y55213D02*
D03*
X25390D02*
D03*
X23421D02*
D03*
X21453D02*
D03*
X19484D02*
D03*
X17516D02*
D03*
X15547D02*
D03*
X13579D02*
D03*
X11610D02*
D03*
X9642D02*
D03*
D40*
X19744Y-60391D02*
D03*
Y-58422D02*
D03*
Y-56454D02*
D03*
Y-54484D02*
D03*
Y-52516D02*
D03*
Y-50546D02*
D03*
Y-48577D02*
D03*
Y-46608D02*
D03*
X256D02*
D03*
Y-48577D02*
D03*
Y-50546D02*
D03*
Y-52516D02*
D03*
Y-54484D02*
D03*
Y-56454D02*
D03*
Y-58422D02*
D03*
Y-60391D02*
D03*
X30213Y34639D02*
D03*
Y36608D02*
D03*
Y38577D02*
D03*
Y40547D02*
D03*
Y42516D02*
D03*
Y44484D02*
D03*
Y46453D02*
D03*
Y48423D02*
D03*
Y50392D02*
D03*
Y52360D02*
D03*
X6787D02*
D03*
Y50392D02*
D03*
Y48423D02*
D03*
Y46453D02*
D03*
Y44484D02*
D03*
Y42516D02*
D03*
Y40547D02*
D03*
Y38577D02*
D03*
Y36608D02*
D03*
Y34639D02*
D03*
D41*
X10000Y-53500D02*
D03*
D42*
X91500Y116260D02*
D03*
Y120000D02*
D03*
Y123740D02*
D03*
X83035D02*
D03*
Y116260D02*
D03*
D43*
X-25331Y-44346D02*
D03*
Y-37653D02*
D03*
X-16669Y-44346D02*
D03*
Y-37653D02*
D03*
D44*
X-38327Y51799D02*
D03*
Y39201D02*
D03*
X-16673Y51799D02*
D03*
Y39201D02*
D03*
D45*
X-11070Y84068D02*
D03*
X-16070D02*
D03*
X-31070Y98792D02*
D03*
X-26070D02*
D03*
X-21070D02*
D03*
X-16070D02*
D03*
X-31070Y84068D02*
D03*
X-26070D02*
D03*
X-21070D02*
D03*
X-11070Y98792D02*
D03*
D46*
X18500Y43500D02*
D03*
D47*
X-29550Y-88000D02*
D03*
X-18450D02*
D03*
D48*
X23000Y-102642D02*
D03*
Y-95358D02*
D03*
D49*
X13106Y-22500D02*
D03*
X-11106D02*
D03*
D50*
X29528Y159567D02*
D03*
Y131772D02*
D03*
D51*
X-69000Y53500D02*
Y83500D01*
X69000Y53500D02*
Y83500D01*
X-119000Y-84500D02*
Y-54500D01*
Y-84500D02*
X-69000D01*
Y-54500D01*
X69000Y-84500D02*
Y-54500D01*
X119000Y-84500D02*
Y-54500D01*
X-119000Y53500D02*
Y83500D01*
X119000Y53500D02*
Y83500D01*
D52*
X-72130Y100630D02*
X-67900Y96400D01*
X-59630Y97370D02*
Y99500D01*
X-60600Y96400D02*
X-59630Y97370D01*
X-67900Y96400D02*
X-60600D01*
X-55000Y96500D02*
Y99130D01*
X-55370Y99500D02*
X-55000Y99130D01*
X-11070Y105930D02*
X-11000Y106000D01*
X-11070Y98792D02*
Y105930D01*
X36185Y15157D02*
X36342Y15000D01*
X31000Y15157D02*
X36185D01*
X31000D02*
X31157Y15315D01*
Y20500D01*
Y23343D01*
X7158Y23000D02*
X9000Y21158D01*
X5000Y23000D02*
X7158D01*
X-11106Y-22500D02*
X-5213D01*
X-17100Y-22400D02*
X-11206D01*
X-11106Y-22500D01*
X-53031Y127000D02*
X-46000D01*
X-51342Y122500D02*
X-46000D01*
X-750Y-91250D02*
X9500D01*
X-3000Y-89000D02*
X-750Y-91250D01*
X72697Y-130803D02*
Y-128902D01*
X71469Y-132032D02*
X72697Y-130803D01*
X71469Y-133500D02*
Y-132032D01*
X72697Y-126803D02*
X73158Y-126342D01*
X72697Y-128902D02*
Y-126803D01*
X73158Y-126342D02*
Y-122500D01*
X73543Y-117957D02*
Y-116500D01*
Y-122114D02*
Y-117957D01*
X73158Y-122500D02*
X73543Y-122114D01*
X67500Y-126500D02*
Y-122843D01*
X67843Y-122500D01*
X73543Y-117957D02*
X73587Y-118000D01*
X76500D01*
X77516Y-119016D01*
X78016D01*
X67500Y-128902D02*
X67532Y-133500D01*
X34653Y74669D02*
Y75653D01*
X41346Y82346D02*
Y83331D01*
X42557Y55200D02*
X46300D01*
X-11070Y84068D02*
X-9795Y85343D01*
X-5000D01*
X-35000Y-75343D02*
X-30000D01*
X-40000D02*
X-35000D01*
X-6657Y30658D02*
Y34500D01*
X9000Y15843D02*
X14000D01*
X85000Y120000D02*
X91500D01*
X98500D01*
X86701Y106953D02*
Y110701D01*
X83858Y106953D02*
X86701D01*
X89543D01*
X-3342Y58500D02*
X800D01*
X-387Y62600D02*
X813Y61400D01*
X2500Y61600D02*
Y65342D01*
X7200Y61700D02*
Y65342D01*
Y61700D02*
X7300Y61600D01*
X12000Y61800D02*
Y65342D01*
Y61800D02*
X12100Y61700D01*
X-1843Y53500D02*
X1000D01*
X29913Y55213D02*
X29925Y55200D01*
X34653Y74669D02*
X34843Y74480D01*
X40000Y84677D02*
X41346Y83331D01*
X39658Y89500D02*
X40000Y89157D01*
X-28657Y35000D02*
Y56000D01*
X-8200Y54542D02*
X-7158Y53500D01*
X-8200Y54542D02*
Y58043D01*
X-8658Y58500D02*
X-8200Y58043D01*
X-12000Y58500D02*
X-8658D01*
Y69500D02*
Y73443D01*
X-36570Y74088D02*
Y77430D01*
X-11106Y-19106D02*
X-11000Y-19000D01*
X-29847Y-37653D02*
X-25331D01*
X-18843Y-50000D02*
X-18500Y-49657D01*
Y-46177D01*
X-16669Y-44346D01*
X-18843Y-50000D02*
X-15500D01*
X-40000Y-80658D02*
X-35000D01*
X-40000Y-84000D02*
Y-80658D01*
X-4500Y-77157D02*
X500D01*
X-2500Y-109843D02*
X2500D01*
X7500D01*
X51000Y-117500D02*
Y-111500D01*
X83000Y-103130D02*
Y-99788D01*
X67500Y-128902D02*
Y-126500D01*
X25500Y-25343D02*
Y-22000D01*
X101657Y123158D02*
X110000D01*
X98500Y120000D02*
X101657Y123158D01*
X27358Y27142D02*
Y28142D01*
Y27142D02*
X31157Y23343D01*
X9000Y21158D02*
X14000D01*
X5158Y30658D02*
X6787Y32287D01*
X36315Y-61500D02*
Y-56500D01*
X36658Y-44000D02*
Y-40157D01*
X36315Y-61500D02*
X39658D01*
X10984Y-70984D02*
Y-66984D01*
Y-70984D02*
X11000Y-71000D01*
Y-76842D02*
Y-71000D01*
X6000Y-76842D02*
X11000D01*
X6000Y-82157D02*
X11000D01*
X6000Y-87343D02*
Y-82157D01*
X5843Y-87500D02*
X6000Y-87343D01*
X5658Y-82500D02*
X6000Y-82157D01*
X3000Y-82500D02*
X5658D01*
X2500Y-83000D02*
X3000Y-82500D01*
X-3000Y-83000D02*
X2500D01*
X-4843Y-77500D02*
X-4500Y-77157D01*
X-8500Y-77500D02*
X-4843D01*
X27158Y-88000D02*
Y-82500D01*
Y-78000D02*
X28000Y-77157D01*
X27158Y-82500D02*
Y-78000D01*
Y-88000D02*
X31000D01*
X16657Y-82500D02*
X21843D01*
X16500Y-82342D02*
X16657Y-82500D01*
X16500Y-82342D02*
X17000Y-81842D01*
Y-71000D01*
X16890Y-70890D02*
Y-66390D01*
Y-70890D02*
X17000Y-71000D01*
X6815Y-102315D02*
X13500D01*
X0Y-95500D02*
X6815Y-102315D01*
X-6000Y-95500D02*
X0D01*
X-13500Y-88000D02*
X-6000Y-95500D01*
X-18450Y-88000D02*
X-13500D01*
X-29550D02*
Y-81107D01*
X-30000Y-80658D02*
X-29550Y-81107D01*
X-14842Y-60500D02*
Y-55500D01*
X-14734Y-60391D02*
X-3892D01*
X-14842Y-60500D02*
X-14734Y-60391D01*
X-26658Y-36327D02*
Y-32000D01*
Y-36327D02*
X-25331Y-37653D01*
X-11106Y-22500D02*
X-8500Y-25106D01*
Y-31343D02*
Y-25106D01*
Y-31343D02*
X-5000Y-34843D01*
X-59630Y99500D02*
X-55370D01*
X-75000Y100630D02*
X-72130D01*
D53*
X17800Y-400D02*
X42400D01*
X10400Y7000D02*
X17800Y-400D01*
X6500Y7000D02*
X10400D01*
X46500Y3700D02*
Y39900D01*
X42400Y-400D02*
X46500Y3700D01*
X-88200Y124800D02*
Y127300D01*
Y124800D02*
X-86400Y123000D01*
X-82500D01*
X-81854Y123646D01*
Y125472D01*
X-81000Y129500D02*
X-79886Y128386D01*
Y125472D02*
Y128386D01*
X-77000Y129500D02*
X-76000D01*
X-77917Y128583D02*
X-77000Y129500D01*
X-77917Y125472D02*
Y128583D01*
X-73528Y125472D02*
X-73500Y125500D01*
X-75949Y125472D02*
X-73528D01*
X67000Y42500D02*
X69500D01*
X76500Y49500D02*
Y98000D01*
X69500Y42500D02*
X76500Y49500D01*
Y98000D02*
X81185Y102685D01*
X91000D01*
X30213Y38577D02*
X43922D01*
X44000Y38500D01*
X45400Y41000D02*
X46500Y39900D01*
X35000Y41000D02*
X45400D01*
X27571Y32000D02*
X30000D01*
X27358Y31787D02*
X27571Y32000D01*
X-92000Y122500D02*
X-91921Y122421D01*
X-88842D01*
X-92000Y120500D02*
X-91953Y120453D01*
X-88842D01*
X-92000Y118500D02*
X-91984Y118484D01*
X-88842D01*
X-68500Y120000D02*
X-66500D01*
X-70016Y118484D02*
X-68500Y120000D01*
X-72898Y118484D02*
X-70016D01*
X-68200Y122900D02*
X-64100D01*
X-70647Y120453D02*
X-68200Y122900D01*
X-72898Y120453D02*
X-70647D01*
X-67700Y125700D02*
X-65200D01*
X-71000Y122400D02*
X-67700Y125700D01*
X-72876Y122400D02*
X-71000D01*
X79115Y-135730D02*
X79115D01*
X-9500Y0D02*
Y7000D01*
X-23500Y-14000D02*
X-9500Y0D01*
X-23500Y-24000D02*
Y-14000D01*
X-42000Y-42500D02*
X-23500Y-24000D01*
X-72898Y116516D02*
X-72882Y116500D01*
X-67000D01*
X78016Y-119016D02*
X80528D01*
X4289Y-68211D02*
X5079Y-67421D01*
X3500Y-69000D02*
X4289Y-68211D01*
X7047Y-69953D02*
Y-66500D01*
X5158Y-71842D02*
X7047Y-69953D01*
X500Y-71842D02*
X5158D01*
X-10000Y-74000D02*
Y-71000D01*
X-11500Y-75500D02*
X-10000Y-74000D01*
X-14842Y-75500D02*
X-11500D01*
X5079Y-67421D02*
Y-63244D01*
X-8000Y-69000D02*
X3500D01*
X-10000Y-71000D02*
X-8000Y-69000D01*
X-14842Y-70500D02*
Y-65500D01*
X-11000D01*
X-8744Y-63244D01*
X3110D01*
X7047Y-66500D02*
Y-63244D01*
Y-66500D02*
X8500D01*
X9016Y-65984D01*
Y-63244D01*
X-4500Y-71842D02*
X500D01*
X-42000Y-52500D02*
Y-42500D01*
Y-52500D02*
X-40000Y-54500D01*
X34500Y40500D02*
X35000Y41000D01*
X33500Y40500D02*
X34500D01*
X-5000Y85343D02*
X-4843D01*
X-500Y81000D01*
Y62600D02*
Y81000D01*
X9600Y31300D02*
Y31746D01*
X9642Y31787D01*
X110000Y112657D02*
Y117842D01*
X3000Y52360D02*
X6787D01*
X11610Y55213D02*
Y58290D01*
X13579Y55213D02*
Y58221D01*
X15547Y55213D02*
Y58453D01*
X21453Y55213D02*
Y58453D01*
X21500Y58500D01*
X27358Y55213D02*
X29913D01*
X-23343Y56000D02*
X-22242Y54900D01*
X-16673Y51799D02*
Y54827D01*
X-16600Y54900D01*
X-22242D02*
X-16600D01*
X-16673Y36473D02*
Y39201D01*
Y36473D02*
X-16500Y36300D01*
X-23343Y36158D02*
X-23200Y36300D01*
X-23343Y35000D02*
Y36158D01*
X-23200Y36300D02*
X-16500D01*
X-16673Y49127D02*
Y51799D01*
X-16800Y49000D02*
X-16673Y49127D01*
X14921Y-43756D02*
Y-40579D01*
X12953Y-43756D02*
Y-41047D01*
X31098Y-43756D02*
X31343Y-44000D01*
X27546Y-43756D02*
X31098D01*
X19744Y-46608D02*
X23392D01*
X16890Y-43756D02*
X20000D01*
X-81854Y116516D02*
X-80870Y117500D01*
X-88842Y116516D02*
X-81854D01*
X88500Y-120000D02*
X89484Y-119016D01*
X96472D01*
X19722Y-58400D02*
X19744Y-58422D01*
X16683D02*
X19744D01*
X16706Y-48600D02*
X19767D01*
X233Y-54462D02*
X3294D01*
X14899Y-63267D02*
Y-60206D01*
X12930Y-63267D02*
Y-60206D01*
X15525Y31765D02*
Y34826D01*
X13579Y31787D02*
Y34848D01*
X11588Y31765D02*
Y34826D01*
X9619Y31765D02*
Y34119D01*
X10200Y34700D01*
X27358Y28142D02*
Y31787D01*
X10984Y-66984D02*
Y-63244D01*
X16890Y-66390D02*
Y-63244D01*
X-3892Y-60391D02*
X256D01*
X-7078Y-58422D02*
X256D01*
X-12673Y-52827D02*
X-7078Y-58422D01*
X-21331Y-52827D02*
X-12673D01*
X-24158Y-50000D02*
X-21331Y-52827D01*
X-24158Y-50000D02*
Y-45520D01*
X-25331Y-44346D02*
X-24158Y-45520D01*
X-16669Y-37653D02*
X-14823Y-39500D01*
X-13000D01*
X-12000Y-40500D01*
Y-51000D02*
Y-40500D01*
Y-51000D02*
X-6547Y-56454D01*
X256D01*
X-21342Y-32658D02*
Y-32000D01*
Y-32658D02*
X-21000Y-33000D01*
X-19000D01*
X-18000Y-34000D01*
X-17653Y-37653D02*
X-16669D01*
X-18000Y-37307D02*
X-17653Y-37653D01*
X-18000Y-37307D02*
Y-34000D01*
X-40000Y-75343D02*
Y-54500D01*
X106158Y117842D02*
X110000D01*
D54*
X62000Y-13500D02*
Y45000D01*
X55500Y51500D02*
X62000Y45000D01*
X55500Y51500D02*
Y60000D01*
X-48000Y86000D02*
X-45500Y88500D01*
X-48000Y33500D02*
Y86000D01*
Y33500D02*
X-35000Y20500D01*
Y-18000D02*
Y20500D01*
X-47000Y113500D02*
X-45500Y112000D01*
Y88500D02*
Y112000D01*
X20500Y-15000D02*
X42500D01*
X20500Y-20000D02*
Y-15000D01*
X60000Y-19000D02*
Y-15500D01*
Y-103000D02*
Y-19000D01*
X42500Y-15000D02*
X46500Y-19000D01*
X47000Y60000D02*
X55500D01*
X60500Y65000D01*
Y87000D01*
X72000Y98500D01*
Y105500D01*
X60000Y-15500D02*
X62000Y-13500D01*
X60000Y-103000D02*
X66457Y-109457D01*
Y-111043D02*
Y-109457D01*
D55*
X-60043Y122500D02*
Y127000D01*
Y116500D02*
Y122500D01*
Y127000D02*
Y129957D01*
D56*
X-67000Y116500D02*
X-60043D01*
D57*
X-52957D02*
X-50000D01*
X-47000Y113500D01*
X20500Y-25343D02*
Y-20000D01*
X42658Y60000D02*
X47000D01*
X66457Y-116500D02*
Y-111043D01*
D58*
X146001Y-9334D02*
Y-12000D01*
X148001D01*
Y-10667D01*
Y-12000D01*
X150000D01*
Y-8001D02*
Y-6668D01*
Y-7335D01*
X146001D01*
Y-8001D01*
X150000Y-4003D02*
Y-2670D01*
X149334Y-2003D01*
X148001D01*
X147334Y-2670D01*
Y-4003D01*
X148001Y-4669D01*
X149334D01*
X150000Y-4003D01*
Y-670D02*
X147334D01*
Y-4D01*
X148001Y663D01*
X150000D01*
X148001D01*
X147334Y1329D01*
X148001Y1995D01*
X150000D01*
Y3328D02*
Y4661D01*
Y3995D01*
X147334D01*
Y3328D01*
X150000Y7327D02*
Y8660D01*
X149334Y9326D01*
X148001D01*
X147334Y8660D01*
Y7327D01*
X148001Y6661D01*
X149334D01*
X150000Y7327D01*
X146001Y14658D02*
X150000D01*
Y16657D01*
X149334Y17324D01*
X148667D01*
X148001Y16657D01*
Y14658D01*
Y16657D01*
X147334Y17324D01*
X146668D01*
X146001Y16657D01*
Y14658D01*
Y18657D02*
X150000D01*
Y21323D01*
X146001Y25321D02*
Y22656D01*
X150000D01*
Y25321D01*
X148001Y22656D02*
Y23988D01*
Y26654D02*
Y29320D01*
X150000Y30653D02*
X146001D01*
X150000Y33319D01*
X146001D01*
Y37317D02*
Y34652D01*
X148001D01*
Y35985D01*
Y34652D01*
X150000D01*
X146668Y41316D02*
X146001Y40650D01*
Y39317D01*
X146668Y38650D01*
X149334D01*
X150000Y39317D01*
Y40650D01*
X149334Y41316D01*
D59*
X-22500Y-65750D02*
D03*
D60*
X-8850Y-107000D02*
D03*
D61*
X-12700Y-135650D02*
D03*
D62*
X96000Y-107000D02*
D03*
X60500Y-111500D02*
D03*
X-57000Y137500D02*
D03*
X65500Y-101500D02*
D03*
X61500Y-136500D02*
D03*
X100000Y-102500D02*
D03*
X60500Y-117500D02*
D03*
X11000Y-71000D02*
D03*
X25000Y-65500D02*
D03*
X-3000Y-89000D02*
D03*
X13910Y91830D02*
D03*
X37500Y-105000D02*
D03*
X-3000Y-83000D02*
D03*
X17000Y-71000D02*
D03*
X-95000Y112500D02*
D03*
X-67000Y104500D02*
D03*
X42500Y33500D02*
D03*
X-55000Y105000D02*
D03*
X-61000D02*
D03*
X-103000Y106500D02*
D03*
D63*
X14650Y-58150D02*
D03*
X11550D02*
D03*
X8450D02*
D03*
X5350D02*
D03*
X14650Y-55050D02*
D03*
X11550D02*
D03*
X8450D02*
D03*
X5350D02*
D03*
X14650Y-51950D02*
D03*
X11550D02*
D03*
X8450D02*
D03*
X5350D02*
D03*
X14650Y-48850D02*
D03*
X11550D02*
D03*
X8450D02*
D03*
X5350D02*
D03*
X24700Y37300D02*
D03*
X21600D02*
D03*
X18500D02*
D03*
X15400D02*
D03*
X12300D02*
D03*
X24700Y40400D02*
D03*
X21600D02*
D03*
X18500D02*
D03*
X15400D02*
D03*
X12300D02*
D03*
X24700Y43500D02*
D03*
X21600D02*
D03*
X18500D02*
D03*
X15400D02*
D03*
X12300D02*
D03*
X24700Y46600D02*
D03*
X21600D02*
D03*
X18500D02*
D03*
X15400D02*
D03*
X12300D02*
D03*
X24700Y49700D02*
D03*
X21600D02*
D03*
X18500D02*
D03*
X15400D02*
D03*
X12300D02*
D03*
D64*
X-119000Y-84500D02*
D03*
Y-54500D02*
D03*
X69000Y-84500D02*
D03*
Y-54500D02*
D03*
X119000Y83500D02*
D03*
Y53500D02*
D03*
X-69000Y83500D02*
D03*
Y53500D02*
D03*
D65*
X-119000Y83500D02*
D03*
Y53500D02*
D03*
X69000Y83500D02*
D03*
Y53500D02*
D03*
X119000Y-84500D02*
D03*
Y-54500D02*
D03*
X-69000Y-84500D02*
D03*
Y-54500D02*
D03*
D66*
X21000Y17000D02*
D03*
X18000Y19500D02*
D03*
X21000Y21500D02*
D03*
X2500Y60500D02*
D03*
X-2500Y-105000D02*
D03*
X-12500D02*
D03*
X-7500D02*
D03*
X-13500Y160500D02*
D03*
Y145000D02*
D03*
Y150500D02*
D03*
Y155500D02*
D03*
X-12500Y123000D02*
D03*
X-7000D02*
D03*
X-1500D02*
D03*
X-13500Y128500D02*
D03*
Y134000D02*
D03*
Y139500D02*
D03*
X15000Y123000D02*
D03*
X9500D02*
D03*
X4000D02*
D03*
X20500Y114000D02*
D03*
Y118500D02*
D03*
Y123000D02*
D03*
X4000Y114000D02*
D03*
X9500D02*
D03*
X15000D02*
D03*
X-1500D02*
D03*
X-7000D02*
D03*
X-12500D02*
D03*
X-29000D02*
D03*
X-23500D02*
D03*
X-18000D02*
D03*
X-34500D02*
D03*
X-40000D02*
D03*
X-45500Y136000D02*
D03*
Y130500D02*
D03*
Y125000D02*
D03*
Y119500D02*
D03*
Y152500D02*
D03*
Y147000D02*
D03*
Y141500D02*
D03*
X38500Y123000D02*
D03*
Y118500D02*
D03*
Y114000D02*
D03*
X43000D02*
D03*
X59500D02*
D03*
X54000D02*
D03*
X48500D02*
D03*
X65000D02*
D03*
X70500D02*
D03*
X76000D02*
D03*
X70500Y139500D02*
D03*
X76000D02*
D03*
X43000Y123000D02*
D03*
X59500D02*
D03*
X54000D02*
D03*
X48500D02*
D03*
X65000D02*
D03*
X70500D02*
D03*
X76000D02*
D03*
Y128500D02*
D03*
Y134000D02*
D03*
X70500D02*
D03*
Y128500D02*
D03*
X76000Y118500D02*
D03*
X85000Y120000D02*
D03*
X98500D02*
D03*
X86701Y110701D02*
D03*
X72000Y109000D02*
D03*
Y105500D02*
D03*
X-28600Y45400D02*
D03*
X74500Y143500D02*
D03*
X70500Y145000D02*
D03*
X91642Y137210D02*
D03*
D67*
X-84000Y88500D02*
D03*
X-81500Y86500D02*
D03*
X-79000Y88500D02*
D03*
X-81000Y129500D02*
D03*
X-76000D02*
D03*
X-73500Y125500D02*
D03*
X-55500Y16500D02*
D03*
X-60500Y14500D02*
D03*
X-55500Y11500D02*
D03*
X67000Y33500D02*
D03*
X66000Y30000D02*
D03*
X67000Y36500D02*
D03*
Y39500D02*
D03*
Y42500D02*
D03*
X86500Y94500D02*
D03*
X84000Y96500D02*
D03*
X-43500Y64000D02*
D03*
X-19000Y11500D02*
D03*
X56000Y23000D02*
D03*
X44000Y38500D02*
D03*
X-9000Y24500D02*
D03*
X81500Y98500D02*
D03*
X-5213Y-22500D02*
D03*
X68500Y-26000D02*
D03*
X-2300Y-44000D02*
D03*
X82600Y139300D02*
D03*
X86586Y138184D02*
D03*
X59500Y155000D02*
D03*
X-144500Y69000D02*
D03*
X-150000Y57500D02*
D03*
X-66500Y120000D02*
D03*
X-61300Y87400D02*
D03*
X-64100Y122900D02*
D03*
X-65200Y125700D02*
D03*
X-59100Y84400D02*
D03*
X-56900Y87400D02*
D03*
X-45800Y8400D02*
D03*
X-43900Y5600D02*
D03*
X-45800Y3000D02*
D03*
X67300Y27300D02*
D03*
Y23800D02*
D03*
X146600Y59400D02*
D03*
Y66600D02*
D03*
X-17700Y-133800D02*
D03*
X-20900Y-136400D02*
D03*
X-17700Y-138900D02*
D03*
X76500Y-133300D02*
D03*
X78000Y-127100D02*
D03*
X79200Y-130600D02*
D03*
X77500Y-113600D02*
D03*
X79000Y-110900D02*
D03*
X105075Y-111900D02*
D03*
X90100Y-133400D02*
D03*
X93000Y-131600D02*
D03*
X106000Y-117600D02*
D03*
X96400Y-128900D02*
D03*
X109200Y-114700D02*
D03*
X131200Y-89900D02*
D03*
Y-81500D02*
D03*
X106400Y-120800D02*
D03*
X99100Y-125900D02*
D03*
X37091Y-149724D02*
D03*
X36300Y-153800D02*
D03*
X18702Y-149599D02*
D03*
X18205Y-144585D02*
D03*
X29500Y-149300D02*
D03*
X22700Y-150900D02*
D03*
X6500Y2500D02*
D03*
X-14500D02*
D03*
X-12300Y4500D02*
D03*
X9000D02*
D03*
X-9500Y7000D02*
D03*
X6500D02*
D03*
X-35500Y-24000D02*
D03*
X4289Y-68211D02*
D03*
X24000Y-46000D02*
D03*
X29987Y58513D02*
D03*
X-11500Y52500D02*
D03*
X-8000Y44000D02*
D03*
X-40000Y68500D02*
D03*
X39400Y-48800D02*
D03*
X47900D02*
D03*
X57600Y-7600D02*
D03*
X-19400Y-13900D02*
D03*
X2000Y23000D02*
D03*
X-3500Y73000D02*
D03*
X7000Y55213D02*
D03*
X-167000Y-51000D02*
D03*
X-6657Y30658D02*
D03*
X-2000Y-30100D02*
D03*
X4400D02*
D03*
X5500Y-38500D02*
D03*
X-51400Y-115000D02*
D03*
X2500Y36000D02*
D03*
X21500Y58500D02*
D03*
X29913Y55213D02*
D03*
X14900Y61300D02*
D03*
Y59000D02*
D03*
X38000Y79000D02*
D03*
X46300Y55200D02*
D03*
X-12000Y58500D02*
D03*
X-8658Y73443D02*
D03*
X27500Y-43756D02*
D03*
X20000D02*
D03*
X28500Y75000D02*
D03*
X3000Y74000D02*
D03*
X7500D02*
D03*
X12000D02*
D03*
X15500Y87500D02*
D03*
X-36570Y77430D02*
D03*
X-17100Y-22400D02*
D03*
X-29847Y-37653D02*
D03*
X-15500Y-50000D02*
D03*
X-24000Y-55500D02*
D03*
Y-60500D02*
D03*
Y-65500D02*
D03*
Y-70500D02*
D03*
Y-75000D02*
D03*
X-40000Y-84000D02*
D03*
X-8500Y-77500D02*
D03*
X83000Y-99788D02*
D03*
X51000Y-114500D02*
D03*
X67500Y-126500D02*
D03*
X25500Y-22000D02*
D03*
X21963Y-167356D02*
D03*
X-152500Y-47000D02*
D03*
X30000Y32000D02*
D03*
X5000Y23000D02*
D03*
X5158Y30658D02*
D03*
X36658Y-40157D02*
D03*
X39658Y-61500D02*
D03*
X31000Y-88000D02*
D03*
X106158Y117842D02*
D03*
X91000Y102685D02*
D03*
X0Y-12000D02*
D03*
X-14000D02*
D03*
X151710Y64971D02*
D03*
X152721Y-62500D02*
D03*
X64974Y-152400D02*
D03*
X-51500Y-157000D02*
D03*
X-151500Y-65195D02*
D03*
X-153500Y60827D02*
D03*
X-74857Y147042D02*
D03*
X65400Y-27000D02*
D03*
X-34000D02*
D03*
X-55000Y96500D02*
D03*
D68*
X-35000Y-18000D02*
D03*
X20500Y-15000D02*
D03*
X60000Y-19000D02*
D03*
X46500D02*
D03*
D69*
X90862Y-117638D02*
D03*
Y-122362D02*
D03*
X86138Y-117638D02*
D03*
Y-122362D02*
D03*
X-83232Y115138D02*
D03*
Y119862D02*
D03*
X-78508Y115138D02*
D03*
Y119862D02*
D03*
M02*
