%FSLAX25Y25*%
%MOIN*%
G70*
G01*
G75*
G04 Layer_Color=16777215*
%ADD10C,0.01000*%
%ADD11C,0.00500*%
%ADD12C,0.00600*%
%ADD13R,0.03347X0.02953*%
%ADD14R,0.02953X0.03347*%
%ADD15R,0.03543X0.02953*%
G04:AMPARAMS|DCode=16|XSize=17.72mil|YSize=19.69mil|CornerRadius=0mil|HoleSize=0mil|Usage=FLASHONLY|Rotation=22.500|XOffset=0mil|YOffset=0mil|HoleType=Round|Shape=Rectangle|*
%AMROTATEDRECTD16*
4,1,4,-0.00442,-0.01248,-0.01195,0.00570,0.00442,0.01248,0.01195,-0.00570,-0.00442,-0.01248,0.0*
%
%ADD16ROTATEDRECTD16*%

G04:AMPARAMS|DCode=17|XSize=33.47mil|YSize=35.43mil|CornerRadius=0mil|HoleSize=0mil|Usage=FLASHONLY|Rotation=202.500|XOffset=0mil|YOffset=0mil|HoleType=Round|Shape=Rectangle|*
%AMROTATEDRECTD17*
4,1,4,0.00868,0.02277,0.02224,-0.00997,-0.00868,-0.02277,-0.02224,0.00997,0.00868,0.02277,0.0*
%
%ADD17ROTATEDRECTD17*%

G04:AMPARAMS|DCode=18|XSize=17.72mil|YSize=19.69mil|CornerRadius=0mil|HoleSize=0mil|Usage=FLASHONLY|Rotation=112.500|XOffset=0mil|YOffset=0mil|HoleType=Round|Shape=Rectangle|*
%AMROTATEDRECTD18*
4,1,4,0.01248,-0.00442,-0.00570,-0.01195,-0.01248,0.00442,0.00570,0.01195,0.01248,-0.00442,0.0*
%
%ADD18ROTATEDRECTD18*%

G04:AMPARAMS|DCode=19|XSize=33.47mil|YSize=35.43mil|CornerRadius=0mil|HoleSize=0mil|Usage=FLASHONLY|Rotation=292.500|XOffset=0mil|YOffset=0mil|HoleType=Round|Shape=Rectangle|*
%AMROTATEDRECTD19*
4,1,4,-0.02277,0.00868,0.00997,0.02224,0.02277,-0.00868,-0.00997,-0.02224,-0.02277,0.00868,0.0*
%
%ADD19ROTATEDRECTD19*%

G04:AMPARAMS|DCode=20|XSize=17.72mil|YSize=19.69mil|CornerRadius=0mil|HoleSize=0mil|Usage=FLASHONLY|Rotation=337.500|XOffset=0mil|YOffset=0mil|HoleType=Round|Shape=Rectangle|*
%AMROTATEDRECTD20*
4,1,4,-0.01195,-0.00570,-0.00442,0.01248,0.01195,0.00570,0.00442,-0.01248,-0.01195,-0.00570,0.0*
%
%ADD20ROTATEDRECTD20*%

G04:AMPARAMS|DCode=21|XSize=33.47mil|YSize=35.43mil|CornerRadius=0mil|HoleSize=0mil|Usage=FLASHONLY|Rotation=157.500|XOffset=0mil|YOffset=0mil|HoleType=Round|Shape=Rectangle|*
%AMROTATEDRECTD21*
4,1,4,0.02224,0.00997,0.00868,-0.02277,-0.02224,-0.00997,-0.00868,0.02277,0.02224,0.00997,0.0*
%
%ADD21ROTATEDRECTD21*%

G04:AMPARAMS|DCode=22|XSize=17.72mil|YSize=19.69mil|CornerRadius=0mil|HoleSize=0mil|Usage=FLASHONLY|Rotation=247.500|XOffset=0mil|YOffset=0mil|HoleType=Round|Shape=Rectangle|*
%AMROTATEDRECTD22*
4,1,4,-0.00570,0.01195,0.01248,0.00442,0.00570,-0.01195,-0.01248,-0.00442,-0.00570,0.01195,0.0*
%
%ADD22ROTATEDRECTD22*%

G04:AMPARAMS|DCode=23|XSize=33.47mil|YSize=35.43mil|CornerRadius=0mil|HoleSize=0mil|Usage=FLASHONLY|Rotation=67.500|XOffset=0mil|YOffset=0mil|HoleType=Round|Shape=Rectangle|*
%AMROTATEDRECTD23*
4,1,4,0.00997,-0.02224,-0.02277,-0.00868,-0.00997,0.02224,0.02277,0.00868,0.00997,-0.02224,0.0*
%
%ADD23ROTATEDRECTD23*%

%ADD24R,0.02362X0.02362*%
%ADD25R,0.01890X0.01575*%
%ADD26R,0.03150X0.05118*%
%ADD27R,0.02362X0.02559*%
%ADD28C,0.03200*%
%ADD29R,0.02559X0.02362*%
%ADD30R,0.08268X0.08268*%
%ADD31O,0.02559X0.01181*%
%ADD32O,0.01181X0.02559*%
%ADD33R,0.02953X0.03543*%
%ADD34R,0.03543X0.07480*%
%ADD35R,0.02362X0.02362*%
%ADD36R,0.02362X0.02756*%
%ADD37R,0.04724X0.05512*%
G04:AMPARAMS|DCode=38|XSize=11.02mil|YSize=33.47mil|CornerRadius=0mil|HoleSize=0mil|Usage=FLASHONLY|Rotation=0.000|XOffset=0mil|YOffset=0mil|HoleType=Round|Shape=Octagon|*
%AMOCTAGOND38*
4,1,8,-0.00276,0.01673,0.00276,0.01673,0.00551,0.01398,0.00551,-0.01398,0.00276,-0.01673,-0.00276,-0.01673,-0.00551,-0.01398,-0.00551,0.01398,-0.00276,0.01673,0.0*
%
%ADD38OCTAGOND38*%

%ADD39R,0.01102X0.03347*%
%ADD40R,0.03347X0.01102*%
%ADD41R,0.13583X0.13583*%
%ADD42R,0.05709X0.02165*%
%ADD43R,0.05512X0.04724*%
%ADD44R,0.05118X0.07480*%
%ADD45R,0.03000X0.10000*%
%ADD46R,0.17716X0.17716*%
%ADD47R,0.03600X0.04800*%
%ADD48R,0.09055X0.02559*%
%ADD49R,0.08071X0.11417*%
%ADD50R,0.08661X0.04095*%
%ADD51C,0.10000*%
%ADD52C,0.01500*%
%ADD53C,0.00800*%
%ADD54C,0.04000*%
%ADD55C,0.02000*%
%ADD56C,0.03000*%
%ADD57C,0.02500*%
%ADD58C,0.00700*%
%ADD59R,0.07000X0.23500*%
%ADD60R,0.15700X0.07000*%
%ADD61R,0.03000X0.03300*%
%ADD62C,0.03500*%
%ADD63C,0.02000*%
%ADD64R,0.10800X0.10800*%
%ADD65C,0.10800*%
%ADD66C,0.03000*%
%ADD67C,0.02200*%
%ADD68C,0.04000*%
%ADD69C,0.02598*%
%ADD70C,0.00984*%
%ADD71C,0.00984*%
%ADD72C,0.00787*%
%ADD73C,0.00300*%
%ADD74R,0.01772X0.03740*%
G36*
X11734Y-41083D02*
X10234D01*
Y-40083D01*
X11734D01*
Y-41083D01*
D02*
G37*
G36*
X11000Y24750D02*
X9000D01*
X10000Y28250D01*
X11000Y24750D01*
D02*
G37*
G36*
X23417Y-59172D02*
X22417D01*
Y-57673D01*
X23417D01*
Y-59172D01*
D02*
G37*
G36*
X-2417Y-57204D02*
X-3417D01*
Y-55704D01*
X-2417D01*
Y-57204D01*
D02*
G37*
G36*
X33886Y51610D02*
X32886D01*
Y53110D01*
X33886D01*
Y51610D01*
D02*
G37*
G36*
X10392Y57886D02*
X8892D01*
Y58886D01*
X10392D01*
Y57886D01*
D02*
G37*
G36*
X28108Y28114D02*
X26608D01*
Y29114D01*
X28108D01*
Y28114D01*
D02*
G37*
G36*
X4114Y33889D02*
X3114D01*
Y35390D01*
X4114D01*
Y33889D01*
D02*
G37*
D10*
X44793Y71126D02*
G03*
X44793Y71126I-100J0D01*
G01*
X-28774Y-47693D02*
G03*
X-28774Y-47693I-100J0D01*
G01*
X-10865Y54161D02*
G03*
X-10865Y54161I-100J0D01*
G01*
X-33629Y105042D02*
X-8511D01*
X-33619Y77896D02*
Y104964D01*
Y77896D02*
X-8521D01*
X-8511Y105042D01*
X-7044Y106440D01*
X-14850Y-91800D02*
Y-84200D01*
X-32450D02*
X-14850D01*
X-32450Y-91800D02*
Y-84200D01*
Y-91800D02*
X-14850D01*
X-26950D02*
Y-84200D01*
X-13370Y-16201D02*
Y-14035D01*
X15370Y-16201D02*
Y-14035D01*
Y-30965D02*
Y-28799D01*
X7496Y-30965D02*
Y-14035D01*
X-13370Y-30965D02*
Y-28799D01*
Y-14035D02*
X15370D01*
X-13370Y-30965D02*
X15370D01*
X119500Y104998D02*
Y99000D01*
X122499D01*
X123499Y100000D01*
Y100999D01*
X122499Y101999D01*
X119500D01*
X122499D01*
X123499Y102999D01*
Y103998D01*
X122499Y104998D01*
X119500D01*
X125498Y99000D02*
X127497D01*
X126498D01*
Y104998D01*
X125498Y103998D01*
X49000Y104998D02*
Y99000D01*
X51999D01*
X52999Y100000D01*
Y100999D01*
X51999Y101999D01*
X49000D01*
X51999D01*
X52999Y102999D01*
Y103998D01*
X51999Y104998D01*
X49000D01*
X58997Y99000D02*
X54998D01*
X58997Y102999D01*
Y103998D01*
X57997Y104998D01*
X55998D01*
X54998Y103998D01*
X-109000Y-100002D02*
Y-106000D01*
X-106001D01*
X-105001Y-105000D01*
Y-104001D01*
X-106001Y-103001D01*
X-109000D01*
X-106001D01*
X-105001Y-102001D01*
Y-101002D01*
X-106001Y-100002D01*
X-109000D01*
X-100003Y-106000D02*
Y-100002D01*
X-103002Y-103001D01*
X-99003D01*
X-58500Y-99502D02*
Y-105500D01*
X-55501D01*
X-54501Y-104500D01*
Y-103501D01*
X-55501Y-102501D01*
X-58500D01*
X-55501D01*
X-54501Y-101501D01*
Y-100502D01*
X-55501Y-99502D01*
X-58500D01*
X-52502Y-100502D02*
X-51502Y-99502D01*
X-49503D01*
X-48503Y-100502D01*
Y-101501D01*
X-49503Y-102501D01*
X-50503D01*
X-49503D01*
X-48503Y-103501D01*
Y-104500D01*
X-49503Y-105500D01*
X-51502D01*
X-52502Y-104500D01*
D11*
X69082Y-161610D02*
G03*
X70813Y-158992I-926J2493D01*
G01*
X62007Y-162640D02*
G03*
X65081Y-163268I1967J1790D01*
G01*
X160514Y69082D02*
G03*
X157896Y70812I-2493J-926D01*
G01*
X161544Y62006D02*
G03*
X162172Y65081I-1790J1967D01*
G01*
X-65081Y-163672D02*
G03*
X-62007Y-163044I1108J2417D01*
G01*
X-70813Y-159396D02*
G03*
X-69082Y-162014I2656J-125D01*
G01*
X65081Y162324D02*
G03*
X62007Y161696I-1108J-2417D01*
G01*
X70813Y158049D02*
G03*
X69082Y160667I-2656J125D01*
G01*
X-69082Y160574D02*
G03*
X-70813Y157956I926J-2493D01*
G01*
X-62007Y161604D02*
G03*
X-65081Y162232I-1967J-1790D01*
G01*
X-163028Y64361D02*
G03*
X-162400Y61287I2417J-1108D01*
G01*
X-158752Y70093D02*
G03*
X-161371Y68362I-125J-2656D01*
G01*
X98500Y-107000D02*
G03*
X98500Y-107000I-2500J0D01*
G01*
X63000Y-111500D02*
G03*
X63000Y-111500I-2500J0D01*
G01*
X-54500Y137500D02*
G03*
X-54500Y137500I-2500J0D01*
G01*
X68000Y-101500D02*
G03*
X68000Y-101500I-2500J0D01*
G01*
X64000Y-136500D02*
G03*
X64000Y-136500I-2500J0D01*
G01*
X102500Y-102500D02*
G03*
X102500Y-102500I-2500J0D01*
G01*
X-161167Y-69883D02*
G03*
X-158549Y-71613I2493J926D01*
G01*
X-162196Y-62807D02*
G03*
X-162824Y-65882I1790J-1967D01*
G01*
X162168Y-66001D02*
G03*
X161540Y-62927I-2417J1108D01*
G01*
X157892Y-71733D02*
G03*
X160511Y-70003I125J2656D01*
G01*
X63000Y-117500D02*
G03*
X63000Y-117500I-2500J0D01*
G01*
X13500Y-71000D02*
G03*
X13500Y-71000I-2500J0D01*
G01*
X27500Y-65500D02*
G03*
X27500Y-65500I-2500J0D01*
G01*
X-500Y-89000D02*
G03*
X-500Y-89000I-2500J0D01*
G01*
X16410Y91830D02*
G03*
X16410Y91830I-2500J0D01*
G01*
X40000Y-105000D02*
G03*
X40000Y-105000I-2500J0D01*
G01*
X-500Y-83000D02*
G03*
X-500Y-83000I-2500J0D01*
G01*
X19500Y-71000D02*
G03*
X19500Y-71000I-2500J0D01*
G01*
X-92500Y112500D02*
G03*
X-92500Y112500I-2500J0D01*
G01*
X-64500Y104500D02*
G03*
X-64500Y104500I-2500J0D01*
G01*
X45000Y33500D02*
G03*
X45000Y33500I-2500J0D01*
G01*
X-52500Y105000D02*
G03*
X-52500Y105000I-2500J0D01*
G01*
X-58500D02*
G03*
X-58500Y105000I-2500J0D01*
G01*
X-100500Y106500D02*
G03*
X-100500Y106500I-2500J0D01*
G01*
X7032Y23224D02*
X10968D01*
X7032Y13776D02*
Y23224D01*
Y13776D02*
X10968D01*
Y23224D01*
X12032D02*
X15969D01*
X12032Y13776D02*
Y23224D01*
Y13776D02*
X15969D01*
Y23224D01*
X29032Y17224D02*
X32969D01*
X29032Y7776D02*
Y17224D01*
Y7776D02*
X32969D01*
Y17224D01*
X724Y32531D02*
Y36468D01*
X-8724D02*
X724D01*
X-8724Y32531D02*
Y36468D01*
Y32531D02*
X724D01*
X44724Y58031D02*
Y61968D01*
X35276D02*
X44724D01*
X35276Y58031D02*
Y61968D01*
Y58031D02*
X44724D01*
X-1276Y56532D02*
Y60469D01*
X-10724D02*
X-1276D01*
X-10724Y56532D02*
Y60469D01*
Y56532D02*
X-1276D01*
X224Y51531D02*
Y55468D01*
X-9224D02*
X224D01*
X-9224Y51531D02*
Y55468D01*
Y51531D02*
X224D01*
X10031Y63276D02*
X13969D01*
Y72724D01*
X10031D02*
X13969D01*
X10031Y63276D02*
Y72724D01*
X108031Y115776D02*
X111969D01*
Y125224D01*
X108031D02*
X111969D01*
X108031Y115776D02*
Y125224D01*
Y105276D02*
X111969D01*
Y114724D01*
X108031D02*
X111969D01*
X108031Y105276D02*
Y114724D01*
X67082Y-162439D02*
X69082Y-161610D01*
X70807Y-158979D02*
X73315Y-157940D01*
X71281Y-153029D02*
X73315Y-157940D01*
X64370Y-155892D02*
X71281Y-153029D01*
X65081Y-163268D02*
X67082Y-162439D01*
X59493Y-163665D02*
X62001Y-162626D01*
X57459Y-158755D02*
X59493Y-163665D01*
X57459Y-158755D02*
X64370Y-155892D01*
X160514Y69082D02*
X161343Y67081D01*
X156843Y73314D02*
X157882Y70806D01*
X151933Y71280D02*
X156843Y73314D01*
X151933Y71280D02*
X154796Y64369D01*
X161343Y67081D02*
X162172Y65081D01*
X161530Y62000D02*
X162569Y59492D01*
X157658Y57459D02*
X162569Y59492D01*
X154796Y64369D02*
X157658Y57459D01*
X-67082Y-162843D02*
X-65081Y-163672D01*
X-62001Y-163030D02*
X-59493Y-164069D01*
X-57459Y-159158D01*
X-64370Y-156296D02*
X-57459Y-159158D01*
X-69082Y-162014D02*
X-67082Y-162843D01*
X-73315Y-158344D02*
X-70807Y-159382D01*
X-73315Y-158344D02*
X-71281Y-153433D01*
X-64370Y-156296D01*
X65081Y162324D02*
X67082Y161495D01*
X59493Y162721D02*
X62001Y161682D01*
X57459Y157811D02*
X59493Y162721D01*
X57459Y157811D02*
X64370Y154948D01*
X67082Y161495D02*
X69082Y160667D01*
X70807Y158035D02*
X73315Y156996D01*
X71281Y152086D02*
X73315Y156996D01*
X64370Y154948D02*
X71281Y152086D01*
X-69082Y160574D02*
X-67082Y161403D01*
X-73315Y156904D02*
X-70807Y157942D01*
X-73315Y156904D02*
X-71281Y151993D01*
X-64370Y154856D01*
X-67082Y161403D02*
X-65081Y162232D01*
X-62001Y161590D02*
X-59493Y162629D01*
X-57459Y157718D01*
X-64370Y154856D02*
X-57459Y157718D01*
X-163028Y64361D02*
X-162199Y66362D01*
X-163425Y58773D02*
X-162386Y61281D01*
X-163425Y58773D02*
X-158515Y56739D01*
X-155652Y63650D01*
X-162199Y66362D02*
X-161371Y68362D01*
X-158739Y70087D02*
X-157700Y72595D01*
X-152789Y70561D01*
X-155652Y63650D02*
X-152789Y70561D01*
X-58543Y125425D02*
Y128575D01*
Y125425D02*
X-51457D01*
Y128575D01*
X-58543D02*
X-51457D01*
X-55000Y129532D02*
Y133468D01*
X-50595Y113350D02*
Y119650D01*
X-62406D02*
X-50595D01*
X-62406Y113350D02*
Y119650D01*
Y113350D02*
X-50595D01*
X85425Y-108543D02*
Y-101457D01*
X88575D01*
Y-108543D02*
Y-101457D01*
X85425Y-108543D02*
X88575D01*
X89425D02*
Y-101457D01*
X92575D01*
Y-108543D02*
Y-101457D01*
X89425Y-108543D02*
X92575D01*
X75224Y-124469D02*
Y-120531D01*
X65776D02*
X75224D01*
X65776Y-124469D02*
Y-120531D01*
Y-124469D02*
X75224D01*
X73043Y-135075D02*
Y-131925D01*
X65957D02*
X73043D01*
X65957Y-135075D02*
Y-131925D01*
Y-135075D02*
X73043D01*
X49327Y-113075D02*
X56413D01*
X49327D02*
Y-109925D01*
X56413D01*
Y-113075D02*
Y-109925D01*
X64095Y-119650D02*
Y-113350D01*
Y-119650D02*
X75906D01*
Y-113350D01*
X64095D02*
X75906D01*
X-161995Y-67883D02*
X-161167Y-69883D01*
X-158535Y-71608D02*
X-157496Y-74115D01*
X-152586Y-72082D01*
X-155448Y-65171D02*
X-152586Y-72082D01*
X-162824Y-65882D02*
X-161995Y-67883D01*
X-163221Y-60294D02*
X-162182Y-62801D01*
X-163221Y-60294D02*
X-158311Y-58260D01*
X-155448Y-65171D01*
X81425Y-108543D02*
Y-101457D01*
X84575D01*
Y-108543D02*
Y-101457D01*
X81425Y-108543D02*
X84575D01*
X70598Y-130870D02*
Y-126933D01*
X161339Y-68002D02*
X162168Y-66001D01*
X161526Y-62921D02*
X162565Y-60413D01*
X157655Y-58379D02*
X162565Y-60413D01*
X154792Y-65290D02*
X157655Y-58379D01*
X160511Y-70003D02*
X161339Y-68002D01*
X156840Y-74235D02*
X157879Y-71727D01*
X151929Y-72201D02*
X156840Y-74235D01*
X151929Y-72201D02*
X154792Y-65290D01*
X49327Y-119075D02*
X56413D01*
X49327D02*
Y-115925D01*
X56413D01*
Y-119075D02*
Y-115925D01*
X5724Y-126969D02*
Y-123031D01*
X-3724D02*
X5724D01*
X-3724Y-126969D02*
Y-123031D01*
Y-126969D02*
X5724D01*
X-6968Y-42224D02*
X-3032D01*
Y-32776D01*
X-6968D02*
X-3032D01*
X-6968Y-42224D02*
Y-32776D01*
X-26224Y-51968D02*
Y-48031D01*
Y-51968D02*
X-16776D01*
Y-48031D01*
X-26224D02*
X-16776D01*
X-5276Y-131968D02*
Y-128032D01*
X-14724D02*
X-5276D01*
X-14724Y-131968D02*
Y-128032D01*
Y-131968D02*
X-5276D01*
X32776Y66531D02*
Y70468D01*
Y66531D02*
X42224D01*
Y70468D01*
X32776D02*
X42224D01*
X-5276Y-126969D02*
Y-123031D01*
X-14724D02*
X-5276D01*
X-14724Y-126969D02*
Y-123031D01*
Y-126969D02*
X-5276D01*
X16957Y85925D02*
Y89075D01*
Y85925D02*
X24043D01*
Y89075D01*
X16957D02*
X24043D01*
X14532Y-89724D02*
X18469D01*
Y-80276D01*
X14532D02*
X18469D01*
X14532Y-89724D02*
Y-80276D01*
X5531Y-117224D02*
X9469D01*
Y-107776D01*
X5531D02*
X9469D01*
X5531Y-117224D02*
Y-107776D01*
X41724Y87532D02*
Y91469D01*
X32276D02*
X41724D01*
X32276Y87532D02*
Y91469D01*
Y87532D02*
X41724D01*
X26925Y73543D02*
X30075D01*
X26925Y66457D02*
Y73543D01*
Y66457D02*
X30075D01*
Y73543D01*
X-4468Y-117224D02*
X-532D01*
Y-107776D01*
X-4468D02*
X-532D01*
X-4468Y-117224D02*
Y-107776D01*
X26032Y-69776D02*
X29969D01*
X26032Y-79224D02*
Y-69776D01*
Y-79224D02*
X29969D01*
Y-69776D01*
X4031Y-74776D02*
X7969D01*
X4031Y-84224D02*
Y-74776D01*
Y-84224D02*
X7969D01*
Y-74776D01*
X3776Y-89468D02*
Y-85532D01*
Y-89468D02*
X13224D01*
Y-85532D01*
X3776D02*
X13224D01*
X-14469Y-117224D02*
X-10531D01*
Y-107776D01*
X-14469D02*
X-10531D01*
X-14469Y-117224D02*
Y-107776D01*
X22925Y69957D02*
Y77043D01*
X26075D01*
Y69957D02*
Y77043D01*
X22925Y69957D02*
X26075D01*
X37331Y72307D02*
X38669D01*
X43315Y77819D02*
Y80181D01*
X32685Y77819D02*
Y80181D01*
X37331Y85693D02*
X38669D01*
X22925Y61957D02*
X26075D01*
Y69043D01*
X22925D02*
X26075D01*
X22925Y61957D02*
Y69043D01*
X18925Y61957D02*
X22075D01*
Y69043D01*
X18925D02*
X22075D01*
X18925Y61957D02*
Y69043D01*
X20925Y89957D02*
Y97043D01*
X24075D01*
Y89957D02*
Y97043D01*
X20925Y89957D02*
X24075D01*
X20925Y77957D02*
Y85043D01*
X24075D01*
Y77957D02*
Y85043D01*
X20925Y77957D02*
X24075D01*
X9031Y-74776D02*
X12968D01*
X9031Y-84224D02*
Y-74776D01*
Y-84224D02*
X12968D01*
Y-74776D01*
X19776Y-89969D02*
Y-86032D01*
Y-89969D02*
X29224D01*
Y-86032D01*
X19776D02*
X29224D01*
X76476Y104984D02*
Y108921D01*
Y104984D02*
X85925D01*
Y108921D01*
X76476D02*
X85925D01*
X29276Y-45968D02*
Y-42031D01*
Y-45968D02*
X38724D01*
Y-42031D01*
X29276D02*
X38724D01*
X19776Y-84469D02*
Y-80532D01*
Y-84469D02*
X29224D01*
Y-80532D01*
X19776D02*
X29224D01*
X532Y-117224D02*
X4468D01*
Y-107776D01*
X532D02*
X4468D01*
X532Y-117224D02*
Y-107776D01*
X96925Y104984D02*
Y108921D01*
X87476D02*
X96925D01*
X87476Y104984D02*
Y108921D01*
Y104984D02*
X96925D01*
X11531Y-94933D02*
X15469D01*
X11531Y-104382D02*
Y-94933D01*
Y-104382D02*
X15469D01*
Y-94933D01*
X-9469Y-117224D02*
X-5531D01*
Y-107776D01*
X-9469D02*
X-5531D01*
X-9469Y-117224D02*
Y-107776D01*
X-19276Y-33968D02*
Y-30031D01*
X-28724D02*
X-19276D01*
X-28724Y-33968D02*
Y-30031D01*
Y-33968D02*
X-19276D01*
X-27693Y-41669D02*
Y-40331D01*
X-22181Y-46315D02*
X-19819D01*
X-22181Y-35685D02*
X-19819D01*
X-14307Y-41669D02*
Y-40331D01*
X35531Y-100724D02*
X39469D01*
Y-91276D01*
X35531D02*
X39469D01*
X35531Y-100724D02*
Y-91276D01*
X-35374Y52980D02*
X-19626D01*
X-43248Y38020D02*
Y52980D01*
X-41280D01*
X-43248Y38020D02*
X-41280D01*
X-13721D02*
X-11752D01*
X-13721Y52980D02*
X-11752D01*
Y38020D02*
Y52980D01*
X-35374Y38020D02*
X-19626D01*
X-30724Y33031D02*
Y36968D01*
Y33031D02*
X-21276D01*
Y36968D01*
X-30724D02*
X-21276D01*
X-31969Y-82724D02*
X-28032D01*
Y-73276D01*
X-31969D02*
X-28032D01*
X-31969Y-82724D02*
Y-73276D01*
X18925Y69957D02*
X22075D01*
Y77043D01*
X18925D02*
X22075D01*
X18925Y69957D02*
Y77043D01*
X43724Y8032D02*
Y11969D01*
X34276D02*
X43724D01*
X34276Y8032D02*
Y11969D01*
Y8032D02*
X43724D01*
X18075Y66457D02*
Y73543D01*
X14925Y66457D02*
X18075D01*
X14925D02*
Y73543D01*
X18075D01*
X23531Y17224D02*
X27468D01*
X23531Y7776D02*
Y17224D01*
Y7776D02*
X27468D01*
Y17224D01*
X-33038Y76154D02*
X-29101D01*
X-33038Y66706D02*
Y76154D01*
Y66706D02*
X-29101D01*
Y76154D01*
X34276Y13032D02*
Y16969D01*
Y13032D02*
X43724D01*
Y16969D01*
X34276D02*
X43724D01*
X-30724Y54031D02*
Y57968D01*
Y54031D02*
X-21276D01*
Y57968D01*
X-30724D02*
X-21276D01*
X-1276Y67532D02*
Y71469D01*
X-10724D02*
X-1276D01*
X-10724Y67532D02*
Y71469D01*
Y67532D02*
X-1276D01*
X-6968Y83276D02*
X-3032D01*
Y92724D01*
X-6968D02*
X-3032D01*
X-6968Y83276D02*
Y92724D01*
X-58724Y120531D02*
Y124469D01*
Y120531D02*
X-49276D01*
Y124469D01*
X-58724D02*
X-49276D01*
X-36968Y-73276D02*
X-33031D01*
X-36968Y-82724D02*
Y-73276D01*
Y-82724D02*
X-33031D01*
Y-73276D01*
X-41969D02*
X-38032D01*
X-41969Y-82724D02*
Y-73276D01*
Y-82724D02*
X-38032D01*
Y-73276D01*
X-38539Y66706D02*
X-34602D01*
Y76154D01*
X-38539D02*
X-34602D01*
X-38539Y66706D02*
Y76154D01*
X33224Y18531D02*
Y22468D01*
X23776D02*
X33224D01*
X23776Y18531D02*
Y22468D01*
Y18531D02*
X33224D01*
X23531Y-32724D02*
X27468D01*
Y-23276D01*
X23531D02*
X27468D01*
X23531Y-32724D02*
Y-23276D01*
X17488Y-104905D02*
Y-93094D01*
Y-104905D02*
X28512D01*
X17488Y-93094D02*
X28512D01*
Y-104905D02*
Y-93094D01*
X-57043Y97925D02*
X-49957D01*
X-57043D02*
Y101075D01*
X-49957D01*
Y97925D02*
Y101075D01*
X-65043D02*
X-57957D01*
Y97925D02*
Y101075D01*
X-65043Y97925D02*
X-57957D01*
X-65043D02*
Y101075D01*
X-73425Y98957D02*
Y106043D01*
X-76575Y98957D02*
X-73425D01*
X-76575D02*
Y106043D01*
X-73425D01*
X-77425Y98957D02*
Y106043D01*
X-80575Y98957D02*
X-77425D01*
X-80575D02*
Y106043D01*
X-77425D01*
X-81425Y98957D02*
Y106043D01*
X-84575Y98957D02*
X-81425D01*
X-84575D02*
Y106043D01*
X-81425D01*
X35176Y53232D02*
Y57169D01*
Y53232D02*
X44624D01*
Y57169D01*
X35176D02*
X44624D01*
X532Y63276D02*
X4468D01*
Y72724D01*
X532D02*
X4468D01*
X532Y63276D02*
Y72724D01*
X5232Y63276D02*
X9168D01*
Y72724D01*
X5232D02*
X9168D01*
X5232Y63276D02*
Y72724D01*
X25000Y78000D02*
X27000Y84500D01*
X43000Y87000D02*
Y98000D01*
X18531Y-23276D02*
X22468D01*
X18531Y-32724D02*
Y-23276D01*
Y-32724D02*
X22468D01*
Y-23276D01*
X-12776Y-77469D02*
Y-73532D01*
X-22224D02*
X-12776D01*
X-22224Y-77469D02*
Y-73532D01*
Y-77469D02*
X-12776D01*
Y-72469D02*
Y-68532D01*
X-22224D02*
X-12776D01*
X-22224Y-72469D02*
Y-68532D01*
Y-72469D02*
X-12776D01*
Y-67469D02*
Y-63532D01*
X-22224D02*
X-12776D01*
X-22224Y-67469D02*
Y-63532D01*
Y-67469D02*
X-12776D01*
Y-62468D02*
Y-58531D01*
X-22224D02*
X-12776D01*
X-22224Y-62468D02*
Y-58531D01*
Y-62468D02*
X-12776D01*
Y-57468D02*
Y-53531D01*
X-22224D02*
X-12776D01*
X-22224Y-57468D02*
Y-53531D01*
Y-57468D02*
X-12776D01*
X-1469Y-69776D02*
X2468D01*
X-1469Y-79224D02*
Y-69776D01*
Y-79224D02*
X2468D01*
Y-69776D01*
X-6469D02*
X-2531D01*
X-6469Y-79224D02*
Y-69776D01*
Y-79224D02*
X-2531D01*
Y-69776D01*
X28933Y-63468D02*
Y-59531D01*
Y-63468D02*
X38382D01*
Y-59531D01*
X28933D02*
X38382D01*
X28933Y-58469D02*
Y-54532D01*
Y-58469D02*
X38382D01*
Y-54532D01*
X28933D02*
X38382D01*
X24521Y-18521D02*
X24021Y-19020D01*
Y-20020D01*
X24521Y-20520D01*
X26520D01*
X27020Y-20020D01*
Y-19020D01*
X26520Y-18521D01*
X27020Y-17521D02*
Y-16521D01*
Y-17021D01*
X24021D01*
X24521Y-17521D01*
X24021Y-13022D02*
Y-15022D01*
X25521D01*
X25021Y-14022D01*
Y-13522D01*
X25521Y-13022D01*
X26520D01*
X27020Y-13522D01*
Y-14522D01*
X26520Y-15022D01*
X16999Y-75501D02*
X16499Y-75001D01*
X15500D01*
X15000Y-75501D01*
Y-77500D01*
X15500Y-78000D01*
X16499D01*
X16999Y-77500D01*
X17999Y-75501D02*
X18499Y-75001D01*
X19499D01*
X19998Y-75501D01*
Y-76001D01*
X19499Y-76500D01*
X18999D01*
X19499D01*
X19998Y-77000D01*
Y-77500D01*
X19499Y-78000D01*
X18499D01*
X17999Y-77500D01*
X20998Y-75501D02*
X21498Y-75001D01*
X22498D01*
X22997Y-75501D01*
Y-76001D01*
X22498Y-76500D01*
X22997Y-77000D01*
Y-77500D01*
X22498Y-78000D01*
X21498D01*
X20998Y-77500D01*
Y-77000D01*
X21498Y-76500D01*
X20998Y-76001D01*
Y-75501D01*
X21498Y-76500D02*
X22498D01*
X10999Y-91501D02*
X10499Y-91001D01*
X9500D01*
X9000Y-91501D01*
Y-93500D01*
X9500Y-94000D01*
X10499D01*
X10999Y-93500D01*
X13499Y-94000D02*
Y-91001D01*
X11999Y-92501D01*
X13998D01*
X16997Y-94000D02*
X14998D01*
X16997Y-92001D01*
Y-91501D01*
X16498Y-91001D01*
X15498D01*
X14998Y-91501D01*
X32999Y-82501D02*
X32500Y-82001D01*
X31500D01*
X31000Y-82501D01*
Y-84500D01*
X31500Y-85000D01*
X32500D01*
X32999Y-84500D01*
X35499Y-85000D02*
Y-82001D01*
X33999Y-83500D01*
X35998D01*
X36998Y-82501D02*
X37498Y-82001D01*
X38498D01*
X38997Y-82501D01*
Y-83001D01*
X38498Y-83500D01*
X38997Y-84000D01*
Y-84500D01*
X38498Y-85000D01*
X37498D01*
X36998Y-84500D01*
Y-84000D01*
X37498Y-83500D01*
X36998Y-83001D01*
Y-82501D01*
X37498Y-83500D02*
X38498D01*
X32999Y-87001D02*
X32500Y-86501D01*
X31500D01*
X31000Y-87001D01*
Y-89000D01*
X31500Y-89500D01*
X32500D01*
X32999Y-89000D01*
X35499Y-89500D02*
Y-86501D01*
X33999Y-88001D01*
X35998D01*
X38498Y-89500D02*
Y-86501D01*
X36998Y-88001D01*
X38997D01*
X18499Y-106501D02*
X18000Y-106001D01*
X17000D01*
X16500Y-106501D01*
Y-108500D01*
X17000Y-109000D01*
X18000D01*
X18499Y-108500D01*
X19499Y-106501D02*
X19999Y-106001D01*
X20999D01*
X21498Y-106501D01*
Y-107001D01*
X20999Y-107501D01*
X20499D01*
X20999D01*
X21498Y-108000D01*
Y-108500D01*
X20999Y-109000D01*
X19999D01*
X19499Y-108500D01*
X22498Y-106001D02*
X24497D01*
Y-106501D01*
X22498Y-108500D01*
Y-109000D01*
X41501Y-98001D02*
X41001Y-98501D01*
Y-99500D01*
X41501Y-100000D01*
X43500D01*
X44000Y-99500D01*
Y-98501D01*
X43500Y-98001D01*
X44000Y-95501D02*
X41001D01*
X42500Y-97001D01*
Y-95002D01*
X41501Y-94002D02*
X41001Y-93502D01*
Y-92502D01*
X41501Y-92003D01*
X42001D01*
X42500Y-92502D01*
Y-93002D01*
Y-92502D01*
X43000Y-92003D01*
X43500D01*
X44000Y-92502D01*
Y-93502D01*
X43500Y-94002D01*
X32001Y-76501D02*
X31501Y-77000D01*
Y-78000D01*
X32001Y-78500D01*
X34000D01*
X34500Y-78000D01*
Y-77000D01*
X34000Y-76501D01*
X34500Y-74001D02*
X31501D01*
X33000Y-75501D01*
Y-73502D01*
X34000Y-72502D02*
X34500Y-72002D01*
Y-71002D01*
X34000Y-70503D01*
X32001D01*
X31501Y-71002D01*
Y-72002D01*
X32001Y-72502D01*
X32501D01*
X33000Y-72002D01*
Y-70503D01*
X6501Y-104501D02*
X6001Y-105000D01*
Y-106000D01*
X6501Y-106500D01*
X8500D01*
X9000Y-106000D01*
Y-105000D01*
X8500Y-104501D01*
X9000Y-102001D02*
X6001D01*
X7501Y-103501D01*
Y-101502D01*
X6001Y-98503D02*
Y-100502D01*
X7501D01*
X7001Y-99502D01*
Y-99002D01*
X7501Y-98503D01*
X8500D01*
X9000Y-99002D01*
Y-100002D01*
X8500Y-100502D01*
X1501Y-104501D02*
X1001Y-105000D01*
Y-106000D01*
X1501Y-106500D01*
X3500D01*
X4000Y-106000D01*
Y-105000D01*
X3500Y-104501D01*
X4000Y-102001D02*
X1001D01*
X2500Y-103501D01*
Y-101502D01*
X1001Y-98503D02*
X1501Y-99502D01*
X2500Y-100502D01*
X3500D01*
X4000Y-100002D01*
Y-99002D01*
X3500Y-98503D01*
X3000D01*
X2500Y-99002D01*
Y-100502D01*
X-11001Y-119501D02*
X-11501Y-119001D01*
X-12500D01*
X-13000Y-119501D01*
Y-121500D01*
X-12500Y-122000D01*
X-11501D01*
X-11001Y-121500D01*
X-10001Y-119501D02*
X-9501Y-119001D01*
X-8501D01*
X-8002Y-119501D01*
Y-120001D01*
X-8501Y-120501D01*
X-9001D01*
X-8501D01*
X-8002Y-121000D01*
Y-121500D01*
X-8501Y-122000D01*
X-9501D01*
X-10001Y-121500D01*
X-7002D02*
X-6502Y-122000D01*
X-5502D01*
X-5003Y-121500D01*
Y-119501D01*
X-5502Y-119001D01*
X-6502D01*
X-7002Y-119501D01*
Y-120001D01*
X-6502Y-120501D01*
X-5003D01*
X-7001Y-133901D02*
X-7501Y-133401D01*
X-8500D01*
X-9000Y-133901D01*
Y-135900D01*
X-8500Y-136400D01*
X-7501D01*
X-7001Y-135900D01*
X-4501Y-136400D02*
Y-133401D01*
X-6001Y-134900D01*
X-4002D01*
X-3002Y-136400D02*
X-2002D01*
X-2502D01*
Y-133401D01*
X-3002Y-133901D01*
X-8499Y-100276D02*
X-8999Y-100776D01*
Y-101776D01*
X-8499Y-102276D01*
X-6500D01*
X-6000Y-101776D01*
Y-100776D01*
X-6500Y-100276D01*
X-6000Y-97777D02*
X-8999D01*
X-7500Y-99277D01*
Y-97277D01*
X-8999Y-96277D02*
Y-94278D01*
X-8499D01*
X-6500Y-96277D01*
X-6000D01*
X-46001Y123499D02*
X-46501Y123999D01*
X-47500D01*
X-48000Y123499D01*
Y121500D01*
X-47500Y121000D01*
X-46501D01*
X-46001Y121500D01*
X-43002Y123999D02*
X-45001D01*
Y122500D01*
X-44001Y122999D01*
X-43501D01*
X-43002Y122500D01*
Y121500D01*
X-43501Y121000D01*
X-44501D01*
X-45001Y121500D01*
X-42002Y123499D02*
X-41502Y123999D01*
X-40502D01*
X-40003Y123499D01*
Y121500D01*
X-40502Y121000D01*
X-41502D01*
X-42002Y121500D01*
Y123499D01*
X53499Y-125501D02*
X53000Y-125001D01*
X52000D01*
X51500Y-125501D01*
Y-127500D01*
X52000Y-128000D01*
X53000D01*
X53499Y-127500D01*
X56498Y-125001D02*
X54499D01*
Y-126500D01*
X55499Y-126001D01*
X55999D01*
X56498Y-126500D01*
Y-127500D01*
X55999Y-128000D01*
X54999D01*
X54499Y-127500D01*
X59497Y-128000D02*
X57498D01*
X59497Y-126001D01*
Y-125501D01*
X58998Y-125001D01*
X57998D01*
X57498Y-125501D01*
X-48001Y128499D02*
X-48500Y128999D01*
X-49500D01*
X-50000Y128499D01*
Y126500D01*
X-49500Y126000D01*
X-48500D01*
X-48001Y126500D01*
X-45002Y128999D02*
X-47001D01*
Y127499D01*
X-46001Y127999D01*
X-45501D01*
X-45002Y127499D01*
Y126500D01*
X-45501Y126000D01*
X-46501D01*
X-47001Y126500D01*
X-44002Y126000D02*
X-43002D01*
X-43502D01*
Y128999D01*
X-44002Y128499D01*
X58001Y-150499D02*
X58500Y-150999D01*
X59500D01*
X60000Y-150499D01*
Y-148500D01*
X59500Y-148000D01*
X58500D01*
X58001Y-148500D01*
X55002Y-150999D02*
X57001D01*
Y-149499D01*
X56001Y-149999D01*
X55501D01*
X55002Y-149499D01*
Y-148500D01*
X55501Y-148000D01*
X56501D01*
X57001Y-148500D01*
X54002Y-150499D02*
X53502Y-150999D01*
X52502D01*
X52003Y-150499D01*
Y-149999D01*
X52502Y-149499D01*
X53002D01*
X52502D01*
X52003Y-149000D01*
Y-148500D01*
X52502Y-148000D01*
X53502D01*
X54002Y-148500D01*
X99001Y107499D02*
X98501Y107000D01*
Y106000D01*
X99001Y105500D01*
X101000D01*
X101500Y106000D01*
Y107000D01*
X101000Y107499D01*
X101500Y108499D02*
Y109499D01*
Y108999D01*
X98501D01*
X99001Y108499D01*
X-26001Y-26501D02*
X-26500Y-26001D01*
X-27500D01*
X-28000Y-26501D01*
Y-28500D01*
X-27500Y-29000D01*
X-26500D01*
X-26001Y-28500D01*
X-25001Y-26501D02*
X-24501Y-26001D01*
X-23501D01*
X-23002Y-26501D01*
Y-27001D01*
X-23501Y-27501D01*
X-24001D01*
X-23501D01*
X-23002Y-28000D01*
Y-28500D01*
X-23501Y-29000D01*
X-24501D01*
X-25001Y-28500D01*
X-20003Y-26001D02*
X-22002D01*
Y-27501D01*
X-21002Y-27001D01*
X-20502D01*
X-20003Y-27501D01*
Y-28500D01*
X-20502Y-29000D01*
X-21502D01*
X-22002Y-28500D01*
X72501Y107499D02*
X72001Y107000D01*
Y106000D01*
X72501Y105500D01*
X74500D01*
X75000Y106000D01*
Y107000D01*
X74500Y107499D01*
X75000Y110498D02*
Y108499D01*
X73001Y110498D01*
X72501D01*
X72001Y109999D01*
Y108999D01*
X72501Y108499D01*
X-10501Y-10001D02*
X-11000Y-9501D01*
X-12000D01*
X-12500Y-10001D01*
Y-12000D01*
X-12000Y-12500D01*
X-11000D01*
X-10501Y-12000D01*
X-9501Y-12500D02*
X-8501D01*
X-9001D01*
Y-9501D01*
X-9501Y-10001D01*
X-7002D02*
X-6502Y-9501D01*
X-5502D01*
X-5002Y-10001D01*
Y-10501D01*
X-5502Y-11000D01*
X-6002D01*
X-5502D01*
X-5002Y-11500D01*
Y-12000D01*
X-5502Y-12500D01*
X-6502D01*
X-7002Y-12000D01*
X-40999Y-70001D02*
X-41499Y-70500D01*
Y-71500D01*
X-40999Y-72000D01*
X-39000D01*
X-38500Y-71500D01*
Y-70500D01*
X-39000Y-70001D01*
X-38500Y-67002D02*
Y-69001D01*
X-40499Y-67002D01*
X-40999D01*
X-41499Y-67501D01*
Y-68501D01*
X-40999Y-69001D01*
X-41499Y-66002D02*
Y-64003D01*
X-40999D01*
X-39000Y-66002D01*
X-38500D01*
X-18001Y59999D02*
X-18500Y60499D01*
X-19500D01*
X-20000Y59999D01*
Y58000D01*
X-19500Y57500D01*
X-18500D01*
X-18001Y58000D01*
X-17001Y59999D02*
X-16501Y60499D01*
X-15501D01*
X-15002Y59999D01*
Y59499D01*
X-15501Y59000D01*
X-16001D01*
X-15501D01*
X-15002Y58500D01*
Y58000D01*
X-15501Y57500D01*
X-16501D01*
X-17001Y58000D01*
X-10501Y30999D02*
X-11000Y31499D01*
X-12000D01*
X-12500Y30999D01*
Y29000D01*
X-12000Y28500D01*
X-11000D01*
X-10501Y29000D01*
X-8001Y28500D02*
Y31499D01*
X-9501Y30000D01*
X-7502D01*
X37899Y51699D02*
X37400Y52199D01*
X36400D01*
X35900Y51699D01*
Y49700D01*
X36400Y49200D01*
X37400D01*
X37899Y49700D01*
X40898Y52199D02*
X39899Y51699D01*
X38899Y50700D01*
Y49700D01*
X39399Y49200D01*
X40399D01*
X40898Y49700D01*
Y50200D01*
X40399Y50700D01*
X38899D01*
X7501Y75999D02*
X7001Y75499D01*
Y74500D01*
X7501Y74000D01*
X9500D01*
X10000Y74500D01*
Y75499D01*
X9500Y75999D01*
X7001Y76999D02*
Y78998D01*
X7501D01*
X9500Y76999D01*
X10000D01*
X-999Y75999D02*
X-1499Y75499D01*
Y74500D01*
X-999Y74000D01*
X1000D01*
X1500Y74500D01*
Y75499D01*
X1000Y75999D01*
X-999Y76999D02*
X-1499Y77499D01*
Y78499D01*
X-999Y78998D01*
X-499D01*
X0Y78499D01*
X500Y78998D01*
X1000D01*
X1500Y78499D01*
Y77499D01*
X1000Y76999D01*
X500D01*
X0Y77499D01*
X-499Y76999D01*
X-999D01*
X0Y77499D02*
Y78499D01*
X3501Y75999D02*
X3001Y75499D01*
Y74500D01*
X3501Y74000D01*
X5500D01*
X6000Y74500D01*
Y75499D01*
X5500Y75999D01*
Y76999D02*
X6000Y77499D01*
Y78499D01*
X5500Y78998D01*
X3501D01*
X3001Y78499D01*
Y77499D01*
X3501Y76999D01*
X4001D01*
X4501Y77499D01*
Y78998D01*
X-6001Y49999D02*
X-6500Y50499D01*
X-7500D01*
X-8000Y49999D01*
Y48000D01*
X-7500Y47500D01*
X-6500D01*
X-6001Y48000D01*
X-5001Y47500D02*
X-4001D01*
X-4501D01*
Y50499D01*
X-5001Y49999D01*
X-2502D02*
X-2002Y50499D01*
X-1002D01*
X-502Y49999D01*
Y48000D01*
X-1002Y47500D01*
X-2002D01*
X-2502Y48000D01*
Y49999D01*
X13001Y6499D02*
X12501Y5999D01*
Y5000D01*
X13001Y4500D01*
X15000D01*
X15500Y5000D01*
Y5999D01*
X15000Y6499D01*
X15500Y7499D02*
Y8499D01*
Y7999D01*
X12501D01*
X13001Y7499D01*
X15500Y9998D02*
Y10998D01*
Y10498D01*
X12501D01*
X13001Y9998D01*
X3501Y15999D02*
X3001Y15499D01*
Y14500D01*
X3501Y14000D01*
X5500D01*
X6000Y14500D01*
Y15499D01*
X5500Y15999D01*
X6000Y16999D02*
Y17999D01*
Y17499D01*
X3001D01*
X3501Y16999D01*
X6000Y21498D02*
Y19498D01*
X4001Y21498D01*
X3501D01*
X3001Y20998D01*
Y19998D01*
X3501Y19498D01*
X-38001Y59499D02*
X-38500Y59999D01*
X-39500D01*
X-40000Y59499D01*
Y57500D01*
X-39500Y57000D01*
X-38500D01*
X-38001Y57500D01*
X-35002Y57000D02*
X-37001D01*
X-35002Y58999D01*
Y59499D01*
X-35501Y59999D01*
X-36501D01*
X-37001Y59499D01*
X-32502Y57000D02*
Y59999D01*
X-34002Y58499D01*
X-32003D01*
X-27501Y30999D02*
X-28001Y31499D01*
X-29000D01*
X-29500Y30999D01*
Y29000D01*
X-29000Y28500D01*
X-28001D01*
X-27501Y29000D01*
X-24502Y28500D02*
X-26501D01*
X-24502Y30499D01*
Y30999D01*
X-25001Y31499D01*
X-26001D01*
X-26501Y30999D01*
X-21503Y31499D02*
X-23502D01*
Y30000D01*
X-22502Y30499D01*
X-22002D01*
X-21503Y30000D01*
Y29000D01*
X-22002Y28500D01*
X-23002D01*
X-23502Y29000D01*
X-38569Y79429D02*
X-39069Y78930D01*
Y77930D01*
X-38569Y77430D01*
X-36570D01*
X-36070Y77930D01*
Y78930D01*
X-36570Y79429D01*
X-36070Y82428D02*
Y80429D01*
X-38069Y82428D01*
X-38569D01*
X-39069Y81928D01*
Y80929D01*
X-38569Y80429D01*
X-39069Y85427D02*
X-38569Y84428D01*
X-37569Y83428D01*
X-36570D01*
X-36070Y83928D01*
Y84928D01*
X-36570Y85427D01*
X-37070D01*
X-37569Y84928D01*
Y83428D01*
X34999Y94999D02*
X34499Y95499D01*
X33500D01*
X33000Y94999D01*
Y93000D01*
X33500Y92500D01*
X34499D01*
X34999Y93000D01*
X35999Y94999D02*
X36499Y95499D01*
X37499D01*
X37998Y94999D01*
Y94499D01*
X37499Y93999D01*
X36999D01*
X37499D01*
X37998Y93500D01*
Y93000D01*
X37499Y92500D01*
X36499D01*
X35999Y93000D01*
X40997Y92500D02*
X38998D01*
X40997Y94499D01*
Y94999D01*
X40498Y95499D01*
X39498D01*
X38998Y94999D01*
X28001Y77499D02*
X27501Y76999D01*
Y76000D01*
X28001Y75500D01*
X30000D01*
X30500Y76000D01*
Y76999D01*
X30000Y77499D01*
X28001Y78499D02*
X27501Y78999D01*
Y79999D01*
X28001Y80498D01*
X28501D01*
X29000Y79999D01*
Y79499D01*
Y79999D01*
X29500Y80498D01*
X30000D01*
X30500Y79999D01*
Y78999D01*
X30000Y78499D01*
X28001Y81498D02*
X27501Y81998D01*
Y82998D01*
X28001Y83497D01*
X28501D01*
X29000Y82998D01*
Y82498D01*
Y82998D01*
X29500Y83497D01*
X30000D01*
X30500Y82998D01*
Y81998D01*
X30000Y81498D01*
X-28000Y-93501D02*
Y-96500D01*
X-26500D01*
X-26001Y-96000D01*
Y-94001D01*
X-26500Y-93501D01*
X-28000D01*
X-25001Y-96500D02*
X-24001D01*
X-24501D01*
Y-93501D01*
X-25001Y-94001D01*
X-49000Y133499D02*
Y130500D01*
X-47501D01*
X-47001Y131000D01*
Y132999D01*
X-47501Y133499D01*
X-49000D01*
X-44002Y130500D02*
X-46001D01*
X-44002Y132499D01*
Y132999D01*
X-44501Y133499D01*
X-45501D01*
X-46001Y132999D01*
X54000Y-129501D02*
Y-132500D01*
X55500D01*
X55999Y-132000D01*
Y-130001D01*
X55500Y-129501D01*
X54000D01*
X56999Y-130001D02*
X57499Y-129501D01*
X58499D01*
X58998Y-130001D01*
Y-130501D01*
X58499Y-131000D01*
X57999D01*
X58499D01*
X58998Y-131500D01*
Y-132000D01*
X58499Y-132500D01*
X57499D01*
X56999Y-132000D01*
X-19001Y-122501D02*
X-21000D01*
Y-125500D01*
X-19001D01*
X-21000Y-124001D02*
X-20000D01*
X-16002Y-125500D02*
X-18001D01*
X-16002Y-123501D01*
Y-123001D01*
X-16501Y-122501D01*
X-17501D01*
X-18001Y-123001D01*
X-18001Y-94001D02*
X-20000D01*
Y-97000D01*
X-18001D01*
X-20000Y-95500D02*
X-19000D01*
X-17001Y-94501D02*
X-16501Y-94001D01*
X-15501D01*
X-15002Y-94501D01*
Y-95001D01*
X-15501Y-95500D01*
X-16001D01*
X-15501D01*
X-15002Y-96000D01*
Y-96500D01*
X-15501Y-97000D01*
X-16501D01*
X-17001Y-96500D01*
X19001Y-20001D02*
Y-22000D01*
X20501D01*
Y-21000D01*
Y-22000D01*
X22000D01*
X19001Y-19001D02*
X22000D01*
Y-17501D01*
X21500Y-17002D01*
X21000D01*
X20501Y-17501D01*
Y-19001D01*
Y-17501D01*
X20001Y-17002D01*
X19501D01*
X19001Y-17501D01*
Y-19001D01*
X22000Y-14003D02*
Y-16002D01*
X20001Y-14003D01*
X19501D01*
X19001Y-14502D01*
Y-15502D01*
X19501Y-16002D01*
X-5001Y102499D02*
X-6000D01*
X-5500D01*
Y100000D01*
X-6000Y99500D01*
X-6500D01*
X-7000Y100000D01*
X-4001Y99500D02*
X-3001D01*
X-3501D01*
Y102499D01*
X-4001Y101999D01*
X-49500Y118499D02*
Y115500D01*
X-47501D01*
X-46501Y117999D02*
X-46001Y118499D01*
X-45001D01*
X-44502Y117999D01*
Y117499D01*
X-45001Y116999D01*
X-44502Y116500D01*
Y116000D01*
X-45001Y115500D01*
X-46001D01*
X-46501Y116000D01*
Y116500D01*
X-46001Y116999D01*
X-46501Y117499D01*
Y117999D01*
X-46001Y116999D02*
X-45001D01*
X-14499Y-103000D02*
X-11500D01*
Y-101001D01*
X-14499Y-100001D02*
Y-98002D01*
X-13999D01*
X-12000Y-100001D01*
X-11500D01*
X12501Y74500D02*
X15500D01*
Y76499D01*
Y77499D02*
Y78499D01*
Y77999D01*
X12501D01*
X13001Y77499D01*
X27001Y93000D02*
X30000D01*
Y94999D01*
Y97998D02*
Y95999D01*
X28001Y97998D01*
X27501D01*
X27001Y97499D01*
Y96499D01*
X27501Y95999D01*
X21001Y98500D02*
X24000D01*
Y100499D01*
X21501Y101499D02*
X21001Y101999D01*
Y102999D01*
X21501Y103498D01*
X22001D01*
X22501Y102999D01*
Y102499D01*
Y102999D01*
X23000Y103498D01*
X23500D01*
X24000Y102999D01*
Y101999D01*
X23500Y101499D01*
X27001Y85500D02*
X30000D01*
Y87499D01*
Y89999D02*
X27001D01*
X28501Y88499D01*
Y90498D01*
X-149229Y66315D02*
X-152000Y67462D01*
X-152765Y65615D01*
X-151142Y61697D02*
X-150377Y63544D01*
X-153148Y64692D01*
X-153913Y62845D01*
X-151762Y64118D02*
X-152145Y63194D01*
X-151525Y60773D02*
X-154295Y61921D01*
X-154869Y60536D01*
X-154599Y59882D01*
X-152752Y59117D01*
X-152099Y59388D01*
X-151525Y60773D01*
X-155443Y59150D02*
X-155826Y58227D01*
X-155634Y58688D01*
X-152864Y57541D01*
X-153134Y58194D01*
X57852Y-153387D02*
X59000Y-156157D01*
X60847Y-155392D01*
X62470Y-151474D02*
X60623Y-152239D01*
X61771Y-155010D01*
X63618Y-154244D01*
X61197Y-153624D02*
X62120Y-153242D01*
X63394Y-151091D02*
X64542Y-153862D01*
X65927Y-153288D01*
X66197Y-152635D01*
X65432Y-150788D01*
X64779Y-150517D01*
X63394Y-151091D01*
X68012Y-149178D02*
X66164Y-149943D01*
X66738Y-151329D01*
X67471Y-150485D01*
X67932Y-150293D01*
X68585Y-150564D01*
X68968Y-151487D01*
X68698Y-152140D01*
X67774Y-152523D01*
X67121Y-152252D01*
X-57852Y153229D02*
X-59000Y156000D01*
X-60847Y155235D01*
X-62470Y151316D02*
X-60623Y152082D01*
X-61771Y154852D01*
X-63618Y154087D01*
X-61197Y153467D02*
X-62120Y153084D01*
X-63394Y150934D02*
X-64542Y153705D01*
X-65927Y153131D01*
X-66197Y152478D01*
X-65432Y150631D01*
X-64779Y150360D01*
X-63394Y150934D01*
X-69159Y151792D02*
X-67312Y152557D01*
X-68394Y149945D01*
X-68203Y149483D01*
X-67550Y149212D01*
X-66626Y149595D01*
X-66356Y150248D01*
X148229Y-67852D02*
X151000Y-69000D01*
X151765Y-67153D01*
X150142Y-63234D02*
X149377Y-65082D01*
X152148Y-66229D01*
X152913Y-64382D01*
X150762Y-65655D02*
X151145Y-64732D01*
X150525Y-62311D02*
X153295Y-63459D01*
X153869Y-62073D01*
X153599Y-61420D01*
X151751Y-60655D01*
X151099Y-60926D01*
X150525Y-62311D01*
X152437Y-57693D02*
X152517Y-58808D01*
X153058Y-60114D01*
X153981Y-60496D01*
X154634Y-60226D01*
X155017Y-59302D01*
X154746Y-58649D01*
X154285Y-58458D01*
X153631Y-58729D01*
X153058Y-60114D01*
X66852Y148586D02*
X68000Y151357D01*
X66153Y152122D01*
X62234Y150499D02*
X64082Y149734D01*
X65229Y152505D01*
X63382Y153270D01*
X64655Y151119D02*
X63732Y151502D01*
X61311Y150882D02*
X62458Y153653D01*
X61073Y154226D01*
X60420Y153956D01*
X59655Y152109D01*
X59926Y151456D01*
X61311Y150882D01*
X58731Y152491D02*
X58078Y152221D01*
X57155Y152603D01*
X56884Y153256D01*
X57076Y153718D01*
X57729Y153989D01*
X58190Y153797D01*
X57729Y153989D01*
X57458Y154642D01*
X57649Y155104D01*
X58302Y155374D01*
X59226Y154991D01*
X59496Y154338D01*
X-67852Y-150229D02*
X-69000Y-153000D01*
X-67153Y-153765D01*
X-63234Y-152142D02*
X-65082Y-151377D01*
X-66229Y-154148D01*
X-64382Y-154913D01*
X-65655Y-152762D02*
X-64732Y-153145D01*
X-62311Y-152525D02*
X-63459Y-155295D01*
X-62073Y-155869D01*
X-61420Y-155599D01*
X-60655Y-153752D01*
X-60926Y-153098D01*
X-62311Y-152525D01*
X-59540Y-153672D02*
X-57693Y-154437D01*
X-57884Y-154899D01*
X-60496Y-155981D01*
X-60688Y-156443D01*
X153229Y57852D02*
X156000Y59000D01*
X155235Y60847D01*
X151316Y62470D02*
X152082Y60623D01*
X154852Y61771D01*
X154087Y63618D01*
X153467Y61197D02*
X153084Y62120D01*
X150934Y63394D02*
X153705Y64542D01*
X153131Y65927D01*
X152478Y66197D01*
X150631Y65432D01*
X150360Y64779D01*
X150934Y63394D01*
X151983Y68698D02*
X149212Y67550D01*
X151172Y66738D01*
X150407Y68585D01*
X-153229Y-57852D02*
X-156000Y-59000D01*
X-155235Y-60847D01*
X-151316Y-62470D02*
X-152082Y-60623D01*
X-154852Y-61771D01*
X-154087Y-63618D01*
X-153467Y-61197D02*
X-153084Y-62120D01*
X-150934Y-63394D02*
X-153705Y-64542D01*
X-153131Y-65927D01*
X-152478Y-66197D01*
X-150631Y-65432D01*
X-150360Y-64779D01*
X-150934Y-63394D01*
X-150248Y-66356D02*
X-149595Y-66626D01*
X-149212Y-67550D01*
X-149483Y-68203D01*
X-149945Y-68394D01*
X-150598Y-68124D01*
X-150868Y-68777D01*
X-151330Y-68968D01*
X-151983Y-68698D01*
X-152366Y-67774D01*
X-152095Y-67121D01*
X-151633Y-66930D01*
X-150980Y-67200D01*
X-150710Y-66547D01*
X-150248Y-66356D01*
X-150980Y-67200D02*
X-150598Y-68124D01*
X-1500Y-131000D02*
Y-128001D01*
X-0D01*
X499Y-128501D01*
Y-129500D01*
X-0Y-130000D01*
X-1500D01*
X-500D02*
X499Y-131000D01*
X1499D02*
X2499D01*
X1999D01*
Y-128001D01*
X1499Y-128501D01*
X5498Y-131000D02*
Y-128001D01*
X3998Y-129500D01*
X5998D01*
X-1500Y-102276D02*
X-4499D01*
Y-100776D01*
X-3999Y-100276D01*
X-2999D01*
X-2500Y-100776D01*
Y-102276D01*
Y-101276D02*
X-1500Y-100276D01*
Y-99277D02*
Y-98277D01*
Y-98777D01*
X-4499D01*
X-3999Y-99277D01*
X-4499Y-94778D02*
Y-96777D01*
X-2999D01*
X-3499Y-95778D01*
Y-95278D01*
X-2999Y-94778D01*
X-2000D01*
X-1500Y-95278D01*
Y-96277D01*
X-2000Y-96777D01*
X37486Y-112672D02*
Y-109673D01*
X38985D01*
X39485Y-110173D01*
Y-111173D01*
X38985Y-111673D01*
X37486D01*
X38486D02*
X39485Y-112672D01*
X42484D02*
X40485D01*
X42484Y-110673D01*
Y-110173D01*
X41984Y-109673D01*
X40985D01*
X40485Y-110173D01*
X44983Y-112672D02*
Y-109673D01*
X43484Y-111173D01*
X45483D01*
X36986Y-119172D02*
Y-116173D01*
X38485D01*
X38985Y-116673D01*
Y-117673D01*
X38485Y-118173D01*
X36986D01*
X37986D02*
X38985Y-119172D01*
X41984D02*
X39985D01*
X41984Y-117173D01*
Y-116673D01*
X41484Y-116173D01*
X40485D01*
X39985Y-116673D01*
X44983Y-116173D02*
X42984D01*
Y-117673D01*
X43984Y-117173D01*
X44483D01*
X44983Y-117673D01*
Y-118673D01*
X44483Y-119172D01*
X43484D01*
X42984Y-118673D01*
X106500Y105500D02*
X103501D01*
Y107000D01*
X104001Y107499D01*
X105000D01*
X105500Y107000D01*
Y105500D01*
Y106500D02*
X106500Y107499D01*
Y108499D02*
Y109499D01*
Y108999D01*
X103501D01*
X104001Y108499D01*
X106500Y118000D02*
X103501D01*
Y119500D01*
X104001Y119999D01*
X105000D01*
X105500Y119500D01*
Y118000D01*
Y119000D02*
X106500Y119999D01*
Y122998D02*
Y120999D01*
X104501Y122998D01*
X104001D01*
X103501Y122499D01*
Y121499D01*
X104001Y120999D01*
X1000Y84500D02*
X-1999D01*
Y86000D01*
X-1499Y86499D01*
X-500D01*
X0Y86000D01*
Y84500D01*
Y85500D02*
X1000Y86499D01*
X-1999Y89498D02*
Y87499D01*
X-500D01*
X-999Y88499D01*
Y88999D01*
X-500Y89498D01*
X500D01*
X1000Y88999D01*
Y87999D01*
X500Y87499D01*
X-24570Y68930D02*
X-27569D01*
Y70429D01*
X-27069Y70929D01*
X-26070D01*
X-25570Y70429D01*
Y68930D01*
Y69930D02*
X-24570Y70929D01*
X-27569Y73928D02*
X-27069Y72929D01*
X-26070Y71929D01*
X-25070D01*
X-24570Y72429D01*
Y73428D01*
X-25070Y73928D01*
X-25570D01*
X-26070Y73428D01*
Y71929D01*
X-10500Y73000D02*
Y75999D01*
X-9001D01*
X-8501Y75499D01*
Y74499D01*
X-9001Y74000D01*
X-10500D01*
X-9500D02*
X-8501Y73000D01*
X-7501D02*
X-6501D01*
X-7001D01*
Y75999D01*
X-7501Y75499D01*
X-5002D02*
X-4502Y75999D01*
X-3502D01*
X-3002Y75499D01*
Y73500D01*
X-3502Y73000D01*
X-4502D01*
X-5002Y73500D01*
Y75499D01*
X-33500Y-72000D02*
X-36499D01*
Y-70500D01*
X-35999Y-70001D01*
X-34999D01*
X-34500Y-70500D01*
Y-72000D01*
Y-71000D02*
X-33500Y-70001D01*
Y-69001D02*
Y-68001D01*
Y-68501D01*
X-36499D01*
X-35999Y-69001D01*
X-33500Y-66502D02*
Y-65502D01*
Y-66002D01*
X-36499D01*
X-35999Y-66502D01*
X-29000Y-72000D02*
X-31999D01*
Y-70500D01*
X-31499Y-70001D01*
X-30500D01*
X-30000Y-70500D01*
Y-72000D01*
Y-71000D02*
X-29000Y-70001D01*
X-29500Y-69001D02*
X-29000Y-68501D01*
Y-67501D01*
X-29500Y-67002D01*
X-31499D01*
X-31999Y-67501D01*
Y-68501D01*
X-31499Y-69001D01*
X-30999D01*
X-30500Y-68501D01*
Y-67002D01*
X-53000Y138999D02*
X-51001D01*
X-52000D01*
Y136000D01*
X-50001D02*
Y138999D01*
X-48501D01*
X-48002Y138499D01*
Y137499D01*
X-48501Y137000D01*
X-50001D01*
X-47002Y136500D02*
X-46502Y136000D01*
X-45502D01*
X-45003Y136500D01*
Y138499D01*
X-45502Y138999D01*
X-46502D01*
X-47002Y138499D01*
Y137999D01*
X-46502Y137499D01*
X-45003D01*
X54000Y-140001D02*
X55999D01*
X55000D01*
Y-143000D01*
X56999D02*
Y-140001D01*
X58499D01*
X58998Y-140501D01*
Y-141500D01*
X58499Y-142000D01*
X56999D01*
X59998Y-143000D02*
X60998D01*
X60498D01*
Y-140001D01*
X59998Y-140501D01*
X64497Y-140001D02*
X62497D01*
Y-141500D01*
X63497Y-141001D01*
X63997D01*
X64497Y-141500D01*
Y-142500D01*
X63997Y-143000D01*
X62997D01*
X62497Y-142500D01*
X31001Y-110000D02*
Y-108001D01*
Y-109000D01*
X34000D01*
Y-107001D02*
X31001D01*
Y-105501D01*
X31501Y-105002D01*
X32500D01*
X33000Y-105501D01*
Y-107001D01*
X31001Y-102003D02*
X31501Y-103002D01*
X32500Y-104002D01*
X33500D01*
X34000Y-103502D01*
Y-102502D01*
X33500Y-102003D01*
X33000D01*
X32500Y-102502D01*
Y-104002D01*
X46400Y-105701D02*
X48399D01*
X47400D01*
Y-108700D01*
X49399D02*
Y-105701D01*
X50899D01*
X51398Y-106201D01*
Y-107201D01*
X50899Y-107700D01*
X49399D01*
X52398Y-108700D02*
X53398D01*
X52898D01*
Y-105701D01*
X52398Y-106201D01*
X54897D02*
X55397Y-105701D01*
X56397D01*
X56897Y-106201D01*
Y-106701D01*
X56397Y-107201D01*
X56897Y-107700D01*
Y-108200D01*
X56397Y-108700D01*
X55397D01*
X54897Y-108200D01*
Y-107700D01*
X55397Y-107201D01*
X54897Y-106701D01*
Y-106201D01*
X55397Y-107201D02*
X56397D01*
X46000Y-121001D02*
X47999D01*
X47000D01*
Y-124000D01*
X48999D02*
Y-121001D01*
X50499D01*
X50998Y-121501D01*
Y-122501D01*
X50499Y-123000D01*
X48999D01*
X51998Y-124000D02*
X52998D01*
X52498D01*
Y-121001D01*
X51998Y-121501D01*
X54497Y-123500D02*
X54997Y-124000D01*
X55997D01*
X56497Y-123500D01*
Y-121501D01*
X55997Y-121001D01*
X54997D01*
X54497Y-121501D01*
Y-122001D01*
X54997Y-122501D01*
X56497D01*
X21501Y-78500D02*
Y-76501D01*
Y-77500D01*
X24500D01*
Y-75501D02*
X21501D01*
Y-74001D01*
X22001Y-73502D01*
X23000D01*
X23500Y-74001D01*
Y-75501D01*
X21501Y-72502D02*
Y-70503D01*
X22001D01*
X24000Y-72502D01*
X24500D01*
X38765Y37143D02*
Y39142D01*
Y38142D01*
X41764D01*
Y40141D02*
X38765D01*
Y41641D01*
X39265Y42141D01*
X40265D01*
X40765Y41641D01*
Y40141D01*
X41764Y43141D02*
Y44140D01*
Y43640D01*
X38765D01*
X39265Y43141D01*
X410Y96329D02*
X2409D01*
X1410D01*
Y93330D01*
X3409D02*
Y96329D01*
X4909D01*
X5408Y95829D01*
Y94829D01*
X4909Y94330D01*
X3409D01*
X8407Y93330D02*
X6408D01*
X8407Y95329D01*
Y95829D01*
X7908Y96329D01*
X6908D01*
X6408Y95829D01*
X-100000Y125999D02*
Y123500D01*
X-99500Y123000D01*
X-98501D01*
X-98001Y123500D01*
Y125999D01*
X-95501Y123000D02*
Y125999D01*
X-97001Y124499D01*
X-95002D01*
X99000Y-118501D02*
Y-121000D01*
X99500Y-121500D01*
X100499D01*
X100999Y-121000D01*
Y-118501D01*
X103998D02*
X101999D01*
Y-120001D01*
X102999Y-119501D01*
X103499D01*
X103998Y-120001D01*
Y-121000D01*
X103499Y-121500D01*
X102499D01*
X101999Y-121000D01*
X85201Y130952D02*
Y128452D01*
X85701Y127953D01*
X86700D01*
X87200Y128452D01*
Y130952D01*
X88200Y127953D02*
X89200D01*
X88700D01*
Y130952D01*
X88200Y130452D01*
X19500Y-38001D02*
Y-40500D01*
X20000Y-41000D01*
X21000D01*
X21499Y-40500D01*
Y-38001D01*
X22499Y-38501D02*
X22999Y-38001D01*
X23999D01*
X24498Y-38501D01*
Y-39001D01*
X23999Y-39500D01*
X23499D01*
X23999D01*
X24498Y-40000D01*
Y-40500D01*
X23999Y-41000D01*
X22999D01*
X22499Y-40500D01*
X33501Y34500D02*
X36000D01*
X36500Y35000D01*
Y36000D01*
X36000Y36499D01*
X33501D01*
X36500Y39498D02*
Y37499D01*
X34501Y39498D01*
X34001D01*
X33501Y38999D01*
Y37999D01*
X34001Y37499D01*
X-29001Y-36500D02*
X-29501D01*
X-30501Y-37500D01*
X-29501Y-38499D01*
X-29001D01*
X-30501Y-37500D02*
X-32000D01*
X-29501Y-39499D02*
X-29001Y-39999D01*
Y-40999D01*
X-29501Y-41498D01*
X-30001D01*
X-30501Y-40999D01*
Y-40499D01*
Y-40999D01*
X-31000Y-41498D01*
X-31500D01*
X-32000Y-40999D01*
Y-39999D01*
X-31500Y-39499D01*
X-41000Y33499D02*
Y32999D01*
X-40000Y31999D01*
X-39001Y32999D01*
Y33499D01*
X-40000Y31999D02*
Y30500D01*
X-38001D02*
X-37001D01*
X-37501D01*
Y33499D01*
X-38001Y32999D01*
X40501Y98000D02*
X41001D01*
X42000Y99000D01*
X41001Y99999D01*
X40501D01*
X42000Y99000D02*
X43500D01*
Y102998D02*
Y100999D01*
X41501Y102998D01*
X41001D01*
X40501Y102499D01*
Y101499D01*
X41001Y100999D01*
X30501Y-99000D02*
X33500D01*
Y-97001D01*
X30501Y-94002D02*
X31001Y-95001D01*
X32000Y-96001D01*
X33000D01*
X33500Y-95501D01*
Y-94501D01*
X33000Y-94002D01*
X32500D01*
X32000Y-94501D01*
Y-96001D01*
X38960Y160023D02*
X36961D01*
Y157024D01*
X38960D01*
X36961Y158523D02*
X37960D01*
X39960Y157024D02*
X40959D01*
X40459D01*
Y160023D01*
X39960Y159523D01*
X39370Y139764D02*
Y142763D01*
X41369Y139764D01*
Y142763D01*
X42869Y139764D02*
X43869D01*
X44368Y140264D01*
Y141263D01*
X43869Y141763D01*
X42869D01*
X42369Y141263D01*
Y140264D01*
X42869Y139764D01*
X50366Y142263D02*
X49867Y142763D01*
X48867D01*
X48367Y142263D01*
Y140264D01*
X48867Y139764D01*
X49867D01*
X50366Y140264D01*
Y141263D01*
X49367D01*
X51366Y141763D02*
Y139764D01*
Y140763D01*
X51866Y141263D01*
X52366Y141763D01*
X52866D01*
X54865Y139764D02*
X55865D01*
X56365Y140264D01*
Y141263D01*
X55865Y141763D01*
X54865D01*
X54365Y141263D01*
Y140264D01*
X54865Y139764D01*
X57364Y141763D02*
Y140264D01*
X57864Y139764D01*
X59364D01*
Y141763D01*
X60363Y139764D02*
Y141763D01*
X61863D01*
X62363Y141263D01*
Y139764D01*
X65362Y142763D02*
Y139764D01*
X63862D01*
X63362Y140264D01*
Y141263D01*
X63862Y141763D01*
X65362D01*
D12*
X-1138Y-64638D02*
Y-62253D01*
Y-42362D02*
X1249D01*
X21138Y-64638D02*
Y-62253D01*
X18751Y-42362D02*
X21138D01*
X-1138Y-44747D02*
Y-42362D01*
Y-64638D02*
X1249D01*
X18751D02*
X21138D01*
Y-44747D02*
Y-42362D01*
X5394Y30394D02*
Y32778D01*
Y56606D02*
X7780D01*
X31606Y30394D02*
Y32778D01*
X29219Y56606D02*
X31606D01*
X5394Y54222D02*
Y56606D01*
Y30394D02*
X7780D01*
X29219D02*
X31606D01*
Y54222D02*
Y56606D01*
D70*
X84071Y-131417D02*
G03*
X84071Y-131417I-492J0D01*
G01*
X-75457Y128917D02*
G03*
X-75457Y128917I-492J0D01*
G01*
D71*
X91992Y110945D02*
G03*
X91992Y110945I-492J0D01*
G01*
D72*
X24409Y128347D02*
G03*
X24409Y128347I-394J0D01*
G01*
X-58437Y133468D02*
X-50563D01*
X-58437Y129532D02*
X-50563D01*
X66161Y-130870D02*
X74035D01*
X66161Y-126933D02*
X74035D01*
X94602Y-128071D02*
X96571D01*
Y-126102D01*
Y-113898D02*
Y-111929D01*
X94602D02*
X96571D01*
X80429D02*
X82398D01*
X80429Y-113898D02*
Y-111929D01*
Y-128071D02*
Y-126102D01*
Y-128071D02*
X82398D01*
X78606Y113504D02*
Y126496D01*
X95929Y113504D02*
Y126496D01*
X78606Y113504D02*
X95929D01*
X78606Y126496D02*
X95929D01*
X-88941Y125571D02*
X-86972D01*
X-88941Y123602D02*
Y125571D01*
Y109429D02*
Y111398D01*
Y109429D02*
X-86972D01*
X-74768D02*
X-72799D01*
Y111398D01*
Y123602D02*
Y125571D01*
X-74768D02*
X-72799D01*
X-142032Y96098D02*
X-96559D01*
X-142032Y-97098D02*
Y96098D01*
X-96559Y-97098D02*
Y96098D01*
X-142032Y-97098D02*
X-96559D01*
X45968Y96098D02*
X91441D01*
X45968Y-97098D02*
Y96098D01*
X91441Y-97098D02*
Y96098D01*
X45968Y-97098D02*
X91441D01*
X96559D02*
X142032D01*
Y96098D01*
X96559Y-97098D02*
Y96098D01*
X142032D01*
X-91441Y-97098D02*
X-45968D01*
Y96098D01*
X-91441Y-97098D02*
Y96098D01*
X-45968D01*
X33465Y135236D02*
Y156102D01*
X25591Y135236D02*
Y156102D01*
X-147148Y68461D02*
Y73708D01*
X-147436Y-84500D02*
Y-79252D01*
X-150060Y-81876D02*
X-144812D01*
X71000Y99564D02*
X65752D01*
X51864Y-104600D02*
Y-99352D01*
X49240Y-101976D02*
X54488D01*
X147148Y-69461D02*
Y-74708D01*
X147436Y85000D02*
Y79752D01*
X150060Y82376D02*
X144812D01*
X-40564Y-84000D02*
Y-89248D01*
X-41564Y95000D02*
Y89752D01*
X-38940Y92376D02*
X-44188D01*
D73*
X-24667Y-69834D02*
X-25000Y-69501D01*
X-25667D01*
X-26000Y-69834D01*
Y-71167D01*
X-25667Y-71500D01*
X-25000D01*
X-24667Y-71167D01*
X-24001Y-71500D02*
X-23334D01*
X-23667D01*
Y-69501D01*
X-24001Y-69834D01*
X-21002Y-69501D02*
X-21668Y-69834D01*
X-22334Y-70500D01*
Y-71167D01*
X-22001Y-71500D01*
X-21335D01*
X-21002Y-71167D01*
Y-70834D01*
X-21335Y-70500D01*
X-22334D01*
X-25167Y-64834D02*
X-25500Y-64501D01*
X-26167D01*
X-26500Y-64834D01*
Y-66167D01*
X-26167Y-66500D01*
X-25500D01*
X-25167Y-66167D01*
X-24501Y-66500D02*
X-23834D01*
X-24167D01*
Y-64501D01*
X-24501Y-64834D01*
X-22835Y-64501D02*
X-21502D01*
Y-64834D01*
X-22835Y-66167D01*
Y-66500D01*
X-25167Y-74334D02*
X-25500Y-74001D01*
X-26167D01*
X-26500Y-74334D01*
Y-75667D01*
X-26167Y-76000D01*
X-25500D01*
X-25167Y-75667D01*
X-24501Y-76000D02*
X-23834D01*
X-24167D01*
Y-74001D01*
X-24501Y-74334D01*
X-21835Y-76000D02*
Y-74001D01*
X-22835Y-75000D01*
X-21502D01*
X-29267Y-49734D02*
X-29600Y-49401D01*
X-30267D01*
X-30600Y-49734D01*
Y-51067D01*
X-30267Y-51400D01*
X-29600D01*
X-29267Y-51067D01*
X-28601Y-49734D02*
X-28267Y-49401D01*
X-27601D01*
X-27268Y-49734D01*
Y-50067D01*
X-27601Y-50400D01*
X-27934D01*
X-27601D01*
X-27268Y-50734D01*
Y-51067D01*
X-27601Y-51400D01*
X-28267D01*
X-28601Y-51067D01*
X-25268Y-49401D02*
X-25935Y-49734D01*
X-26601Y-50400D01*
Y-51067D01*
X-26268Y-51400D01*
X-25602D01*
X-25268Y-51067D01*
Y-50734D01*
X-25602Y-50400D01*
X-26601D01*
X-4667Y-66834D02*
X-5000Y-66501D01*
X-5667D01*
X-6000Y-66834D01*
Y-68167D01*
X-5667Y-68500D01*
X-5000D01*
X-4667Y-68167D01*
X-2668Y-68500D02*
X-4001D01*
X-2668Y-67167D01*
Y-66834D01*
X-3001Y-66501D01*
X-3667D01*
X-4001Y-66834D01*
X-2001D02*
X-1668Y-66501D01*
X-1002D01*
X-668Y-66834D01*
Y-68167D01*
X-1002Y-68500D01*
X-1668D01*
X-2001Y-68167D01*
Y-66834D01*
X833D02*
X500Y-66501D01*
X-167D01*
X-500Y-66834D01*
Y-68167D01*
X-167Y-68500D01*
X500D01*
X833Y-68167D01*
X2832Y-68500D02*
X1499D01*
X2832Y-67167D01*
Y-66834D01*
X2499Y-66501D01*
X1833D01*
X1499Y-66834D01*
X3499Y-68500D02*
X4165D01*
X3832D01*
Y-66501D01*
X3499Y-66834D01*
X1334Y-82167D02*
X1001Y-82500D01*
Y-83167D01*
X1334Y-83500D01*
X2667D01*
X3000Y-83167D01*
Y-82500D01*
X2667Y-82167D01*
X3000Y-80501D02*
X1001D01*
X2000Y-81501D01*
Y-80168D01*
X1334Y-79501D02*
X1001Y-79168D01*
Y-78502D01*
X1334Y-78168D01*
X2667D01*
X3000Y-78502D01*
Y-79168D01*
X2667Y-79501D01*
X1334D01*
X41334Y-62667D02*
X41001Y-63000D01*
Y-63667D01*
X41334Y-64000D01*
X42667D01*
X43000Y-63667D01*
Y-63000D01*
X42667Y-62667D01*
X43000Y-60668D02*
Y-62001D01*
X41667Y-60668D01*
X41334D01*
X41001Y-61001D01*
Y-61667D01*
X41334Y-62001D01*
X43000Y-58668D02*
Y-60001D01*
X41667Y-58668D01*
X41334D01*
X41001Y-59002D01*
Y-59668D01*
X41334Y-60001D01*
X39834Y-56667D02*
X39501Y-57000D01*
Y-57667D01*
X39834Y-58000D01*
X41167D01*
X41500Y-57667D01*
Y-57000D01*
X41167Y-56667D01*
X41500Y-54668D02*
Y-56001D01*
X40167Y-54668D01*
X39834D01*
X39501Y-55001D01*
Y-55667D01*
X39834Y-56001D01*
Y-54001D02*
X39501Y-53668D01*
Y-53002D01*
X39834Y-52668D01*
X40167D01*
X40500Y-53002D01*
Y-53335D01*
Y-53002D01*
X40834Y-52668D01*
X41167D01*
X41500Y-53002D01*
Y-53668D01*
X41167Y-54001D01*
X-29167Y-54834D02*
X-29500Y-54501D01*
X-30167D01*
X-30500Y-54834D01*
Y-56167D01*
X-30167Y-56500D01*
X-29500D01*
X-29167Y-56167D01*
X-28501Y-56500D02*
X-27834D01*
X-28167D01*
Y-54501D01*
X-28501Y-54834D01*
X-26834D02*
X-26501Y-54501D01*
X-25835D01*
X-25502Y-54834D01*
Y-55167D01*
X-25835Y-55500D01*
X-25502Y-55834D01*
Y-56167D01*
X-25835Y-56500D01*
X-26501D01*
X-26834Y-56167D01*
Y-55834D01*
X-26501Y-55500D01*
X-26834Y-55167D01*
Y-54834D01*
X-26501Y-55500D02*
X-25835D01*
X-29167Y-59834D02*
X-29500Y-59501D01*
X-30167D01*
X-30500Y-59834D01*
Y-61167D01*
X-30167Y-61500D01*
X-29500D01*
X-29167Y-61167D01*
X-28501Y-61500D02*
X-27834D01*
X-28167D01*
Y-59501D01*
X-28501Y-59834D01*
X-26834Y-61167D02*
X-26501Y-61500D01*
X-25835D01*
X-25502Y-61167D01*
Y-59834D01*
X-25835Y-59501D01*
X-26501D01*
X-26834Y-59834D01*
Y-60167D01*
X-26501Y-60500D01*
X-25502D01*
X30334Y2833D02*
X30001Y2500D01*
Y1833D01*
X30334Y1500D01*
X31667D01*
X32000Y1833D01*
Y2500D01*
X31667Y2833D01*
X30001Y4832D02*
Y3499D01*
X31000D01*
X30667Y4166D01*
Y4499D01*
X31000Y4832D01*
X31667D01*
X32000Y4499D01*
Y3833D01*
X31667Y3499D01*
X15917Y59666D02*
X15501Y59250D01*
Y58416D01*
X15917Y58000D01*
X17583D01*
X18000Y58416D01*
Y59250D01*
X17583Y59666D01*
X18000Y62165D02*
Y60499D01*
X16334Y62165D01*
X15917D01*
X15501Y61749D01*
Y60916D01*
X15917Y60499D01*
Y62998D02*
X15501Y63415D01*
Y64248D01*
X15917Y64665D01*
X16334D01*
X16750Y64248D01*
X17167Y64665D01*
X17583D01*
X18000Y64248D01*
Y63415D01*
X17583Y62998D01*
X17167D01*
X16750Y63415D01*
X16334Y62998D01*
X15917D01*
X16750Y63415D02*
Y64248D01*
X17417Y79666D02*
X17001Y79250D01*
Y78417D01*
X17417Y78000D01*
X19083D01*
X19500Y78417D01*
Y79250D01*
X19083Y79666D01*
X19500Y82165D02*
Y80499D01*
X17834Y82165D01*
X17417D01*
X17001Y81749D01*
Y80916D01*
X17417Y80499D01*
X19083Y82998D02*
X19500Y83415D01*
Y84248D01*
X19083Y84664D01*
X17417D01*
X17001Y84248D01*
Y83415D01*
X17417Y82998D01*
X17834D01*
X18250Y83415D01*
Y84664D01*
X27917Y60166D02*
X27501Y59750D01*
Y58916D01*
X27917Y58500D01*
X29583D01*
X30000Y58916D01*
Y59750D01*
X29583Y60166D01*
X27917Y60999D02*
X27501Y61416D01*
Y62249D01*
X27917Y62665D01*
X28334D01*
X28750Y62249D01*
Y61832D01*
Y62249D01*
X29167Y62665D01*
X29583D01*
X30000Y62249D01*
Y61416D01*
X29583Y60999D01*
X27917Y63498D02*
X27501Y63915D01*
Y64748D01*
X27917Y65165D01*
X29583D01*
X30000Y64748D01*
Y63915D01*
X29583Y63498D01*
X27917D01*
X37333Y65166D02*
X37000Y65499D01*
X36333D01*
X36000Y65166D01*
Y63833D01*
X36333Y63500D01*
X37000D01*
X37333Y63833D01*
X37999Y65166D02*
X38333Y65499D01*
X38999D01*
X39332Y65166D01*
Y64833D01*
X38999Y64500D01*
X38666D01*
X38999D01*
X39332Y64166D01*
Y63833D01*
X38999Y63500D01*
X38333D01*
X37999Y63833D01*
X39999Y63500D02*
X40665D01*
X40332D01*
Y65499D01*
X39999Y65166D01*
X10166Y88083D02*
X9750Y88499D01*
X8917D01*
X8500Y88083D01*
Y86417D01*
X8917Y86000D01*
X9750D01*
X10166Y86417D01*
X10999Y88083D02*
X11416Y88499D01*
X12249D01*
X12665Y88083D01*
Y87666D01*
X12249Y87250D01*
X11832D01*
X12249D01*
X12665Y86833D01*
Y86417D01*
X12249Y86000D01*
X11416D01*
X10999Y86417D01*
X14748Y86000D02*
Y88499D01*
X13498Y87250D01*
X15165D01*
X32001Y59333D02*
Y58000D01*
X33000D01*
Y58666D01*
Y58000D01*
X34000D01*
X32001Y59999D02*
X34000D01*
Y60999D01*
X33667Y61332D01*
X33334D01*
X33000Y60999D01*
Y59999D01*
Y60999D01*
X32667Y61332D01*
X32334D01*
X32001Y60999D01*
Y59999D01*
X34000Y61999D02*
Y62665D01*
Y62332D01*
X32001D01*
X32334Y61999D01*
X64800Y-110301D02*
Y-112300D01*
X66133D01*
X66799Y-111967D02*
X67133Y-112300D01*
X67799D01*
X68132Y-111967D01*
Y-110634D01*
X67799Y-110301D01*
X67133D01*
X66799Y-110634D01*
Y-110967D01*
X67133Y-111300D01*
X68132D01*
X501Y-89000D02*
X2500D01*
Y-87667D01*
X501Y-85668D02*
Y-87001D01*
X1500D01*
X1167Y-86334D01*
Y-86001D01*
X1500Y-85668D01*
X2167D01*
X2500Y-86001D01*
Y-86667D01*
X2167Y-87001D01*
X-85500Y99000D02*
X-87499D01*
Y100000D01*
X-87166Y100333D01*
X-86500D01*
X-86166Y100000D01*
Y99000D01*
Y99666D02*
X-85500Y100333D01*
Y100999D02*
Y101666D01*
Y101333D01*
X-87499D01*
X-87166Y100999D01*
X-87499Y103998D02*
X-87166Y103332D01*
X-86500Y102665D01*
X-85833D01*
X-85500Y102999D01*
Y103665D01*
X-85833Y103998D01*
X-86166D01*
X-86500Y103665D01*
Y102665D01*
X84500Y-100500D02*
Y-98501D01*
X85500D01*
X85833Y-98834D01*
Y-99500D01*
X85500Y-99834D01*
X84500D01*
X85166D02*
X85833Y-100500D01*
X87832D02*
X86499D01*
X87832Y-99167D01*
Y-98834D01*
X87499Y-98501D01*
X86833D01*
X86499Y-98834D01*
X88499Y-100500D02*
X89165D01*
X88832D01*
Y-98501D01*
X88499Y-98834D01*
X-88500Y99000D02*
X-90499D01*
Y100000D01*
X-90166Y100333D01*
X-89500D01*
X-89166Y100000D01*
Y99000D01*
Y99666D02*
X-88500Y100333D01*
Y100999D02*
Y101666D01*
Y101333D01*
X-90499D01*
X-90166Y100999D01*
X-90499Y102665D02*
Y103998D01*
X-90166D01*
X-88833Y102665D01*
X-88500D01*
X95500Y-102700D02*
X93501D01*
Y-101700D01*
X93834Y-101367D01*
X94500D01*
X94834Y-101700D01*
Y-102700D01*
Y-102034D02*
X95500Y-101367D01*
Y-99368D02*
Y-100701D01*
X94167Y-99368D01*
X93834D01*
X93501Y-99701D01*
Y-100367D01*
X93834Y-100701D01*
X95500Y-97368D02*
Y-98701D01*
X94167Y-97368D01*
X93834D01*
X93501Y-97702D01*
Y-98368D01*
X93834Y-98701D01*
X-70500Y101500D02*
X-72499D01*
Y102500D01*
X-72166Y102833D01*
X-71500D01*
X-71166Y102500D01*
Y101500D01*
Y102166D02*
X-70500Y102833D01*
Y103499D02*
Y104166D01*
Y103833D01*
X-72499D01*
X-72166Y103499D01*
Y105166D02*
X-72499Y105499D01*
Y106165D01*
X-72166Y106498D01*
X-71833D01*
X-71500Y106165D01*
X-71166Y106498D01*
X-70833D01*
X-70500Y106165D01*
Y105499D01*
X-70833Y105166D01*
X-71166D01*
X-71500Y105499D01*
X-71833Y105166D01*
X-72166D01*
X-71500Y105499D02*
Y106165D01*
X76000Y-100500D02*
Y-98501D01*
X77000D01*
X77333Y-98834D01*
Y-99500D01*
X77000Y-99834D01*
X76000D01*
X76666D02*
X77333Y-100500D01*
X79332D02*
X77999D01*
X79332Y-99167D01*
Y-98834D01*
X78999Y-98501D01*
X78333D01*
X77999Y-98834D01*
X79999D02*
X80332Y-98501D01*
X80998D01*
X81332Y-98834D01*
Y-99167D01*
X80998Y-99500D01*
X80665D01*
X80998D01*
X81332Y-99834D01*
Y-100167D01*
X80998Y-100500D01*
X80332D01*
X79999Y-100167D01*
X-49000Y97500D02*
Y99499D01*
X-48000D01*
X-47667Y99166D01*
Y98500D01*
X-48000Y98166D01*
X-49000D01*
X-48334D02*
X-47667Y97500D01*
X-47001D02*
X-46334D01*
X-46667D01*
Y99499D01*
X-47001Y99166D01*
X-45335Y97833D02*
X-45001Y97500D01*
X-44335D01*
X-44002Y97833D01*
Y99166D01*
X-44335Y99499D01*
X-45001D01*
X-45335Y99166D01*
Y98833D01*
X-45001Y98500D01*
X-44002D01*
X-49000Y100500D02*
Y102499D01*
X-48000D01*
X-47667Y102166D01*
Y101500D01*
X-48000Y101166D01*
X-49000D01*
X-48334D02*
X-47667Y100500D01*
X-45668D02*
X-47001D01*
X-45668Y101833D01*
Y102166D01*
X-46001Y102499D01*
X-46667D01*
X-47001Y102166D01*
X-45001D02*
X-44668Y102499D01*
X-44002D01*
X-43668Y102166D01*
Y100833D01*
X-44002Y100500D01*
X-44668D01*
X-45001Y100833D01*
Y102166D01*
X37000Y18000D02*
Y20499D01*
X38250D01*
X38666Y20083D01*
Y19250D01*
X38250Y18833D01*
X37000D01*
X37833D02*
X38666Y18000D01*
X39499Y20083D02*
X39916Y20499D01*
X40749D01*
X41165Y20083D01*
Y19666D01*
X40749Y19250D01*
X40332D01*
X40749D01*
X41165Y18833D01*
Y18417D01*
X40749Y18000D01*
X39916D01*
X39499Y18417D01*
X0Y-39500D02*
X-1999D01*
Y-38500D01*
X-1666Y-38167D01*
X-1000D01*
X-667Y-38500D01*
Y-39500D01*
Y-38834D02*
X0Y-38167D01*
Y-37501D02*
Y-36834D01*
Y-37167D01*
X-1999D01*
X-1666Y-37501D01*
X0Y-34502D02*
Y-35835D01*
X-1333Y-34502D01*
X-1666D01*
X-1999Y-34835D01*
Y-35501D01*
X-1666Y-35835D01*
X29000Y-41000D02*
Y-39001D01*
X30000D01*
X30333Y-39334D01*
Y-40000D01*
X30000Y-40334D01*
X29000D01*
X29666D02*
X30333Y-41000D01*
X30999D02*
X31666D01*
X31333D01*
Y-39001D01*
X30999Y-39334D01*
X32666D02*
X32999Y-39001D01*
X33665D01*
X33998Y-39334D01*
Y-39667D01*
X33665Y-40000D01*
X33332D01*
X33665D01*
X33998Y-40334D01*
Y-40667D01*
X33665Y-41000D01*
X32999D01*
X32666Y-40667D01*
X36000Y4500D02*
Y6999D01*
X37250D01*
X37666Y6583D01*
Y5750D01*
X37250Y5333D01*
X36000D01*
X36833D02*
X37666Y4500D01*
X38499Y6999D02*
X40165D01*
Y6583D01*
X38499Y4916D01*
Y4500D01*
X22500Y17500D02*
X20001D01*
Y18750D01*
X20417Y19166D01*
X21250D01*
X21667Y18750D01*
Y17500D01*
Y18333D02*
X22500Y19166D01*
Y21249D02*
X20001D01*
X21250Y19999D01*
Y21665D01*
X22500Y10000D02*
X20001D01*
Y11250D01*
X20417Y11666D01*
X21250D01*
X21667Y11250D01*
Y10000D01*
Y10833D02*
X22500Y11666D01*
X20417Y12499D02*
X20001Y12916D01*
Y13749D01*
X20417Y14165D01*
X20834D01*
X21250Y13749D01*
X21667Y14165D01*
X22084D01*
X22500Y13749D01*
Y12916D01*
X22084Y12499D01*
X21667D01*
X21250Y12916D01*
X20834Y12499D01*
X20417D01*
X21250Y12916D02*
Y13749D01*
X-109500Y113499D02*
X-107834D01*
X-108667D01*
Y111000D01*
X-107001D02*
Y113499D01*
X-105751D01*
X-105335Y113083D01*
Y112250D01*
X-105751Y111833D01*
X-107001D01*
X-104502Y111000D02*
X-103669D01*
X-104085D01*
Y113499D01*
X-104502Y113083D01*
X-102419D02*
X-102002Y113499D01*
X-101169D01*
X-100753Y113083D01*
Y111416D01*
X-101169Y111000D01*
X-102002D01*
X-102419Y111416D01*
Y113083D01*
X104000Y-98501D02*
X105333D01*
X104666D01*
Y-100500D01*
X105999D02*
Y-98501D01*
X106999D01*
X107332Y-98834D01*
Y-99500D01*
X106999Y-99834D01*
X105999D01*
X107999Y-100500D02*
X108665D01*
X108332D01*
Y-98501D01*
X107999Y-98834D01*
X110998Y-98501D02*
X110331Y-98834D01*
X109665Y-99500D01*
Y-100167D01*
X109998Y-100500D01*
X110664D01*
X110998Y-100167D01*
Y-99834D01*
X110664Y-99500D01*
X109665D01*
X-71500Y110999D02*
X-70167D01*
X-70834D01*
Y109000D01*
X-69501D02*
Y110999D01*
X-68501D01*
X-68168Y110666D01*
Y110000D01*
X-68501Y109667D01*
X-69501D01*
X-67501Y109000D02*
X-66835D01*
X-67168D01*
Y110999D01*
X-67501Y110666D01*
X-65835Y109000D02*
X-65169D01*
X-65502D01*
Y110999D01*
X-65835Y110666D01*
X52900Y-98201D02*
X54233D01*
X53566D01*
Y-100200D01*
X54899D02*
Y-98201D01*
X55899D01*
X56232Y-98534D01*
Y-99200D01*
X55899Y-99534D01*
X54899D01*
X56899Y-100200D02*
X57565D01*
X57232D01*
Y-98201D01*
X56899Y-98534D01*
X58565Y-98201D02*
X59898D01*
Y-98534D01*
X58565Y-99867D01*
Y-100200D01*
X-12000Y-83501D02*
X-10667D01*
X-11333D01*
Y-85500D01*
X-10001D02*
Y-83501D01*
X-9001D01*
X-8668Y-83834D01*
Y-84500D01*
X-9001Y-84834D01*
X-10001D01*
X-7002Y-85500D02*
Y-83501D01*
X-8001Y-84500D01*
X-6668D01*
X-12000Y-88501D02*
X-10667D01*
X-11333D01*
Y-90500D01*
X-10001D02*
Y-88501D01*
X-9001D01*
X-8668Y-88834D01*
Y-89500D01*
X-9001Y-89834D01*
X-10001D01*
X-6668Y-88501D02*
X-8001D01*
Y-89500D01*
X-7335Y-89167D01*
X-7002D01*
X-6668Y-89500D01*
Y-90167D01*
X-7002Y-90500D01*
X-7668D01*
X-8001Y-90167D01*
X-61500Y111999D02*
X-60167D01*
X-60834D01*
Y110000D01*
X-59501D02*
Y111999D01*
X-58501D01*
X-58168Y111666D01*
Y111000D01*
X-58501Y110667D01*
X-59501D01*
X-57501Y110000D02*
X-56835D01*
X-57168D01*
Y111999D01*
X-57501Y111666D01*
X-54502Y110000D02*
X-55835D01*
X-54502Y111333D01*
Y111666D01*
X-54835Y111999D01*
X-55502D01*
X-55835Y111666D01*
X-51500Y105999D02*
X-50167D01*
X-50834D01*
Y104000D01*
X-49501D02*
Y105999D01*
X-48501D01*
X-48168Y105666D01*
Y105000D01*
X-48501Y104666D01*
X-49501D01*
X-47501Y104000D02*
X-46835D01*
X-47168D01*
Y105999D01*
X-47501Y105666D01*
X-45835D02*
X-45502Y105999D01*
X-44835D01*
X-44502Y105666D01*
Y105333D01*
X-44835Y105000D01*
X-45169D01*
X-44835D01*
X-44502Y104666D01*
Y104333D01*
X-44835Y104000D01*
X-45502D01*
X-45835Y104333D01*
X-112500Y102999D02*
X-110834D01*
X-111667D01*
Y100500D01*
X-110001D02*
Y102999D01*
X-108751D01*
X-108335Y102583D01*
Y101750D01*
X-108751Y101333D01*
X-110001D01*
X-107502Y100500D02*
X-106669D01*
X-107085D01*
Y102999D01*
X-107502Y102583D01*
X-104169Y100500D02*
Y102999D01*
X-105419Y101750D01*
X-103753D01*
X98000Y-110001D02*
X99333D01*
X98666D01*
Y-112000D01*
X99999D02*
Y-110001D01*
X100999D01*
X101332Y-110334D01*
Y-111000D01*
X100999Y-111334D01*
X99999D01*
X103332Y-112000D02*
X101999D01*
X103332Y-110667D01*
Y-110334D01*
X102998Y-110001D01*
X102332D01*
X101999Y-110334D01*
X103998D02*
X104331Y-110001D01*
X104998D01*
X105331Y-110334D01*
Y-111667D01*
X104998Y-112000D01*
X104331D01*
X103998Y-111667D01*
Y-110334D01*
X5501Y-73500D02*
Y-72167D01*
Y-72834D01*
X7500D01*
Y-71501D02*
X5501D01*
Y-70501D01*
X5834Y-70168D01*
X6500D01*
X6833Y-70501D01*
Y-71501D01*
X5834Y-69501D02*
X5501Y-69168D01*
Y-68502D01*
X5834Y-68168D01*
X6167D01*
X6500Y-68502D01*
Y-68835D01*
Y-68502D01*
X6833Y-68168D01*
X7167D01*
X7500Y-68502D01*
Y-69168D01*
X7167Y-69501D01*
X28500Y-65001D02*
X29833D01*
X29166D01*
Y-67000D01*
X30499D02*
Y-65001D01*
X31499D01*
X31832Y-65334D01*
Y-66000D01*
X31499Y-66334D01*
X30499D01*
X32499Y-65334D02*
X32832Y-65001D01*
X33498D01*
X33832Y-65334D01*
Y-65667D01*
X33498Y-66000D01*
X33832Y-66334D01*
Y-66667D01*
X33498Y-67000D01*
X32832D01*
X32499Y-66667D01*
Y-66334D01*
X32832Y-66000D01*
X32499Y-65667D01*
Y-65334D01*
X32832Y-66000D02*
X33498D01*
D74*
X29429Y138287D02*
D03*
M02*
